{"glyphs":{"0":{"ha":1044,"x_min":46,"x_max":993,"o":"m 46 378 q 89 588 46 482 q 205 781 132 694 q 386 921 278 867 q 615 975 494 975 q 792 937 717 975 q 910 833 867 899 q 973 687 953 767 q 993 513 993 607 q 851 120 993 254 q 482 -14 708 -14 q 156 98 267 -14 q 46 378 46 210 m 322 419 q 366 294 322 347 q 481 242 410 242 q 654 325 574 242 q 735 518 735 408 q 690 649 735 596 q 569 701 644 701 q 394 610 467 701 q 322 419 322 518 z "},"1":{"ha":575,"x_min":38,"x_max":526,"o":"m 38 782 q 46 864 38 853 q 96 902 65 882 q 200 947 126 922 q 354 971 274 971 q 432 958 404 971 q 451 676 451 918 q 432 207 451 333 q 456 208 440 208 q 522 193 492 208 q 526 169 526 186 q 515 84 526 140 q 494 14 503 28 q 343 1 469 1 q 86 39 119 1 q 78 121 78 50 q 86 196 78 188 l 164 208 q 196 213 192 213 q 179 492 179 353 q 196 760 179 626 q 46 707 132 715 q 38 782 38 715 z "},"2":{"ha":917,"x_min":56,"x_max":851,"o":"m 56 0 q 60 112 58 72 q 67 207 63 151 q 78 290 72 263 q 96 358 85 318 q 122 417 107 397 q 158 463 136 438 q 208 502 181 489 q 272 531 235 515 q 353 555 308 546 q 453 571 397 564 q 475 574 460 572 q 497 576 490 575 q 515 580 503 578 q 533 584 528 582 q 545 590 538 586 q 556 597 553 593 q 564 608 560 601 q 569 622 568 614 q 571 640 571 631 q 526 727 571 696 q 419 758 482 758 q 328 738 369 758 q 275 678 288 717 q 267 632 275 653 q 164 617 244 617 q 149 617 156 617 q 139 618 142 618 q 95 694 108 625 q 82 844 82 763 q 90 942 82 917 q 142 957 101 950 q 218 964 182 964 q 254 958 249 964 q 269 926 265 950 q 275 894 272 901 q 511 983 378 983 q 749 888 649 983 q 850 640 850 792 q 836 542 850 585 q 793 474 822 500 q 736 432 764 449 q 665 407 708 415 q 595 396 621 399 q 528 390 569 393 q 403 367 432 385 q 372 275 374 349 q 522 256 467 256 q 669 283 599 256 q 668 293 668 288 q 671 307 668 300 q 679 324 674 314 q 688 338 685 333 q 750 351 711 351 q 815 338 790 351 q 842 272 833 328 q 851 163 851 217 q 842 71 851 111 q 824 17 832 31 q 811 0 815 3 q 726 -7 776 -7 q 654 7 658 -7 q 640 68 642 57 q 435 26 590 26 q 247 35 397 26 q 236 10 246 13 q 138 -7 224 -7 q 56 0 76 -7 z "},"3":{"ha":808,"x_min":-1,"x_max":756,"o":"m -1 174 q 0 183 -1 179 q 30 226 4 199 q 115 292 56 254 q 244 351 174 331 q 291 306 267 342 q 317 246 315 269 q 297 217 315 235 q 356 204 326 204 q 440 235 404 204 q 475 317 475 265 q 439 393 475 364 q 383 388 417 388 q 325 396 344 388 q 299 511 299 426 q 310 615 299 571 q 346 626 314 619 q 408 632 378 632 q 457 624 449 632 q 476 679 476 646 q 444 762 476 726 q 364 797 413 797 q 324 789 342 797 q 326 769 324 783 q 275 740 311 740 q 258 746 265 740 q 201 825 229 769 q 174 914 174 881 q 253 950 193 949 l 264 939 q 431 990 344 990 q 653 899 568 990 q 738 690 738 807 q 640 492 738 563 q 756 275 756 403 q 696 115 756 186 q 544 8 636 44 q 351 -28 453 -28 q 90 79 183 -28 q 50 63 58 63 q 13 115 28 82 q -1 174 -1 147 z "},"4":{"ha":790,"x_min":17,"x_max":740,"o":"m 17 486 q 25 579 17 554 q 382 953 149 818 q 513 981 447 981 q 618 953 576 981 q 638 663 638 890 q 636 571 638 601 q 651 572 640 571 q 667 572 661 572 q 696 569 682 572 q 729 475 729 554 q 704 393 729 414 q 664 388 697 388 q 631 389 643 388 q 638 308 638 340 q 618 201 638 235 q 642 203 626 203 q 708 188 678 203 q 740 78 740 172 q 731 11 740 31 q 499 -6 664 -6 q 279 15 293 -6 q 268 110 268 32 q 288 190 268 172 q 336 203 300 199 q 396 207 361 207 q 388 314 388 288 q 394 386 388 363 q 207 379 332 379 q 25 389 54 379 q 17 486 17 406 m 226 579 q 301 582 271 582 q 390 578 356 582 q 396 740 390 626 q 226 579 282 654 z "},"5":{"ha":888,"x_min":69,"x_max":833,"o":"m 69 671 q 104 981 69 888 q 182 1000 132 1000 q 329 981 283 1000 q 340 942 338 979 q 454 950 374 950 q 608 936 557 950 q 621 994 611 971 q 740 1010 633 1010 q 793 1004 776 1010 q 805 974 796 1003 q 824 892 814 946 q 833 786 833 838 q 797 667 833 688 q 713 646 751 646 q 614 661 653 646 q 600 694 600 674 q 610 728 600 714 q 456 747 579 747 q 339 736 372 747 q 319 657 319 710 q 328 620 319 639 q 353 596 336 601 q 436 597 369 597 q 727 517 631 597 q 824 318 824 436 q 724 87 824 189 q 496 -15 624 -15 q 313 54 396 -15 q 269 3 303 29 q 183 -7 231 -7 q 86 7 124 -7 q 76 96 76 26 q 91 249 76 176 q 135 331 106 321 q 206 338 169 338 q 304 317 269 338 q 313 271 313 296 q 435 215 353 215 q 527 241 488 215 q 567 307 567 267 q 472 397 567 369 q 247 425 378 425 q 118 417 172 425 q 69 671 69 436 z "},"6":{"ha":918,"x_min":49,"x_max":860,"o":"m 49 493 q 95 732 49 622 q 241 915 142 842 q 475 988 340 988 q 683 936 581 988 q 688 945 685 938 q 696 959 692 953 q 701 965 700 965 q 742 971 718 971 q 808 960 775 971 q 851 935 840 950 q 852 923 851 931 q 853 906 853 915 q 827 766 853 839 q 758 651 801 693 q 738 650 751 650 q 665 663 708 650 q 607 688 621 676 q 603 710 603 697 q 613 746 603 736 q 506 769 557 769 q 381 719 429 769 q 332 572 332 668 q 333 554 332 564 q 333 540 333 544 q 553 619 425 619 q 781 533 701 619 q 860 321 860 447 q 748 72 860 165 q 481 -21 636 -21 q 245 56 346 -21 q 97 247 144 132 q 49 493 49 361 m 386 278 q 414 201 386 228 q 486 175 442 175 q 589 224 549 175 q 629 333 629 274 q 604 407 629 378 q 531 436 579 436 q 427 388 468 436 q 386 278 386 339 z "},"7":{"ha":625,"x_min":31,"x_max":629,"o":"m 31 785 q 81 961 31 929 q 192 978 100 971 q 372 986 283 986 q 629 940 563 986 q 448 338 543 618 q 289 1 353 58 q 169 -7 228 -7 q 78 13 79 -7 q 364 778 221 538 q 313 774 360 778 q 235 768 267 769 q 219 675 232 701 q 188 669 208 669 q 100 686 149 669 q 36 722 51 703 q 31 785 31 757 z "},"8":{"ha":822,"x_min":44,"x_max":779,"o":"m 44 264 q 83 419 44 342 q 192 556 121 497 q 106 711 106 617 q 194 904 106 819 q 442 989 282 989 q 641 927 572 989 q 710 754 710 865 q 691 666 710 697 q 633 613 672 635 q 779 349 779 503 q 660 95 779 204 q 364 -14 542 -14 q 130 67 215 -14 q 44 264 44 147 m 303 296 q 327 228 303 257 q 390 199 351 199 q 485 244 440 199 q 531 349 531 290 q 504 421 531 392 q 436 450 478 450 q 342 399 381 450 q 303 296 303 349 m 335 703 q 352 654 335 675 q 399 633 369 633 q 466 666 435 633 q 497 742 497 699 q 480 793 497 772 q 433 814 463 814 q 364 778 393 814 q 335 703 335 742 z "},"9":{"ha":928,"x_min":61,"x_max":879,"o":"m 61 638 q 176 891 61 794 q 449 988 292 988 q 682 911 582 988 q 831 720 782 835 q 879 474 879 606 q 833 235 879 344 q 687 52 786 125 q 453 -21 588 -21 q 231 31 333 -21 q 226 22 229 29 q 218 8 222 14 q 213 1 214 1 q 119 10 174 1 q 63 32 65 19 q 96 223 65 151 q 156 315 126 294 q 176 317 163 317 q 249 303 206 317 q 307 279 293 290 q 311 257 311 269 q 301 221 311 231 q 425 197 357 197 q 529 222 485 197 q 596 285 574 246 q 628 361 618 324 q 638 433 638 399 q 632 471 638 461 q 516 374 588 407 q 361 340 444 340 q 143 424 225 340 q 61 638 61 507 m 292 625 q 317 553 292 582 q 389 524 342 524 q 497 575 453 524 q 542 690 542 626 q 513 765 542 739 q 442 792 485 792 q 335 739 379 792 q 292 625 292 686 z "},"\u0000":{"ha":0,"x_min":0,"x_max":0,"o":""},"\r":{"ha":463,"x_min":0,"x_max":0,"o":""}," ":{"ha":271,"x_min":0,"x_max":0,"o":""},"!":{"ha":400,"x_min":50,"x_max":350,"o":"m 50 661 q 126 958 50 818 q 149 966 133 960 q 177 975 164 972 q 204 978 190 978 q 275 958 236 978 q 350 638 350 803 q 254 275 350 449 q 206 256 232 256 q 160 271 182 256 q 50 661 50 471 m 122 86 q 131 165 122 125 q 196 176 160 176 q 269 165 232 176 q 282 83 282 124 q 269 0 282 42 q 204 -11 243 -11 q 131 0 157 -11 q 122 86 122 44 z "},"\"":{"ha":514,"x_min":43,"x_max":469,"o":"m 43 769 q 65 844 43 815 q 129 872 86 872 q 196 844 172 872 q 219 768 219 815 q 165 553 219 696 l 92 569 q 62 672 81 588 q 43 769 43 756 m 293 769 q 315 844 293 815 q 379 872 336 872 q 446 844 422 872 q 469 768 469 815 q 415 553 469 696 l 342 569 q 312 672 331 588 q 293 769 293 756 z "},"#":{"ha":910,"x_min":61,"x_max":849,"o":"m 74 207 q 61 268 61 242 q 74 318 61 294 l 194 324 l 214 440 q 240 585 229 532 l 79 593 q 63 646 63 618 q 79 704 63 672 q 269 721 175 717 l 311 883 q 329 888 314 888 q 382 880 351 888 q 421 864 413 872 l 403 724 q 603 721 489 724 l 644 883 q 663 888 647 888 q 715 880 685 888 q 754 864 746 872 q 735 713 750 822 q 836 704 786 710 q 849 643 849 669 q 836 593 849 617 l 715 588 l 696 471 q 669 326 681 379 l 831 318 q 847 265 847 293 q 831 207 847 239 q 640 190 735 194 l 599 28 q 581 24 597 24 q 528 31 558 24 q 489 47 497 39 l 507 188 q 307 190 421 188 l 265 28 q 247 24 264 24 q 194 31 225 24 q 156 47 164 39 q 175 199 160 89 q 74 207 122 201 m 338 328 q 415 328 356 328 q 528 329 474 329 l 572 583 q 495 583 554 583 q 382 582 436 582 l 338 328 z "},"$":{"ha":861,"x_min":56,"x_max":803,"o":"m 56 636 q 142 876 56 776 q 371 994 229 976 q 382 1161 375 1090 q 422 1174 401 1174 q 476 1147 444 1174 l 488 997 q 608 949 554 989 q 647 996 617 982 q 694 1001 660 1001 q 788 993 757 1001 q 796 893 796 942 q 736 660 796 764 q 610 674 629 660 q 600 726 603 692 q 496 774 561 774 q 499 592 499 649 q 606 578 560 589 q 701 544 651 568 q 776 469 750 519 q 803 347 803 419 q 708 107 803 206 q 488 0 614 8 q 476 -169 485 -56 q 431 -183 451 -183 q 382 -153 400 -183 q 376 -69 381 -124 q 371 10 372 -15 q 269 50 318 22 q 226 -1 260 25 q 165 -15 213 -15 q 85 3 103 -15 q 76 100 76 28 q 133 299 76 286 q 143 299 136 299 q 158 300 150 300 q 261 285 239 300 q 269 239 269 264 q 363 200 310 204 q 358 414 358 306 q 307 413 340 414 q 267 413 274 413 q 117 465 178 413 q 56 636 56 517 m 328 671 q 388 606 328 626 q 390 757 388 651 q 328 671 328 732 m 457 224 q 508 274 489 244 q 526 333 526 304 q 460 408 526 390 q 457 224 460 349 z "},"%":{"ha":1231,"x_min":50,"x_max":1181,"o":"m 115 472 q 82 510 115 472 q 50 674 50 547 q 115 875 50 800 q 276 950 179 950 q 438 875 374 950 q 503 674 503 800 q 438 472 503 547 q 276 397 374 397 q 115 472 179 397 m 260 797 q 249 778 260 797 q 239 701 239 760 q 260 606 239 643 q 322 569 282 569 q 384 606 364 569 q 404 701 404 643 q 383 797 404 760 q 322 833 363 833 q 260 797 281 833 m 267 15 q 397 269 318 94 q 524 521 475 444 q 692 734 572 597 q 863 950 813 871 q 897 956 879 956 q 958 926 938 956 q 833 679 907 849 q 708 432 758 510 q 535 213 660 356 q 361 -8 411 69 q 321 -15 336 -15 q 267 15 285 -15 m 792 64 q 760 101 792 64 q 728 265 728 139 q 792 467 728 392 q 954 542 857 542 q 1116 467 1051 542 q 1181 265 1181 392 q 1116 64 1181 139 q 954 -11 1051 -11 q 792 64 857 -11 m 938 388 q 927 370 938 388 q 917 293 917 351 q 938 198 917 235 q 1000 161 960 161 q 1062 198 1042 161 q 1082 293 1082 235 q 1061 388 1082 351 q 1000 425 1040 425 q 938 388 958 425 z "},"&":{"ha":1057,"x_min":36,"x_max":1082,"o":"m 36 214 q 80 380 36 300 q 197 500 124 460 q 104 744 104 636 q 194 935 104 858 q 431 1013 283 1013 q 633 947 567 1013 q 699 785 699 882 q 651 627 699 701 q 511 508 603 553 q 644 368 629 388 q 801 542 772 472 q 774 571 797 547 q 747 601 751 594 q 851 674 808 656 q 990 549 900 649 q 1082 417 1079 449 q 1039 374 1082 410 q 988 335 996 339 q 958 353 972 335 q 939 388 943 371 q 790 208 865 279 q 863 132 853 140 l 643 -21 q 610 15 640 -18 q 557 72 579 47 q 268 -17 407 -17 q 94 49 153 -17 q 36 214 36 115 m 261 271 q 281 218 261 239 q 333 197 301 197 q 435 249 385 197 q 398 291 422 264 q 355 340 374 318 q 321 383 336 363 q 261 271 261 329 m 347 738 q 356 697 347 718 q 374 663 364 676 q 404 622 383 650 q 519 756 519 692 q 492 803 519 783 q 431 822 465 822 q 370 798 393 822 q 347 738 347 774 z "},"'":{"ha":251,"x_min":51,"x_max":197,"o":"m 51 792 q 53 829 51 817 q 118 839 83 839 q 193 829 150 839 q 197 764 197 796 q 160 540 197 663 q 135 535 149 535 q 86 557 108 535 q 51 792 51 689 z "},"(":{"ha":526,"x_min":22,"x_max":526,"o":"m 22 319 q 58 493 22 407 q 158 654 94 579 q 297 792 222 729 q 463 911 372 854 q 514 860 514 893 q 482 794 514 833 q 322 599 369 714 q 274 326 274 483 q 328 48 274 167 q 526 -201 383 -71 q 479 -249 522 -249 q 407 -228 450 -249 q 312 -140 376 -197 q 205 -42 247 -83 q 116 56 163 -1 q 46 180 69 114 q 22 319 22 246 z "},")":{"ha":526,"x_min":0,"x_max":504,"o":"m 0 -201 q 198 48 143 -71 q 253 326 253 167 q 205 599 253 483 q 44 794 157 714 q 13 860 13 833 q 64 911 13 893 q 229 792 154 854 q 368 654 304 729 q 468 493 432 579 q 504 319 504 407 q 481 180 504 246 q 410 56 457 114 q 322 -42 364 -1 q 215 -140 279 -83 q 119 -228 150 -197 q 47 -249 75 -249 q 0 -201 4 -249 z "},"*":{"ha":561,"x_min":57,"x_max":504,"o":"m 57 685 q 72 715 57 703 q 96 718 83 718 q 152 712 118 718 q 210 699 186 706 q 236 690 233 692 q 235 711 236 697 q 233 739 233 725 q 256 850 233 789 q 278 860 265 860 q 301 850 286 860 q 324 735 324 793 q 321 686 324 717 q 486 715 390 715 q 504 694 504 711 q 500 675 504 686 q 349 603 454 629 q 429 454 401 556 q 403 429 429 429 q 393 431 396 429 q 279 551 319 471 q 164 431 246 485 q 129 454 135 431 q 208 603 160 558 q 58 675 131 614 q 58 679 58 676 q 57 685 57 682 z "},"+":{"ha":768,"x_min":42,"x_max":724,"o":"m 64 381 q 42 431 42 406 q 64 483 42 456 q 200 497 129 497 q 332 483 271 497 q 313 632 313 561 q 332 760 313 701 q 389 776 364 776 q 440 760 417 776 q 460 628 460 697 q 440 483 460 557 q 565 494 497 494 q 708 483 633 494 q 724 436 724 463 q 708 381 724 411 q 567 363 632 363 q 440 381 503 363 q 460 251 460 321 q 440 104 460 179 q 383 90 408 90 q 332 104 356 90 q 317 247 317 178 q 332 381 317 318 q 194 365 263 365 q 64 381 125 365 z "},",":{"ha":326,"x_min":28,"x_max":285,"o":"m 28 -129 q 82 192 31 68 q 214 228 150 228 q 285 217 240 228 q 133 -87 256 63 q 49 -131 82 -131 q 28 -129 35 -131 z "},"-":{"ha":499,"x_min":60,"x_max":440,"o":"m 60 388 q 78 442 60 415 q 268 457 192 457 q 419 442 349 457 q 440 388 440 417 q 419 321 440 358 q 272 303 356 303 q 78 321 199 303 q 60 388 60 357 z "},".":{"ha":317,"x_min":46,"x_max":271,"o":"m 46 111 q 76 204 46 160 q 157 233 117 233 q 242 204 197 233 q 271 107 271 160 q 242 4 271 56 q 154 -29 194 -29 q 76 4 114 -29 q 46 111 46 58 z "},"/":{"ha":833,"x_min":33,"x_max":800,"o":"m 33 -125 q 689 999 278 576 q 749 1017 724 1017 q 800 975 786 1017 q 144 -149 597 329 q 81 -179 108 -179 q 33 -125 46 -179 z "},":":{"ha":372,"x_min":74,"x_max":299,"o":"m 74 111 q 104 204 74 160 q 185 233 144 233 q 269 204 225 233 q 299 107 299 160 q 269 4 299 56 q 182 -29 222 -29 q 104 4 142 -29 q 74 111 74 58 m 74 583 q 104 676 74 632 q 185 706 144 706 q 269 676 225 706 q 299 579 299 632 q 269 476 299 528 q 182 443 222 443 q 104 476 142 443 q 74 583 74 531 z "},";":{"ha":368,"x_min":54,"x_max":311,"o":"m 54 -129 q 108 192 57 68 q 240 228 176 228 q 311 217 267 228 q 160 -87 282 63 q 75 -131 108 -131 q 54 -129 61 -131 m 82 583 q 113 676 82 632 q 193 706 153 706 q 278 676 233 706 q 307 579 307 632 q 278 476 307 528 q 190 443 231 443 q 113 476 150 443 q 82 583 82 531 z "},"<":{"ha":797,"x_min":43,"x_max":714,"o":"m 43 442 q 72 489 43 465 q 693 797 421 717 q 708 739 708 767 q 693 678 708 711 q 200 443 494 533 q 693 207 508 347 q 714 149 714 178 q 693 86 714 121 q 72 394 322 213 q 43 442 43 419 z "},"=":{"ha":742,"x_min":76,"x_max":665,"o":"m 76 388 q 94 442 76 415 q 378 457 208 457 q 537 452 435 457 q 644 442 639 447 q 665 388 665 417 q 644 321 665 358 q 383 303 586 303 q 94 321 215 303 q 76 388 76 357 m 76 624 q 94 678 76 651 q 378 693 208 693 q 537 688 435 693 q 644 678 639 683 q 665 624 665 653 q 644 557 665 594 q 383 539 586 539 q 94 557 215 539 q 76 624 76 593 z "},">":{"ha":797,"x_min":83,"x_max":754,"o":"m 83 146 q 104 204 83 175 q 597 440 289 344 q 104 675 303 531 q 89 736 89 708 q 104 794 89 764 q 725 486 376 714 q 754 439 754 463 q 725 392 754 417 q 104 83 475 210 q 83 146 83 118 z "},"?":{"ha":775,"x_min":44,"x_max":728,"o":"m 44 758 q 104 888 44 831 q 238 963 157 936 q 406 989 318 989 q 634 926 540 989 q 728 747 728 864 q 718 678 728 710 q 685 620 708 647 q 640 574 661 593 q 575 531 618 554 q 504 493 532 507 q 421 454 476 479 q 433 376 433 424 q 421 278 433 331 q 344 271 394 271 q 257 278 271 271 q 238 389 238 315 q 250 518 238 464 q 385 588 342 543 q 429 682 429 632 q 393 765 429 732 q 310 799 357 799 q 238 771 269 799 q 196 688 207 743 q 131 678 161 678 q 66 700 88 678 q 44 758 44 722 m 239 96 q 257 179 239 139 q 354 196 292 196 q 424 179 388 196 q 450 96 450 126 q 424 14 450 60 q 347 -7 382 -7 q 257 14 283 -7 q 239 96 239 54 z "},"@":{"ha":1285,"x_min":64,"x_max":1233,"o":"m 64 274 q 149 628 64 465 q 386 887 233 790 q 725 983 539 983 q 1093 842 953 983 q 1233 467 1233 701 q 1113 144 1233 257 q 768 31 992 31 q 661 38 724 31 q 651 78 651 60 q 656 92 651 86 q 576 54 636 86 q 474 22 515 22 q 341 103 389 22 q 293 300 293 183 q 360 556 293 440 q 544 672 426 672 q 604 663 578 672 q 646 639 631 653 q 672 610 661 625 q 686 586 682 596 l 692 576 q 690 639 692 618 q 836 674 732 674 q 982 651 958 674 q 986 582 986 639 q 982 513 986 525 q 921 489 964 489 q 893 492 907 489 q 897 431 897 483 q 886 253 897 268 q 949 231 918 231 q 1034 290 1003 231 q 1065 447 1065 350 q 963 722 1065 625 q 704 819 861 819 q 369 670 506 819 q 232 294 232 521 q 333 13 232 106 q 610 -81 435 -81 q 886 -17 763 -81 l 951 -167 q 596 -243 783 -243 q 206 -108 347 -243 q 64 274 64 28 m 456 321 q 479 253 456 282 q 540 225 503 225 q 632 270 589 225 q 675 371 675 315 q 651 441 675 413 q 588 469 626 469 q 496 422 536 469 q 456 321 456 374 z "},"A":{"ha":1118,"x_min":6,"x_max":1113,"o":"m 6 86 q 28 189 6 185 q 71 200 28 200 q 114 189 107 200 q 249 607 124 250 q 388 965 374 964 q 578 972 467 972 q 731 965 646 972 q 869 608 744 964 q 1004 189 994 251 q 1047 200 1015 200 q 1090 189 1090 200 q 1113 86 1113 185 q 1097 17 1113 22 q 881 0 1079 0 q 718 5 796 0 q 640 15 640 10 q 610 126 610 35 q 614 165 610 153 q 624 181 614 174 q 650 188 635 188 q 690 182 690 188 q 696 197 696 182 q 682 300 696 221 q 561 293 649 293 q 436 300 469 293 q 422 197 422 232 q 428 182 422 182 q 468 188 428 188 q 494 181 483 188 q 504 165 504 174 q 508 126 508 153 q 478 15 508 35 q 400 5 478 10 q 238 0 322 0 q 21 17 39 0 q 6 86 6 22 m 471 458 q 553 464 510 464 q 646 457 604 464 q 558 744 604 625 q 471 458 513 626 z "},"B":{"ha":878,"x_min":53,"x_max":842,"o":"m 53 92 q 63 161 53 128 q 121 182 75 182 q 142 179 128 182 q 131 425 131 308 q 149 776 131 636 q 72 783 118 776 q 64 867 64 794 q 68 949 64 939 q 115 970 74 960 q 215 981 156 981 q 332 978 315 981 q 338 922 338 960 q 439 964 376 946 q 550 982 501 982 q 729 895 657 982 q 801 699 801 808 q 700 478 801 569 q 842 247 842 397 q 769 64 842 142 q 579 -14 697 -14 q 417 43 479 -14 q 406 4 417 13 q 218 -12 326 -12 q 63 8 143 -12 q 53 92 53 54 m 385 321 q 426 224 385 267 q 515 181 468 181 q 571 205 551 181 q 590 265 590 229 q 553 363 590 317 q 467 408 517 408 q 408 385 432 408 q 385 321 385 361 m 389 722 q 427 632 389 672 q 511 592 465 592 q 567 614 544 592 q 590 672 590 636 q 555 765 590 721 q 471 808 519 808 q 413 784 436 808 q 389 722 389 760 z "},"C":{"ha":921,"x_min":43,"x_max":869,"o":"m 43 478 q 152 836 43 690 q 442 982 261 982 q 636 921 574 982 q 665 972 639 963 q 750 988 700 988 q 853 960 815 988 q 869 796 869 863 q 819 604 869 676 q 690 576 746 576 q 578 604 638 576 q 576 617 576 607 q 581 639 576 633 q 536 723 581 692 q 453 754 492 754 q 356 667 396 754 q 315 474 315 579 q 354 317 315 374 q 451 261 393 261 q 578 335 518 261 q 574 363 574 360 q 574 368 574 365 q 575 372 575 371 q 686 396 626 396 q 821 368 749 396 q 869 178 869 294 q 853 13 869 113 q 742 -22 810 -22 q 665 0 692 -22 q 636 54 636 11 q 450 -8 544 -8 q 306 22 376 -8 q 175 111 235 53 q 79 265 115 169 q 43 478 43 360 z "},"D":{"ha":968,"x_min":53,"x_max":922,"o":"m 53 810 q 71 899 53 894 q 363 974 203 974 q 617 935 508 974 q 792 824 726 896 q 890 658 858 751 q 922 447 922 564 q 794 101 922 217 q 392 -14 667 -14 q 81 44 229 -14 q 61 167 61 86 q 71 256 61 238 q 129 276 75 276 q 164 274 144 276 q 150 476 150 371 q 167 685 150 564 q 129 681 153 681 q 71 701 75 681 q 59 749 65 711 q 53 810 53 786 m 404 254 q 474 246 439 246 q 611 299 558 246 q 664 460 664 353 q 610 655 664 569 q 464 740 557 740 q 404 731 433 740 q 417 488 417 606 q 404 254 417 367 z "},"E":{"ha":942,"x_min":63,"x_max":890,"o":"m 63 99 q 100 226 63 207 q 139 239 119 239 q 146 238 143 239 q 129 475 129 361 q 158 742 129 621 q 139 739 144 739 q 100 751 119 739 q 63 879 63 771 q 75 944 63 928 q 238 977 119 965 q 465 989 356 989 q 876 936 721 989 q 890 817 890 894 q 858 653 890 758 q 793 644 825 644 q 643 690 713 644 l 647 736 q 544 754 619 754 q 454 742 460 754 q 460 668 460 692 q 442 568 460 614 q 496 572 494 568 q 494 585 494 576 q 507 622 494 600 q 553 629 515 629 q 633 619 611 629 q 661 488 661 574 q 632 381 661 410 q 567 371 621 371 q 504 381 513 371 q 492 422 492 397 l 435 415 q 419 257 435 403 q 539 217 468 217 q 647 242 600 217 l 643 288 q 793 333 713 333 q 858 325 825 333 q 890 161 890 219 q 876 42 890 83 q 499 -18 772 -18 q 244 -3 365 -18 q 75 33 124 11 q 63 99 63 50 z "},"F":{"ha":893,"x_min":51,"x_max":890,"o":"m 51 151 q 57 186 51 181 q 119 192 96 192 q 134 191 124 192 q 150 190 144 190 q 140 408 140 315 q 158 742 140 492 q 139 739 144 739 q 100 751 119 739 q 60 876 60 779 q 75 944 60 925 q 379 986 164 986 q 668 971 515 986 q 876 936 821 956 q 890 817 890 894 q 858 653 890 758 q 793 644 825 644 q 643 690 713 644 l 647 736 q 544 754 619 754 q 454 742 460 754 q 418 529 435 674 q 483 533 482 529 q 482 578 482 539 q 497 624 482 596 q 521 628 503 628 q 606 616 550 628 q 676 596 663 604 q 688 514 688 588 q 651 324 688 358 q 569 315 642 315 q 494 324 503 315 q 478 390 478 346 l 408 388 q 415 183 408 322 q 456 188 428 188 q 496 182 492 188 q 510 82 510 164 q 507 15 510 15 q 417 -10 488 0 q 265 -19 347 -19 q 69 8 124 -19 q 51 151 51 32 z "},"G":{"ha":917,"x_min":44,"x_max":857,"o":"m 44 481 q 151 844 44 703 q 424 986 258 986 q 624 935 521 986 q 633 958 628 935 q 653 986 639 982 q 753 997 714 997 q 839 974 810 997 q 849 886 849 935 q 819 704 849 786 q 728 690 813 690 q 629 703 654 690 q 617 729 617 713 q 624 758 617 738 q 518 776 568 776 q 357 694 411 776 q 303 486 303 611 q 353 306 303 363 q 481 249 404 249 q 565 268 524 249 q 586 331 586 304 q 565 390 586 360 q 440 407 443 390 q 428 461 428 417 q 444 539 428 529 q 604 582 472 582 q 746 569 678 582 q 822 535 814 556 q 846 414 835 506 q 857 219 857 322 q 840 13 857 97 q 754 -11 811 -11 q 653 0 717 -11 q 624 54 624 11 q 438 -8 532 -8 q 297 22 365 -8 q 171 109 228 51 q 79 263 114 167 q 44 481 44 360 z "},"H":{"ha":1064,"x_min":60,"x_max":1007,"o":"m 60 119 q 68 194 60 186 q 117 207 81 201 q 149 211 142 211 q 132 490 132 350 q 149 758 132 625 q 117 763 142 758 q 68 775 81 768 q 60 850 60 783 q 68 932 60 922 q 290 969 100 969 q 447 957 424 969 q 467 887 456 943 q 479 801 479 831 q 475 778 479 783 q 408 763 444 763 q 385 764 393 763 q 401 576 400 667 q 535 594 424 594 q 661 574 644 594 q 676 758 665 681 q 644 763 669 758 q 596 775 608 768 q 588 850 588 783 q 596 932 588 922 q 818 969 628 969 q 975 957 951 969 q 995 887 983 943 q 1007 801 1007 831 q 1003 778 1007 783 q 936 763 972 763 q 913 764 921 763 q 929 519 929 651 q 913 206 929 411 q 936 207 921 207 q 1003 192 972 207 q 1007 168 1007 186 q 995 83 1007 139 q 975 13 983 26 q 821 0 950 0 q 596 38 628 0 q 588 119 588 47 q 596 194 588 186 q 644 207 608 201 q 676 211 669 211 q 661 407 663 315 q 539 396 639 396 q 397 407 419 396 q 385 206 396 364 q 408 207 393 207 q 475 192 444 207 q 479 168 479 186 q 467 83 479 139 q 447 13 456 26 q 293 0 422 0 q 68 38 100 0 q 60 119 60 47 z "},"I":{"ha":535,"x_min":60,"x_max":479,"o":"m 60 119 q 68 194 60 186 q 117 207 81 201 q 149 211 142 211 q 132 490 132 350 q 149 758 132 625 q 117 763 142 758 q 68 775 81 768 q 60 850 60 783 q 68 932 60 922 q 290 969 100 969 q 447 957 424 969 q 467 887 456 943 q 479 801 479 831 q 475 778 479 783 q 408 763 444 763 q 385 764 393 763 q 401 519 401 651 q 385 206 401 411 q 408 207 393 207 q 475 192 444 207 q 479 168 479 186 q 467 83 479 139 q 447 13 456 26 q 293 0 422 0 q 68 38 100 0 q 60 119 60 47 z "},"J":{"ha":856,"x_min":14,"x_max":833,"o":"m 14 44 q 47 251 14 106 q 97 406 81 396 q 124 410 108 410 q 205 400 154 410 q 268 381 256 390 q 271 369 271 381 q 261 271 271 339 q 344 239 310 239 q 440 335 410 239 q 471 572 471 431 q 450 804 471 710 q 397 790 432 790 q 346 810 360 790 q 345 827 346 815 q 344 849 344 839 q 372 960 344 913 q 544 971 428 971 q 829 936 789 971 q 833 874 833 919 q 817 785 833 804 q 785 778 811 778 q 733 785 747 778 q 751 572 751 682 q 717 285 751 417 q 614 70 683 154 q 451 -14 544 -14 q 338 5 406 -14 q 217 53 271 24 q 199 14 206 14 q 106 7 192 7 q 19 18 24 7 q 14 44 14 19 z "},"K":{"ha":1053,"x_min":61,"x_max":1038,"o":"m 61 119 q 69 194 61 186 q 118 208 82 201 q 150 211 143 213 q 133 490 133 350 q 150 758 133 625 q 118 763 143 758 q 69 775 82 768 q 61 850 61 783 q 69 932 61 922 q 297 969 101 969 q 449 957 422 969 q 469 887 457 943 q 481 801 481 831 q 476 778 481 783 q 410 763 446 763 q 386 764 394 763 q 403 606 401 654 q 686 765 618 657 q 668 764 681 764 q 615 783 639 764 q 603 843 603 796 q 618 958 603 922 q 736 972 632 972 q 903 961 825 972 q 983 932 982 950 q 1000 843 1000 914 q 992 775 1000 796 q 918 757 950 757 q 900 758 906 757 q 701 514 874 631 q 846 358 774 454 q 947 206 918 261 q 1007 194 996 206 q 1038 94 1038 178 q 1029 18 1038 36 q 818 -6 996 -6 q 617 13 642 -6 q 586 107 586 21 q 597 176 586 158 q 657 194 607 194 q 590 283 644 221 q 467 394 536 344 q 399 376 425 379 l 386 206 q 410 208 394 207 q 476 192 446 208 q 481 168 481 186 q 469 83 481 139 q 449 13 457 26 q 378 -3 443 4 q 261 -10 313 -10 q 138 5 193 -10 q 69 38 82 19 q 61 119 61 47 z "},"L":{"ha":901,"x_min":49,"x_max":889,"o":"m 49 850 q 68 969 49 939 q 297 982 114 982 q 518 969 500 982 q 539 849 539 933 q 531 806 539 814 q 458 794 500 794 q 411 800 432 794 q 407 618 407 721 q 453 242 407 410 q 543 229 458 229 q 646 247 619 229 l 642 335 q 793 379 718 379 q 857 372 819 379 q 889 167 889 267 q 875 47 889 89 q 667 13 819 28 q 378 -3 514 -3 q 74 39 163 -3 q 61 85 61 56 q 99 232 61 213 q 138 244 117 244 q 157 242 143 244 q 138 594 138 499 q 151 801 138 638 q 108 797 131 797 q 56 806 78 797 q 49 850 49 814 z "},"M":{"ha":1125,"x_min":54,"x_max":1078,"o":"m 54 117 q 72 194 54 172 q 153 211 108 211 q 136 490 136 350 q 153 758 136 625 q 121 763 146 758 q 72 775 85 768 q 63 853 63 786 q 72 932 63 918 q 140 959 82 949 q 254 969 199 969 q 384 957 314 969 q 464 935 454 944 q 486 814 486 885 q 479 778 486 789 q 431 763 450 764 q 561 608 486 700 q 693 764 635 697 q 656 775 665 769 q 646 853 646 786 q 656 932 646 918 q 722 959 667 949 q 849 969 776 969 q 1063 932 1011 969 q 1078 864 1078 917 q 1063 778 1078 800 q 996 763 1032 763 q 972 764 981 763 q 989 519 989 651 q 972 206 989 411 q 996 207 981 207 q 1063 192 1032 207 q 1069 142 1069 176 q 1059 57 1069 97 q 1035 13 1049 17 q 886 0 1007 0 q 656 38 708 0 q 636 117 636 57 q 656 194 636 174 q 704 207 668 201 q 736 211 729 211 q 719 501 719 350 q 561 388 635 388 q 406 500 489 388 q 389 206 401 372 q 413 207 397 207 q 479 192 449 207 q 501 104 501 164 q 482 36 501 57 q 274 0 429 0 q 72 38 99 0 q 54 117 54 51 z "},"N":{"ha":1076,"x_min":54,"x_max":1028,"o":"m 75 38 q 54 119 54 53 q 75 194 54 186 q 133 214 104 214 q 156 211 142 214 q 139 490 139 350 q 156 758 139 625 q 129 756 139 756 q 75 775 94 756 q 65 853 65 786 q 75 932 65 918 q 300 969 107 969 q 454 957 429 969 q 484 919 472 950 q 496 851 496 889 q 482 778 496 811 q 421 760 457 760 q 392 764 406 760 q 667 514 518 668 q 683 758 667 636 q 657 757 675 757 q 603 775 622 757 q 583 861 583 803 q 603 932 583 918 q 832 969 635 969 q 982 957 954 969 q 1014 915 1000 950 q 1028 843 1028 881 q 1010 778 1028 804 q 943 763 979 763 q 919 764 928 763 q 936 519 936 651 q 919 206 936 411 q 951 210 933 210 q 1010 192 989 210 q 1024 140 1024 178 q 1011 64 1024 103 q 982 13 999 25 q 831 0 956 0 q 603 38 635 0 q 582 124 582 58 q 603 194 582 182 q 658 214 625 214 q 679 211 665 214 q 407 478 525 338 q 392 206 406 365 q 421 208 408 208 q 482 192 464 208 q 494 139 494 178 q 483 60 494 100 q 454 13 471 21 q 297 0 431 0 q 75 38 107 0 z "},"O":{"ha":1031,"x_min":39,"x_max":986,"o":"m 39 378 q 82 588 39 482 q 198 781 125 694 q 379 921 271 867 q 608 975 488 975 q 785 937 710 975 q 903 833 860 899 q 966 687 946 767 q 986 513 986 607 q 844 120 986 254 q 475 -14 701 -14 q 149 98 260 -14 q 39 378 39 210 m 333 424 q 378 298 333 350 q 494 246 422 246 q 669 331 589 246 q 750 522 750 415 q 704 655 750 601 q 582 708 658 708 q 407 616 481 708 q 333 424 333 524 z "},"P":{"ha":904,"x_min":44,"x_max":888,"o":"m 44 844 q 69 926 44 911 q 152 964 82 950 q 303 978 222 978 q 421 964 385 978 q 428 915 428 938 q 426 903 428 904 q 519 944 442 908 q 643 981 596 981 q 775 921 717 981 q 860 779 833 861 q 888 617 888 697 q 806 391 888 482 q 585 300 725 300 q 460 317 518 300 q 463 285 463 306 q 454 179 463 229 q 490 181 460 181 q 537 174 513 181 q 568 156 561 167 q 589 92 589 142 q 568 26 589 49 q 324 -1 560 -1 q 147 6 226 -1 q 64 26 68 14 q 46 88 46 46 q 64 156 46 131 q 95 174 71 167 q 142 181 119 181 q 164 179 158 181 q 163 267 164 203 q 161 399 161 331 q 175 722 161 644 q 151 721 171 721 q 76 731 119 721 q 44 844 44 768 m 453 594 q 475 527 453 550 q 532 504 497 504 q 630 548 583 504 q 676 651 676 592 q 653 721 676 693 q 590 749 629 749 q 495 703 538 749 q 453 594 453 657 z "},"Q":{"ha":1039,"x_min":39,"x_max":1025,"o":"m 39 378 q 82 588 39 482 q 198 781 125 694 q 379 921 271 867 q 608 975 488 975 q 785 938 710 975 q 903 833 860 900 q 966 686 946 767 q 986 511 986 606 q 853 129 986 271 q 889 0 878 43 q 950 22 917 22 q 978 17 967 22 q 1011 -30 997 7 q 1025 -106 1025 -67 q 1014 -160 1025 -142 q 874 -236 979 -199 q 693 -274 769 -274 q 649 -267 664 -274 q 607 -216 628 -258 q 586 -137 586 -174 q 588 -121 586 -126 q 618 -89 593 -101 q 665 -76 643 -76 q 644 -33 657 -61 q 626 3 631 -6 q 478 -14 558 -14 q 149 98 260 -14 q 39 378 39 210 m 333 424 q 378 298 333 350 q 494 246 422 246 q 669 331 589 246 q 750 522 750 415 q 704 655 750 601 q 582 708 658 708 q 407 616 481 708 q 333 424 333 524 z "},"R":{"ha":994,"x_min":44,"x_max":1025,"o":"m 44 835 q 67 926 44 903 q 147 965 85 951 q 279 978 208 978 q 390 964 356 978 q 397 915 397 938 q 396 903 397 904 q 491 944 415 908 q 613 981 567 981 q 792 875 714 981 q 869 647 869 769 q 831 492 869 565 q 729 386 793 418 q 873 258 808 331 q 943 158 938 185 q 968 164 954 164 q 1004 156 983 164 q 1025 89 1025 136 q 1007 24 1025 42 q 814 0 961 0 q 647 24 715 0 q 624 52 633 29 q 614 103 614 75 q 629 153 614 138 q 653 161 639 161 q 679 156 663 161 q 647 212 667 186 q 606 253 626 238 q 562 282 585 269 q 518 301 539 294 q 482 310 497 307 q 456 315 467 314 l 443 317 q 450 244 450 282 q 443 176 450 208 q 469 181 453 181 q 538 156 514 181 q 543 90 543 143 q 538 26 543 39 q 293 -1 529 -1 q 61 26 69 -1 q 56 90 56 39 q 61 156 56 143 q 92 174 68 167 q 139 181 117 181 q 161 179 156 181 q 160 267 161 203 q 158 399 158 331 q 172 722 158 644 q 129 715 156 715 q 74 731 89 715 q 44 835 44 751 m 422 594 q 444 527 422 550 q 501 504 467 504 q 599 548 553 504 q 646 651 646 592 q 622 721 646 693 q 560 749 599 749 q 465 703 507 749 q 422 594 422 657 z "},"S":{"ha":843,"x_min":53,"x_max":800,"o":"m 53 640 q 156 889 53 792 q 399 986 260 986 q 586 936 497 986 q 615 994 594 978 q 682 1008 642 1008 q 771 983 746 1008 q 779 886 779 958 q 722 688 779 700 q 676 681 699 681 q 594 701 625 681 q 586 747 586 722 q 481 786 539 786 q 375 744 421 786 q 329 653 329 703 q 450 571 329 571 q 519 572 463 571 q 588 574 575 574 q 739 522 678 574 q 800 350 800 471 q 692 88 800 190 q 415 -14 583 -14 q 247 38 318 -14 q 233 -14 247 3 q 151 -28 208 -28 q 68 -7 90 -28 q 60 93 60 44 q 119 326 60 222 q 171 336 144 336 q 246 313 222 336 q 256 260 253 294 q 368 213 296 213 q 485 240 442 213 q 528 313 528 268 q 515 353 528 338 q 474 377 501 369 q 427 387 446 385 q 375 390 408 389 q 319 394 340 392 q 260 403 299 396 q 198 419 222 410 q 143 448 174 429 q 95 491 113 467 q 65 554 78 515 q 53 640 53 593 z "},"T":{"ha":1029,"x_min":13,"x_max":1017,"o":"m 13 753 q 32 956 13 897 q 147 962 56 957 q 328 969 239 967 q 508 972 418 972 q 690 969 599 972 q 878 963 781 967 q 997 956 976 958 q 1017 753 1017 897 q 1007 651 1017 689 q 894 638 938 638 q 792 661 833 638 l 768 747 q 646 763 749 760 q 654 442 654 585 q 639 211 654 292 q 671 207 646 211 q 719 194 707 201 q 728 119 728 186 q 719 38 728 47 q 517 0 693 0 q 310 38 336 0 q 301 119 301 47 q 310 194 301 186 q 358 207 322 201 q 390 211 383 211 q 375 442 375 292 q 383 763 375 585 q 261 747 281 760 l 238 661 q 135 638 196 638 q 22 651 92 638 q 13 753 13 689 z "},"U":{"ha":1061,"x_min":7,"x_max":1057,"o":"m 7 817 q 36 943 7 893 q 249 975 124 975 q 449 946 364 975 q 481 824 481 910 q 456 717 481 750 q 426 708 442 708 q 393 715 414 708 q 390 654 393 707 q 386 561 386 601 q 538 257 386 257 q 613 283 583 257 q 658 358 643 310 q 678 457 672 407 q 683 574 683 507 q 681 663 683 614 q 679 729 679 713 q 635 714 674 714 q 606 726 611 714 q 582 835 582 763 q 606 942 582 907 q 824 974 674 974 q 1031 932 979 974 q 1057 831 1057 886 q 1033 744 1057 782 q 975 726 1017 726 q 947 729 956 726 q 963 563 963 653 q 915 275 963 403 q 766 67 868 147 q 521 -14 664 -14 q 111 653 111 -14 q 112 685 111 678 q 113 703 113 692 q 86 697 107 697 q 35 707 44 697 q 7 817 7 744 z "},"V":{"ha":1121,"x_min":3,"x_max":1117,"o":"m 3 871 q 24 956 3 922 q 240 972 42 972 q 403 967 325 972 q 481 957 481 963 q 511 846 511 938 q 507 807 511 819 q 497 792 507 799 q 471 785 486 785 q 431 790 431 785 q 425 779 425 790 q 428 686 425 731 q 440 596 431 642 q 456 522 450 550 q 479 443 461 493 q 503 376 497 393 q 533 300 510 358 q 561 228 556 242 q 630 388 606 325 q 676 558 654 451 q 699 779 699 664 q 693 790 699 790 q 653 785 693 785 q 627 792 638 785 q 617 807 617 799 q 613 846 613 819 q 643 957 613 938 q 721 967 643 963 q 883 972 799 972 q 1100 956 1082 972 q 1117 878 1117 933 q 1093 783 1117 807 q 1061 778 1081 778 q 1015 789 1022 778 q 890 369 1015 718 q 733 7 764 21 q 561 -18 668 -18 q 390 7 424 -18 q 238 370 361 19 q 114 782 114 721 q 115 789 114 788 q 64 776 83 776 q 31 783 49 776 q 3 871 3 803 z "},"W":{"ha":1261,"x_min":19,"x_max":1244,"o":"m 19 850 q 28 932 19 922 q 256 969 60 969 q 407 957 381 969 q 427 887 415 943 q 439 801 439 831 q 435 778 439 783 q 368 763 404 763 q 344 764 353 763 q 410 619 376 706 q 444 469 443 533 q 498 527 457 482 q 569 596 539 572 q 629 619 600 619 q 678 601 651 619 q 724 565 706 583 q 774 512 743 546 q 814 468 804 478 q 837 566 819 514 q 880 677 854 618 q 914 758 906 736 q 843 792 878 771 q 825 872 825 804 q 833 954 825 944 q 985 971 846 971 q 1213 957 1154 971 q 1244 819 1244 903 q 1240 778 1244 783 q 1174 763 1210 763 q 1150 764 1158 763 q 997 206 1133 479 q 1027 201 1006 203 q 1060 192 1049 199 q 1064 168 1064 186 q 1052 83 1064 139 q 1032 13 1040 26 q 919 0 1025 0 q 708 38 736 0 q 700 119 700 47 q 708 194 700 186 q 746 206 718 200 q 686 290 724 231 q 628 375 649 349 q 570 290 607 349 q 511 207 533 232 q 560 192 531 206 q 564 168 564 186 q 552 83 564 139 q 532 13 540 26 q 376 0 508 0 q 255 8 285 0 q 208 38 225 15 q 199 125 199 54 q 208 194 199 185 q 261 211 225 211 q 108 758 122 508 q 76 763 101 758 q 28 775 40 768 q 19 850 19 783 z "},"X":{"ha":1018,"x_min":24,"x_max":996,"o":"m 24 68 q 64 186 24 129 q 100 183 69 186 q 182 343 100 233 q 322 490 264 453 q 181 633 261 531 q 100 789 101 736 q 63 783 82 783 q 26 897 26 819 q 32 949 26 926 q 232 976 103 976 q 358 964 296 976 q 401 924 385 956 q 417 860 417 893 q 404 815 417 832 q 379 808 392 808 q 354 811 371 808 q 369 802 361 808 q 386 784 376 796 q 404 762 396 772 q 426 732 413 751 q 450 699 440 713 q 477 659 460 685 q 506 618 494 633 q 553 679 518 633 q 617 759 588 725 q 674 811 647 793 q 649 808 665 808 q 621 817 625 808 q 610 872 610 847 q 654 963 610 926 q 801 976 719 976 q 985 947 921 976 q 994 890 994 921 q 965 801 994 833 q 929 806 943 801 q 842 642 928 753 q 697 490 757 531 q 803 387 760 439 q 863 306 847 335 q 896 234 879 278 q 917 183 913 190 q 947 186 925 186 q 981 135 965 174 q 996 63 996 96 q 983 26 996 35 q 799 -6 900 -6 q 614 17 750 -6 q 592 81 592 29 q 608 171 592 138 q 638 181 618 181 q 664 176 651 181 q 604 228 631 197 q 549 302 578 258 q 506 365 521 346 q 460 303 493 350 q 399 223 426 256 q 350 178 372 190 q 372 179 357 179 q 404 171 394 179 q 407 133 407 161 q 394 52 407 90 q 358 10 382 14 q 217 -6 278 -6 q 32 25 100 -6 q 24 68 24 44 z "},"Y":{"ha":944,"x_min":6,"x_max":942,"o":"m 6 840 q 368 975 126 936 q 396 921 369 975 q 422 833 422 861 q 388 810 422 826 q 344 797 363 797 q 481 614 364 738 q 553 697 514 633 q 603 797 592 761 q 560 810 586 797 q 525 832 526 825 q 551 921 525 863 q 579 975 578 975 q 780 934 669 975 q 942 840 890 893 q 926 767 932 786 q 903 693 914 722 q 844 714 876 699 q 812 661 838 703 q 768 596 786 619 q 709 533 750 572 q 617 460 668 493 q 606 329 610 428 q 600 210 603 231 q 676 190 640 210 q 682 146 682 181 q 664 11 682 47 q 467 -1 647 -1 q 246 21 261 -1 q 240 90 240 35 q 251 193 240 182 q 332 210 286 210 q 318 460 322 438 q 174 597 236 513 q 103 714 113 681 q 44 693 71 699 q 19 768 32 724 q 6 840 11 794 z "},"Z":{"ha":1050,"x_min":26,"x_max":1008,"o":"m 26 -28 q 68 206 26 107 q 178 365 110 304 q 318 469 247 425 q 466 569 389 514 q 585 682 543 624 q 567 690 583 682 q 519 706 551 697 q 451 714 488 714 q 314 707 328 714 q 315 694 315 701 q 296 650 315 681 q 189 628 238 628 q 103 651 140 628 q 72 796 72 690 q 77 902 72 864 q 88 950 82 940 q 103 968 93 960 q 201 974 114 974 q 331 958 325 974 q 340 951 339 957 q 343 933 343 946 q 588 939 485 939 q 753 935 699 939 q 765 964 757 960 q 897 978 771 978 q 993 972 986 978 q 923 726 983 847 q 777 515 863 606 q 609 361 692 425 q 451 258 526 297 q 539 254 489 254 q 757 283 679 254 q 756 306 756 290 q 775 365 756 329 q 878 375 796 375 q 972 365 954 375 q 999 288 990 356 q 1008 163 1008 221 q 999 64 1008 111 q 981 -4 989 17 q 968 -28 972 -25 q 872 -32 960 -32 q 740 -18 746 -32 q 728 40 733 -17 q 607 7 653 15 q 465 -1 561 -1 q 265 7 361 -1 q 254 -18 264 -15 q 125 -33 249 -33 q 26 -28 38 -33 z "},"[":{"ha":536,"x_min":71,"x_max":528,"o":"m 71 357 q 129 903 71 628 q 344 925 256 925 q 506 903 433 925 q 522 854 522 878 q 506 808 522 831 q 367 790 431 790 q 247 808 306 790 q 276 358 276 583 q 247 -106 276 125 q 367 -87 306 -87 q 500 -106 428 -87 q 528 -154 528 -125 q 515 -200 528 -169 q 354 -222 444 -222 q 129 -200 265 -222 q 71 357 71 88 z "},"\\":{"ha":833,"x_min":33,"x_max":800,"o":"m 33 975 q 85 1017 47 1017 q 144 999 110 1017 q 800 -125 556 576 q 753 -179 788 -179 q 689 -149 725 -179 q 33 975 236 329 z "},"]":{"ha":536,"x_min":8,"x_max":465,"o":"m 8 -154 q 36 -106 8 -125 q 169 -87 108 -87 q 289 -106 231 -87 q 260 358 260 125 q 289 808 260 583 q 169 790 231 790 q 31 808 106 790 q 14 854 14 831 q 31 903 14 878 q 192 925 103 925 q 407 903 281 925 q 465 357 465 628 q 407 -200 465 88 q 182 -222 271 -222 q 21 -200 92 -222 q 8 -154 8 -169 z "},"^":{"ha":1157,"x_min":239,"x_max":631,"o":"m 239 699 q 257 731 243 706 q 276 765 271 756 q 296 796 282 775 q 319 830 310 817 q 344 861 329 843 q 376 894 360 879 q 431 915 403 915 q 493 894 458 915 q 631 699 569 822 q 593 688 611 688 q 553 699 575 688 q 435 797 472 740 q 317 699 378 726 q 278 690 296 690 q 239 699 258 690 z "},"_":{"ha":1056,"x_min":133,"x_max":931,"o":"m 133 -210 q 151 -156 133 -182 q 615 -140 281 -140 q 753 -143 694 -140 q 854 -151 813 -146 q 910 -156 896 -156 q 931 -210 931 -181 q 910 -276 931 -239 q 769 -290 904 -285 q 540 -294 635 -294 q 151 -276 418 -294 q 133 -210 133 -240 z "},"`":{"ha":1157,"x_min":310,"x_max":579,"o":"m 310 1001 q 422 1038 361 1038 q 460 1035 449 1038 q 579 825 522 967 q 544 814 564 814 q 496 825 529 814 q 310 1001 367 904 z "},"a":{"ha":867,"x_min":36,"x_max":821,"o":"m 36 289 q 66 484 36 390 q 163 644 96 578 q 322 711 231 711 q 390 700 360 711 q 437 673 419 689 q 465 641 454 657 q 481 614 476 625 l 486 603 q 485 674 486 650 q 649 713 531 713 q 723 710 690 713 q 772 703 756 707 q 799 694 789 699 q 813 689 810 690 l 815 688 q 821 610 821 675 q 815 531 821 543 q 746 506 796 506 q 715 508 732 506 q 719 438 719 500 q 707 236 719 256 q 731 240 717 240 q 806 228 747 240 q 817 110 817 219 q 813 32 817 49 q 751 3 804 17 q 638 -11 697 -11 q 451 -6 471 -11 q 442 39 442 21 q 446 56 442 50 q 356 13 425 49 q 253 -22 288 -22 q 91 68 146 -22 q 36 289 36 158 m 221 315 q 247 239 221 271 q 317 207 274 207 q 422 257 374 207 q 469 371 469 307 q 442 450 469 418 q 371 482 415 482 q 293 454 329 482 q 238 381 257 426 q 221 315 221 349 z "},"b":{"ha":849,"x_min":13,"x_max":814,"o":"m 13 949 q 18 1026 13 1014 l 28 1032 q 78 1045 38 1038 q 179 1053 118 1053 q 383 1011 335 1053 q 390 860 390 997 q 388 749 390 801 q 386 694 386 697 q 508 711 444 711 q 731 602 649 711 q 814 353 814 493 q 787 190 814 272 q 701 49 760 108 q 569 -11 643 -11 q 456 24 524 -11 q 367 67 389 60 q 368 54 368 65 q 361 6 368 32 q 201 0 333 0 q 85 14 136 0 q 24 43 33 28 q 19 121 19 60 q 31 239 19 231 q 119 249 75 249 q 143 247 139 249 q 129 572 129 325 q 131 732 129 640 q 132 847 132 824 q 108 844 121 844 q 55 851 85 844 q 18 869 25 858 q 13 949 13 882 m 364 400 q 413 285 364 335 q 517 235 461 235 q 586 267 560 235 q 613 342 613 299 q 569 455 613 400 q 464 510 525 510 q 392 478 419 510 q 364 400 364 447 z "},"c":{"ha":792,"x_min":36,"x_max":763,"o":"m 36 315 q 157 608 36 508 q 519 708 278 708 l 531 743 q 604 751 568 751 q 754 706 686 751 q 758 647 758 685 q 735 525 758 575 q 676 461 711 475 q 567 440 617 440 q 474 461 515 440 l 483 508 q 419 518 450 518 q 315 460 356 518 q 274 331 274 401 q 301 226 274 272 q 371 179 329 179 q 464 211 410 179 l 454 249 q 604 296 519 296 q 678 286 633 296 q 763 67 763 193 q 758 10 763 39 q 583 -40 682 -40 q 539 -37 569 -40 l 526 0 q 363 -18 432 -18 q 124 64 213 -18 q 36 315 36 146 z "},"d":{"ha":875,"x_min":35,"x_max":857,"o":"m 35 353 q 117 602 35 493 q 340 711 200 711 q 449 694 390 711 q 447 749 449 697 q 444 860 444 801 q 451 1011 444 997 q 690 1053 500 1053 q 792 1045 751 1053 q 842 1032 833 1038 l 851 1026 q 857 949 857 1014 q 851 869 857 882 q 820 851 844 858 q 774 844 796 844 q 751 846 757 844 q 753 731 751 822 q 754 572 754 640 q 740 247 754 325 q 764 249 744 249 q 839 239 794 249 q 850 121 850 231 q 846 43 850 60 q 643 0 807 0 q 488 6 638 0 q 481 54 481 32 q 482 67 481 65 q 392 24 460 60 q 279 -11 325 -11 q 147 49 206 -11 q 62 190 89 108 q 35 353 35 272 m 247 343 q 274 267 247 299 q 343 235 300 235 q 448 285 400 235 q 496 399 496 335 q 469 478 496 446 q 397 510 442 510 q 293 456 339 510 q 247 343 247 403 z "},"e":{"ha":774,"x_min":32,"x_max":765,"o":"m 32 308 q 58 442 32 374 q 133 570 83 510 q 266 669 182 631 q 454 708 350 708 q 634 662 569 708 q 699 529 699 615 q 591 340 699 413 q 350 267 483 267 q 276 274 314 267 q 446 172 279 172 q 496 176 475 172 q 500 200 496 188 q 632 250 561 250 q 653 249 646 250 q 765 85 744 199 q 755 61 764 74 q 736 40 746 49 q 708 19 726 31 q 680 1 690 7 q 649 -15 669 -4 q 626 -28 629 -26 q 613 -26 618 -28 q 602 -19 607 -24 q 596 -12 597 -14 q 590 -1 594 -10 q 585 10 586 8 q 425 -19 507 -19 q 135 76 239 -19 q 32 308 32 172 m 303 453 q 369 407 303 407 q 465 431 419 407 q 511 489 511 454 q 495 538 511 513 q 444 564 479 564 q 352 529 401 564 q 303 453 303 494 z "},"f":{"ha":568,"x_min":40,"x_max":649,"o":"m 40 540 q 58 669 40 646 q 140 688 79 681 q 142 827 140 778 q 154 924 144 876 q 179 992 164 972 q 227 1028 194 1011 q 300 1048 260 1044 q 407 1051 340 1051 q 540 1044 497 1051 q 631 1015 583 1036 q 649 886 649 992 q 635 792 649 832 l 507 821 l 515 850 q 490 851 507 851 q 379 742 379 851 q 380 715 379 733 q 381 692 381 697 l 439 692 q 474 692 464 692 q 485 693 483 693 q 546 688 507 693 q 551 653 551 682 q 533 524 551 547 q 390 504 508 508 l 400 214 q 443 224 417 224 q 474 217 468 224 q 488 161 488 217 q 474 47 488 149 q 369 10 415 21 q 244 0 322 0 q 63 39 86 0 q 50 104 50 56 q 88 204 50 185 q 126 217 106 217 q 146 214 132 217 q 142 501 142 489 q 135 501 140 501 q 122 500 131 500 l 104 500 q 46 506 85 500 q 40 540 40 511 z "},"g":{"ha":813,"x_min":35,"x_max":822,"o":"m 35 272 q 86 474 35 375 q 236 641 138 574 q 456 708 335 708 q 535 699 496 708 q 563 742 553 728 q 586 774 574 757 q 608 799 599 792 q 625 807 618 807 q 738 741 654 807 q 822 636 822 675 q 776 583 821 624 q 703 522 731 542 q 726 369 726 456 q 635 101 726 203 q 410 -11 544 -1 q 532 -28 436 -24 q 699 -51 628 -33 q 771 -118 771 -68 q 702 -212 771 -167 q 542 -286 633 -258 q 369 -331 450 -314 q 254 -347 289 -347 q 203 -327 222 -347 q 178 -286 183 -307 q 167 -228 172 -265 q 406 -160 406 -171 q 367 -151 406 -157 q 283 -136 329 -146 q 199 -96 238 -126 q 161 -18 161 -65 q 178 24 161 0 q 70 126 106 60 q 35 272 35 192 m 303 314 q 329 239 303 271 q 399 207 356 207 q 503 257 454 207 q 551 372 551 307 q 524 451 551 419 q 451 482 496 482 q 347 427 390 482 q 303 314 303 372 z "},"h":{"ha":976,"x_min":-12,"x_max":957,"o":"m -12 894 q 26 1017 -12 999 q 196 1044 74 1044 q 342 1026 260 1044 q 372 785 372 981 q 358 597 372 642 q 633 708 507 708 q 810 631 743 708 q 876 393 876 553 q 867 240 876 367 q 879 243 867 243 q 944 236 900 243 q 957 146 957 222 q 943 28 957 50 q 753 0 839 0 q 586 25 657 0 q 565 74 576 32 q 554 147 554 117 q 579 226 554 193 q 618 236 594 236 q 628 235 625 236 q 634 231 631 233 q 642 228 638 229 q 650 304 650 269 q 613 428 650 385 q 521 471 575 471 q 419 422 463 471 q 375 288 375 372 q 383 214 375 253 q 426 224 400 224 q 457 217 451 224 q 471 161 471 217 q 457 47 471 149 q 213 0 353 0 q 32 39 60 0 q 19 85 19 56 q 57 204 19 185 q 108 217 74 217 q 129 214 115 217 q 114 590 114 310 q 124 826 114 776 q 57 819 101 819 q 0 825 26 819 q -12 894 -12 839 z "},"i":{"ha":525,"x_min":29,"x_max":496,"o":"m 29 115 q 57 194 29 183 q 106 207 69 201 q 138 211 131 211 q 122 417 122 372 q 136 544 122 514 q 74 550 96 544 q 63 601 63 579 q 100 700 63 644 q 293 710 151 710 q 388 704 342 710 q 459 691 433 699 q 485 676 485 683 q 496 625 496 660 q 474 524 496 551 q 436 518 469 518 q 389 525 403 518 q 374 274 374 428 q 378 206 374 208 q 401 207 386 207 q 468 192 438 207 q 474 158 474 182 q 463 77 474 124 q 440 13 451 31 q 292 0 418 0 q 57 38 89 0 q 29 115 29 57 m 168 981 q 210 1019 168 1019 q 285 999 244 1019 q 363 1028 314 1028 q 417 1007 393 1028 q 440 950 440 986 q 433 915 440 932 q 417 888 425 899 q 389 862 408 876 q 359 841 369 847 q 322 820 349 835 q 289 801 296 806 q 201 892 235 842 q 168 981 168 943 z "},"j":{"ha":718,"x_min":-86,"x_max":696,"o":"m -86 -275 q -53 -84 -86 -215 q -3 58 -19 47 q 24 63 8 63 q 90 53 51 63 q 140 33 128 43 q 143 13 143 33 q 135 -68 143 -17 q 236 -108 193 -108 q 291 -94 268 -108 q 326 -56 314 -79 q 346 6 339 -33 q 355 83 353 46 q 357 178 357 121 q 336 544 357 394 q 301 535 325 535 q 232 550 272 535 q 222 603 222 567 q 230 660 222 640 q 263 694 238 681 q 383 711 297 711 q 688 676 646 711 q 696 624 696 660 q 676 524 696 550 q 640 515 664 515 q 592 525 611 515 q 601 422 594 488 q 610 295 607 356 q 614 171 614 235 q 339 -347 614 -347 q 92 -262 235 -347 q 72 -306 79 -306 q 71 -306 71 -306 q 4 -312 64 -312 q -81 -301 -76 -312 q -86 -275 -86 -300 m 361 981 q 403 1019 361 1019 q 478 999 438 1019 q 556 1028 507 1028 q 610 1007 586 1028 q 633 950 633 986 q 626 915 633 932 q 610 888 618 899 q 582 862 601 876 q 552 841 563 847 q 515 820 542 835 q 482 801 489 806 q 394 892 428 842 q 361 981 361 943 z "},"k":{"ha":978,"x_min":-1,"x_max":979,"o":"m -1 925 q 33 1017 -1 994 q 206 1044 92 1044 q 399 1017 351 1044 q 426 932 426 1004 q 411 853 426 868 q 357 847 378 847 q 371 561 358 781 q 503 663 444 608 q 561 747 561 717 q 556 763 561 757 q 521 753 546 753 q 508 757 511 753 q 496 817 496 769 q 503 840 496 836 q 631 856 554 856 q 867 824 786 856 q 872 790 872 813 q 840 717 872 726 q 826 715 836 715 q 776 726 788 715 q 751 688 775 718 q 678 610 726 657 q 576 521 631 564 q 802 356 710 465 q 894 200 894 246 q 921 206 906 206 q 956 197 933 206 q 979 117 979 186 q 958 24 979 56 q 765 0 913 0 q 613 21 674 0 q 579 131 579 61 q 594 194 579 172 q 621 201 606 201 q 644 197 632 201 q 598 283 629 246 q 522 342 567 319 q 450 374 478 364 q 379 396 422 385 q 381 294 381 363 q 379 214 381 240 q 422 224 396 224 q 453 217 447 224 q 468 129 468 211 q 463 19 468 53 q 185 0 389 0 q 44 17 88 0 q 21 133 21 53 q 42 203 21 192 q 103 217 61 217 q 122 214 114 217 q 114 751 114 597 q 117 849 114 840 q 68 838 92 838 q 21 853 40 838 q -1 925 -1 883 z "},"l":{"ha":469,"x_min":31,"x_max":443,"o":"m 31 119 q 39 194 31 186 q 88 207 51 201 q 119 211 113 211 q 104 482 104 292 q 118 878 104 706 q 56 883 78 878 q 53 928 53 911 q 82 1033 53 989 q 240 1047 142 1047 q 354 1033 315 1047 q 369 758 369 906 q 360 467 369 656 q 349 206 350 278 q 372 207 357 207 q 439 192 408 207 q 443 168 443 186 q 431 83 443 139 q 411 13 419 26 q 261 0 389 0 q 39 38 71 0 q 31 119 31 47 z "},"m":{"ha":1467,"x_min":40,"x_max":1447,"o":"m 40 97 q 78 204 40 182 q 115 217 94 217 q 136 214 122 217 q 133 344 136 254 q 131 479 131 433 q 114 476 125 479 q 96 472 103 472 q 79 475 90 472 q 63 478 68 478 q 57 507 57 483 q 68 601 57 544 q 89 669 79 657 q 153 687 104 678 q 253 696 201 696 q 360 679 317 696 q 369 644 369 669 q 363 597 369 639 q 636 708 508 708 q 836 599 769 708 q 1129 708 999 708 q 1301 630 1235 708 q 1367 393 1367 551 q 1357 240 1367 372 q 1369 243 1357 243 q 1435 236 1389 243 q 1447 146 1447 222 q 1433 28 1447 50 q 1243 0 1329 0 q 1076 25 1147 0 q 1056 74 1067 32 q 1044 147 1044 117 q 1069 226 1044 193 q 1108 236 1085 236 q 1118 235 1115 236 q 1124 231 1121 233 q 1132 228 1128 229 q 1140 304 1140 269 q 1103 428 1140 385 q 1011 471 1065 471 q 935 447 971 471 q 879 378 899 422 q 871 240 876 275 q 883 243 871 243 q 949 236 903 243 q 961 146 961 222 q 947 28 961 50 q 757 0 843 0 q 590 25 661 0 q 569 74 581 32 q 558 147 558 117 q 583 226 558 193 q 622 236 599 236 q 632 235 629 236 q 638 231 635 233 q 646 228 642 229 q 651 282 651 260 q 615 424 651 376 q 522 471 578 471 q 422 422 465 471 q 379 289 379 374 q 388 214 379 253 q 431 224 404 224 q 461 217 456 224 q 475 161 475 217 q 461 47 475 149 q 215 -1 361 -1 q 53 39 88 -1 q 40 97 40 56 z "},"n":{"ha":996,"x_min":39,"x_max":976,"o":"m 39 104 q 76 204 39 185 q 114 217 93 217 q 135 214 121 217 q 132 344 135 254 q 129 479 129 433 q 113 476 124 479 q 94 472 101 472 q 78 475 89 472 q 61 478 67 478 q 56 507 56 483 q 67 601 56 544 q 88 669 78 657 q 154 687 101 678 q 261 696 207 696 q 375 679 331 696 q 385 647 385 671 q 378 597 385 639 q 653 708 526 708 q 829 631 763 708 q 896 393 896 553 q 886 240 896 367 q 899 243 886 243 q 964 236 919 243 q 976 146 976 222 q 963 28 976 50 q 772 0 858 0 q 606 25 676 0 q 585 74 596 32 q 574 147 574 117 q 599 226 574 193 q 638 236 614 236 q 647 235 644 236 q 653 231 650 233 q 661 228 657 229 q 669 304 669 269 q 632 428 669 385 q 540 471 594 471 q 438 422 482 471 q 394 288 394 372 q 403 214 394 253 q 446 224 419 224 q 476 217 471 224 q 490 161 490 217 q 476 47 490 149 q 232 0 372 0 q 51 39 79 0 q 39 104 39 56 z "},"o":{"ha":760,"x_min":32,"x_max":724,"o":"m 32 274 q 84 475 32 376 q 234 641 136 574 q 449 708 332 708 q 657 613 590 708 q 724 371 724 517 q 619 84 724 182 q 350 -14 515 -14 q 113 68 194 -14 q 32 274 32 150 m 300 314 q 326 239 300 271 q 396 207 353 207 q 500 257 451 207 q 549 372 549 307 q 521 451 549 419 q 449 482 493 482 q 344 427 388 482 q 300 314 300 372 z "},"p":{"ha":847,"x_min":11,"x_max":813,"o":"m 11 -243 q 17 -164 11 -176 q 54 -146 24 -153 q 108 -139 85 -139 q 131 -140 125 -139 q 129 -25 131 -117 q 128 135 128 67 q 142 458 128 381 q 118 457 138 457 q 29 467 72 457 q 18 585 18 475 q 22 663 18 646 q 83 692 32 678 q 200 706 135 706 q 360 700 332 706 q 367 651 367 674 q 365 639 367 640 q 455 681 388 646 q 568 717 522 717 q 700 657 642 717 q 785 515 758 597 q 813 353 813 433 q 730 103 813 213 q 507 -6 647 -6 q 385 11 443 -6 q 387 -44 385 8 q 389 -154 389 -96 q 382 -306 389 -292 q 178 -347 333 -347 q 76 -340 117 -347 q 26 -326 36 -332 l 17 -321 q 11 -243 11 -308 m 351 307 q 378 228 351 260 q 450 196 406 196 q 554 249 508 196 q 600 363 600 303 q 574 439 600 407 q 504 471 547 471 q 399 421 447 471 q 351 307 351 371 z "},"q":{"ha":847,"x_min":35,"x_max":836,"o":"m 35 353 q 62 515 35 433 q 147 657 89 597 q 279 717 206 717 q 392 681 325 717 q 482 639 460 646 q 481 651 481 640 q 488 700 481 674 q 647 706 515 706 q 764 692 713 706 q 825 663 815 678 q 829 585 829 646 q 818 467 829 475 q 729 457 775 457 q 706 458 710 457 q 719 135 719 381 q 718 -25 719 67 q 717 -140 717 -117 q 739 -139 722 -139 q 793 -146 763 -139 q 831 -164 824 -153 q 836 -243 836 -176 q 831 -321 836 -308 l 821 -326 q 771 -340 811 -332 q 669 -347 731 -347 q 465 -306 514 -347 q 458 -154 458 -292 q 460 -44 458 -96 q 463 11 463 8 q 340 -6 404 -6 q 117 103 200 -6 q 35 353 35 213 m 247 364 q 291 251 247 306 q 396 196 335 196 q 468 227 440 196 q 496 306 496 258 q 447 421 496 371 q 343 471 399 471 q 274 439 300 471 q 247 364 247 407 z "},"r":{"ha":746,"x_min":46,"x_max":743,"o":"m 46 610 q 51 688 46 675 q 251 713 101 713 q 342 705 311 713 q 400 674 372 697 q 399 603 399 650 l 403 614 q 420 641 408 625 q 449 673 432 657 q 496 700 465 689 q 564 711 526 711 q 743 621 669 711 q 589 438 714 490 q 496 474 539 474 q 409 419 440 474 q 378 283 378 364 q 382 224 378 256 q 440 215 390 224 l 458 213 q 479 139 479 197 q 467 56 479 97 q 433 -6 454 14 q 274 -11 406 -11 q 134 3 206 -11 q 54 32 63 18 q 50 110 50 49 q 61 228 50 219 q 136 240 119 240 q 160 236 150 240 q 147 438 147 256 q 151 508 147 500 q 121 506 135 506 q 51 531 71 506 q 46 610 46 543 z "},"s":{"ha":711,"x_min":22,"x_max":679,"o":"m 22 42 q 35 121 24 82 q 76 194 46 160 q 147 228 106 228 q 223 213 182 228 q 264 171 264 199 q 261 154 264 165 q 329 138 311 138 q 385 162 361 138 q 410 221 410 186 q 384 271 410 254 q 319 289 358 288 q 234 297 279 290 q 149 316 189 304 q 84 367 110 328 q 58 469 58 406 q 106 611 58 556 q 217 686 153 667 q 363 706 282 706 q 499 693 424 706 q 531 724 513 718 q 667 654 633 714 q 653 576 664 614 q 613 503 643 538 q 540 468 583 468 q 465 483 506 468 q 425 525 425 497 q 428 542 425 531 q 375 553 394 553 q 318 529 342 553 q 294 478 294 506 q 334 429 294 444 q 430 408 374 414 q 543 392 486 403 q 640 341 600 381 q 679 231 679 301 q 576 51 679 111 q 332 -10 474 -10 q 190 3 265 -10 q 158 -28 176 -22 q 22 42 56 -18 z "},"t":{"ha":624,"x_min":4,"x_max":615,"o":"m 4 664 q 10 699 4 693 q 68 704 49 704 q 89 703 76 704 q 110 703 101 703 l 119 703 l 119 964 q 244 972 222 972 q 367 964 294 972 l 381 700 q 514 681 489 696 q 532 551 532 657 q 526 517 532 522 q 465 511 488 511 l 454 511 q 420 512 444 511 q 361 513 396 513 q 360 412 361 506 q 360 310 360 318 q 383 224 360 249 q 456 200 407 200 q 473 203 469 200 q 478 221 476 207 q 510 238 478 231 l 601 260 q 615 165 615 219 q 597 36 615 60 q 575 24 592 33 q 553 12 558 14 q 533 3 547 10 q 508 -4 518 -3 q 481 -9 499 -6 q 442 -13 463 -12 q 393 -14 421 -14 q 294 -8 332 -14 q 220 18 256 -1 q 165 72 185 38 q 131 167 146 107 q 110 312 115 228 q 104 517 104 396 q 22 535 43 524 q 4 664 4 558 z "},"u":{"ha":996,"x_min":19,"x_max":960,"o":"m 19 549 q 33 667 19 644 q 224 694 138 694 q 390 669 319 694 q 411 620 400 663 q 422 547 422 578 q 397 468 422 501 q 358 458 382 458 q 349 460 351 458 q 342 463 346 461 q 335 467 339 465 q 326 390 326 425 q 364 267 326 310 q 456 224 401 224 q 558 273 514 224 q 601 407 601 322 q 593 481 601 442 q 543 469 574 469 q 519 478 525 469 q 496 563 496 486 q 519 647 496 633 q 764 694 624 694 q 944 656 917 694 q 960 593 960 633 q 919 490 960 514 q 882 478 903 478 q 861 481 875 478 q 864 351 861 440 q 867 215 867 261 q 913 218 906 218 q 935 217 926 218 q 940 188 940 211 q 929 94 940 150 q 908 25 918 38 q 836 6 893 17 q 724 -4 779 -4 q 624 13 657 -4 q 611 50 611 21 q 618 97 611 56 q 343 -14 469 -14 q 167 64 233 -14 q 100 301 100 142 q 110 454 100 328 q 97 451 110 451 q 32 458 78 451 q 19 549 19 472 z "},"v":{"ha":919,"x_min":-1,"x_max":921,"o":"m -1 594 q 354 729 121 692 q 382 675 356 729 q 406 597 406 624 q 375 563 406 574 q 331 551 344 551 q 460 257 408 300 q 589 551 528 340 q 546 564 572 551 q 511 586 513 579 q 538 675 511 617 q 565 729 564 729 q 762 688 656 729 q 921 594 868 647 l 907 522 q 882 447 896 481 q 824 468 856 453 q 789 369 813 418 q 721 251 765 321 q 668 165 676 181 q 710 149 683 165 q 749 117 738 133 q 731 51 743 72 q 682 14 719 29 q 546 1 651 1 q 236 13 264 1 q 171 117 171 65 q 210 149 181 131 q 251 165 236 165 q 224 208 249 168 q 192 262 200 249 q 163 312 183 275 q 132 369 142 349 q 111 418 122 390 q 96 468 100 446 q 38 447 64 453 q 13 522 25 479 q -1 594 8 542 z "},"w":{"ha":1450,"x_min":-3,"x_max":1451,"o":"m -3 589 q 360 724 118 685 q 414 582 414 642 q 381 558 411 571 q 336 546 350 546 q 444 293 351 463 q 513 397 481 319 q 572 561 546 474 q 607 665 599 649 q 728 690 643 690 q 842 665 783 690 q 864 594 843 661 q 894 499 885 528 q 924 419 904 471 q 964 333 944 367 q 1004 279 983 300 q 1068 413 1031 321 q 1113 546 1106 506 q 1066 560 1097 547 q 1035 583 1035 572 q 1055 656 1035 597 q 1089 724 1075 714 q 1451 589 1331 685 q 1413 442 1438 500 q 1354 463 1386 447 q 1313 339 1353 425 q 1213 160 1289 288 q 1279 111 1251 147 q 1214 7 1279 60 q 1174 3 1210 6 q 1078 -2 1138 0 q 967 -4 1019 -4 q 853 86 924 -4 q 724 283 783 176 q 596 86 667 176 q 482 -4 525 -4 q 370 -2 429 -4 q 275 3 311 0 q 235 7 239 6 q 169 111 169 60 q 203 140 178 121 q 236 160 229 160 q 136 339 160 289 q 94 463 96 424 q 36 442 63 447 q -3 589 11 507 z "},"x":{"ha":947,"x_min":22,"x_max":922,"o":"m 22 24 q 63 143 22 90 q 86 144 72 144 q 110 140 100 144 q 163 251 111 189 q 275 350 214 313 q 162 447 210 393 q 113 553 114 501 q 63 549 94 549 q 24 669 26 594 q 233 694 82 694 q 376 685 322 694 q 410 637 390 683 q 431 567 431 590 q 386 554 414 554 q 363 557 376 554 q 408 522 390 540 q 472 436 425 503 q 583 557 536 513 q 554 554 574 554 q 515 567 522 554 q 535 628 515 585 q 568 685 554 671 q 714 696 631 696 q 921 669 860 696 q 883 549 921 586 q 865 542 876 542 q 833 553 860 542 q 674 350 832 458 q 783 251 732 313 q 833 144 833 190 q 844 145 836 144 q 857 146 851 146 q 883 143 869 146 q 922 31 922 114 l 922 24 q 719 -4 867 -4 q 568 7 632 -4 q 531 58 547 18 q 515 125 515 97 q 557 140 526 140 q 583 136 572 140 q 560 151 567 146 q 542 168 553 156 q 528 186 532 181 q 505 219 524 192 q 472 267 486 246 q 438 219 458 249 q 402 172 418 190 q 363 136 386 153 q 393 138 374 138 q 431 128 422 138 q 409 58 429 108 q 376 7 389 8 q 225 -4 313 -4 q 22 24 78 -4 z "},"y":{"ha":990,"x_min":-21,"x_max":964,"o":"m -21 -299 q -1 -135 -21 -231 q 33 -25 19 -39 q 71 -18 50 -18 q 176 -50 131 -18 q 179 -71 179 -50 q 178 -93 179 -85 q 231 -106 197 -97 q 280 -118 264 -114 q 320 -126 296 -122 q 365 -133 344 -131 q 410 -135 386 -135 q 576 -82 525 -135 q 639 97 628 -29 q 339 -14 489 -14 q 103 325 103 -14 q 111 467 103 403 q 99 465 110 465 q 33 472 78 465 q 17 569 17 501 q 35 681 17 649 q 225 708 139 708 q 392 683 321 708 q 424 578 424 647 q 399 482 424 515 q 360 472 383 472 q 350 474 353 472 q 344 477 347 475 q 336 481 340 479 q 328 390 328 439 q 365 267 328 310 q 457 224 403 224 q 559 273 515 224 q 603 407 603 322 q 594 481 603 442 q 551 471 578 471 q 521 478 526 471 q 499 560 499 486 q 521 647 499 635 q 765 694 588 694 q 960 663 919 694 q 964 607 964 646 q 949 510 964 529 q 910 497 940 497 q 864 511 892 497 q 872 414 865 481 q 882 285 878 347 q 886 168 886 222 q 856 -82 886 24 q 771 -247 825 -187 q 653 -333 717 -306 q 513 -360 589 -360 q 390 -358 435 -360 q 276 -342 346 -356 q 150 -301 206 -329 q 135 -347 138 -347 q 75 -354 126 -354 q -17 -343 -12 -354 q -21 -299 -21 -326 z "},"z":{"ha":847,"x_min":18,"x_max":807,"o":"m 18 40 q 147 268 19 131 q 453 511 275 406 q 354 535 413 535 q 244 494 281 535 q 249 461 249 482 q 244 442 249 447 q 175 429 219 429 q 82 451 118 429 q 63 565 63 469 q 82 685 63 672 q 168 694 121 694 q 257 685 214 694 q 267 654 265 683 q 486 697 319 697 q 800 664 643 697 q 652 428 799 582 q 393 207 506 275 q 457 197 424 197 q 615 243 514 197 q 614 254 614 247 q 629 306 614 278 q 707 317 656 317 q 781 306 756 317 q 807 178 807 286 q 799 62 807 115 q 778 4 790 8 q 706 0 765 0 q 603 11 608 0 q 593 56 596 13 q 456 14 557 28 q 263 0 354 0 q 18 40 90 0 z "},"{":{"ha":589,"x_min":-12,"x_max":582,"o":"m -12 413 q 19 482 -12 457 q 221 589 221 482 q 198 708 221 617 q 175 838 175 799 q 234 949 175 914 q 385 985 293 985 q 557 958 471 985 q 579 915 579 940 q 557 864 579 896 q 369 844 417 864 q 321 783 321 824 q 358 683 321 747 q 396 583 396 618 q 348 494 396 533 q 252 433 300 456 q 204 406 204 411 q 252 376 204 399 q 348 315 300 354 q 396 229 396 276 q 358 132 396 197 q 321 29 321 67 q 335 -12 321 3 q 403 -39 350 -28 q 550 -50 456 -50 q 582 -93 582 -65 q 565 -144 582 -108 q 388 -171 476 -171 q 235 -135 294 -171 q 175 -24 175 -100 q 198 105 175 14 q 221 226 221 196 q 181 299 221 279 q 35 333 140 318 q -12 413 -12 354 z "},"|":{"ha":318,"x_min":75,"x_max":243,"o":"m 75 421 q 104 985 75 726 q 115 992 107 986 q 128 1001 124 999 q 139 1008 132 1004 q 153 1014 146 1013 q 168 1015 160 1015 q 215 1003 190 1015 q 243 433 243 733 q 215 -240 243 135 q 158 -275 193 -275 q 104 -258 133 -275 q 75 421 75 110 z "},"}":{"ha":590,"x_min":8,"x_max":603,"o":"m 8 907 q 25 958 8 922 q 203 985 114 985 q 356 949 296 985 q 415 838 415 914 q 392 709 415 800 q 369 588 369 618 q 410 515 369 535 q 556 481 450 496 q 603 401 603 460 q 571 332 603 357 q 369 225 369 332 q 392 106 369 197 q 415 -24 415 15 q 356 -135 415 -100 q 206 -171 297 -171 q 33 -144 119 -171 q 11 -101 11 -126 q 33 -50 11 -82 q 222 -30 174 -50 q 269 31 269 -10 q 232 131 269 67 q 194 231 194 196 q 242 319 194 281 q 338 381 290 358 q 386 408 386 403 q 338 438 386 415 q 242 499 290 460 q 194 585 194 538 q 232 682 194 617 q 269 785 269 747 q 255 826 269 811 q 188 853 240 842 q 40 864 135 864 q 8 907 8 879 z "},"~":{"ha":811,"x_min":46,"x_max":767,"o":"m 46 283 q 87 408 58 374 q 175 442 115 442 q 393 408 229 442 q 601 375 557 375 q 638 388 628 375 q 658 447 647 400 q 674 450 663 450 q 723 430 696 450 q 767 388 750 410 q 725 263 754 297 q 639 229 696 229 q 423 263 589 229 q 207 296 257 296 q 174 284 183 296 q 154 225 164 272 q 132 218 143 218 q 83 238 110 218 q 46 283 57 257 z "},"":{"ha":381,"x_min":40,"x_max":340,"o":"m 40 69 q 150 460 40 260 q 196 475 172 475 q 244 456 222 475 q 340 93 340 282 q 265 -228 340 -72 q 194 -247 226 -247 q 167 -244 181 -247 q 139 -235 154 -242 q 117 -228 124 -229 q 40 69 40 -87 m 113 644 q 121 731 113 686 q 194 742 147 742 q 260 731 233 742 q 272 647 272 689 q 260 565 272 607 q 186 554 222 554 q 121 565 150 554 q 113 644 113 606 z "},"":{"ha":851,"x_min":51,"x_max":778,"o":"m 51 315 q 367 693 51 629 q 383 868 372 781 q 394 879 389 872 q 404 890 399 886 q 419 893 410 893 q 444 882 424 893 q 453 787 449 849 q 460 706 458 725 q 535 708 507 708 l 546 743 q 619 751 583 751 q 769 706 700 751 q 774 647 774 685 q 750 525 774 575 q 692 461 726 475 q 582 440 632 440 q 489 461 531 440 l 499 508 q 458 517 478 514 l 458 422 q 454 197 458 310 q 479 211 471 206 l 469 249 q 619 296 535 296 q 693 286 650 296 q 778 67 778 193 q 774 10 778 39 q 599 -40 697 -40 q 554 -37 585 -40 l 542 0 q 451 -14 517 -4 q 444 -124 450 -53 q 438 -134 442 -128 q 433 -142 435 -140 q 428 -148 431 -144 q 421 -152 425 -151 q 411 -153 417 -153 q 383 -139 406 -153 l 374 -18 q 138 65 225 -17 q 51 315 51 147 m 289 331 q 315 228 289 274 q 381 179 342 182 q 376 411 376 296 l 376 503 q 313 431 336 479 q 289 331 289 383 z "},"":{"ha":936,"x_min":61,"x_max":890,"o":"m 61 507 q 79 606 61 583 q 176 615 147 613 q 560 1051 235 1051 q 760 1018 650 1051 q 789 946 789 989 q 771 879 789 906 q 664 901 714 901 q 435 618 481 901 q 615 606 572 615 q 631 563 625 596 q 636 510 636 531 q 615 443 636 481 q 418 428 565 433 q 410 269 418 322 q 498 252 413 269 q 640 226 583 235 q 728 217 697 217 q 762 229 753 217 q 782 289 771 242 q 796 293 789 293 q 855 244 825 293 q 890 146 885 196 q 851 24 878 61 q 760 -12 824 -12 q 556 19 713 -12 q 343 53 400 50 q 306 -3 319 11 q 264 -11 283 -11 q 170 9 226 -11 q 100 56 114 29 q 153 228 143 161 q 164 433 164 296 q 79 443 103 439 q 61 507 61 479 z "},"":{"ha":997,"x_min":60,"x_max":947,"o":"m 60 76 q 136 181 88 132 q 188 226 161 206 q 139 394 139 296 q 238 668 139 543 q 178 721 204 693 q 101 825 129 771 q 129 878 110 858 q 178 903 147 896 q 285 822 242 868 q 338 760 317 788 q 560 829 439 829 q 724 775 658 829 q 764 822 744 803 q 871 903 813 871 q 919 878 901 896 q 947 825 939 858 q 871 721 919 769 q 801 661 836 686 q 831 486 831 582 q 753 235 831 332 q 815 181 794 201 q 892 76 864 132 q 864 24 883 43 q 815 -1 846 6 q 708 79 757 31 q 649 150 678 110 q 460 107 568 107 q 294 139 363 107 q 243 79 264 100 q 136 -1 194 31 q 88 24 106 6 q 60 76 68 43 m 407 435 q 433 360 407 392 q 503 328 460 328 q 607 378 558 328 q 656 493 656 428 q 628 572 656 540 q 556 603 600 603 q 451 548 494 603 q 407 435 407 493 z "},"":{"ha":1022,"x_min":44,"x_max":981,"o":"m 44 840 q 407 975 165 936 q 435 921 408 975 q 458 843 458 869 q 428 808 458 819 q 383 797 397 797 q 434 672 392 757 q 519 517 476 586 q 592 647 553 550 q 642 797 632 744 q 599 810 625 797 q 564 832 565 825 q 590 921 564 863 q 618 975 617 975 q 819 934 708 975 q 981 840 929 893 l 967 768 q 942 693 954 725 q 883 714 915 699 q 851 661 876 703 q 807 596 825 619 q 748 533 789 572 q 656 460 707 493 q 769 446 768 447 q 792 415 792 421 q 769 394 792 406 q 647 381 742 386 l 644 336 q 769 325 764 331 q 792 294 792 300 q 769 274 792 285 q 642 260 742 265 q 639 210 642 235 q 715 190 679 210 q 721 146 721 181 q 703 11 721 47 q 506 -1 686 -1 q 285 21 300 -1 q 279 90 279 35 q 290 193 279 182 q 371 210 325 210 l 368 261 q 219 274 264 267 q 201 296 201 285 q 205 305 201 300 q 213 316 208 310 q 219 325 218 322 q 367 336 268 332 l 364 381 q 219 394 274 385 q 201 417 201 406 q 205 426 201 421 q 213 437 208 431 q 219 446 218 443 l 254 450 q 306 455 275 451 q 357 460 338 458 q 213 597 275 513 q 142 714 151 681 q 83 693 110 699 q 58 768 71 724 q 58 773 58 769 q 53 794 57 776 q 44 840 49 813 z "},"":{"ha":319,"x_min":83,"x_max":238,"o":"m 83 69 q 99 290 83 219 q 153 311 124 311 q 219 290 182 311 q 238 75 238 228 q 219 -232 238 -111 q 153 -250 183 -250 q 99 -232 125 -250 q 83 69 83 -117 m 83 708 q 99 929 83 858 q 153 950 124 950 q 219 929 182 950 q 238 714 238 867 q 219 407 238 528 q 153 389 183 389 q 99 407 125 389 q 83 708 83 522 z "},"":{"ha":664,"x_min":67,"x_max":599,"o":"m 67 417 q 131 576 67 513 q 121 639 121 606 q 187 801 121 739 q 342 864 253 864 q 463 832 403 864 q 490 865 471 854 q 540 875 510 875 q 579 863 571 875 q 586 800 586 844 q 549 674 586 683 q 515 671 529 671 q 468 682 483 671 q 463 711 463 696 q 394 736 432 736 q 327 710 357 736 q 297 650 297 683 q 376 599 297 599 q 419 599 383 599 q 461 600 454 600 q 559 567 519 600 q 599 461 599 535 q 536 294 599 360 q 544 240 544 272 q 476 65 544 131 q 301 0 407 0 q 192 33 239 0 q 167 3 188 24 q 132 -1 153 -1 q 76 6 101 -1 q 71 68 71 35 q 108 218 71 153 q 190 210 179 218 q 197 176 194 200 q 269 144 221 144 q 343 163 317 144 q 369 210 369 181 q 272 260 369 257 q 67 417 67 267 m 243 426 q 333 374 243 374 q 378 376 356 374 q 411 399 399 382 q 424 432 424 415 q 383 476 424 464 q 299 489 343 489 q 283 488 289 489 q 274 488 276 488 q 243 426 243 461 z "},"":{"ha":1157,"x_min":272,"x_max":722,"o":"m 272 931 q 297 1007 272 971 q 364 1031 329 1031 q 435 1007 399 1031 q 458 928 458 969 q 435 842 458 886 q 361 815 394 815 q 297 842 328 815 q 272 931 272 889 m 536 931 q 561 1007 536 971 q 628 1031 593 1031 q 699 1007 663 1031 q 722 928 722 969 q 699 842 722 886 q 625 815 658 815 q 561 842 592 815 q 536 931 536 889 z "},"":{"ha":1096,"x_min":60,"x_max":1032,"o":"m 60 404 q 103 620 60 511 q 222 817 147 729 q 408 962 297 906 q 644 1018 519 1018 q 826 978 749 1018 q 947 871 903 939 q 1011 720 990 803 q 1032 542 1032 638 q 886 136 1032 274 q 507 -1 740 -1 q 173 115 286 -1 q 60 404 60 231 m 258 426 q 320 251 258 325 q 507 178 382 178 q 756 285 657 178 q 854 553 854 393 q 786 758 854 685 q 614 832 718 832 q 433 767 517 832 q 303 610 349 703 q 258 426 258 517 m 336 515 q 385 683 336 608 q 500 757 433 757 q 618 703 554 757 q 621 715 619 703 q 624 738 622 726 q 631 751 626 750 q 642 752 632 751 q 664 753 653 753 q 721 746 713 753 q 728 636 728 708 q 708 558 728 586 q 654 549 679 549 q 608 558 635 549 q 607 565 607 560 q 608 574 607 571 q 561 618 589 618 q 521 580 539 618 q 503 497 503 542 q 550 424 503 424 q 608 449 571 424 q 608 453 608 450 q 607 458 607 456 q 608 464 607 463 q 653 474 628 474 q 708 464 679 474 q 728 386 728 436 q 721 276 728 315 q 671 269 714 269 q 645 270 658 269 q 631 271 632 271 q 618 321 618 272 q 503 269 554 269 q 385 345 435 269 q 336 515 336 421 z "},"":{"ha":707,"x_min":35,"x_max":650,"o":"m 35 633 q 108 844 35 749 q 290 939 181 939 q 406 878 360 939 q 404 918 406 906 q 521 951 446 951 q 644 925 596 951 q 650 876 650 918 q 644 810 650 817 q 608 794 636 794 q 598 795 604 794 q 590 796 592 796 q 592 736 592 793 q 585 560 592 569 q 599 563 596 563 q 624 558 607 563 l 640 556 q 646 479 646 551 q 645 448 646 464 q 644 431 644 432 q 438 406 606 406 q 385 407 399 406 q 383 414 385 408 l 381 428 l 376 442 q 258 400 325 400 q 92 467 150 400 q 35 633 35 535 m 194 639 q 217 574 194 600 q 275 549 240 549 q 362 592 322 549 q 401 688 401 635 q 379 750 401 725 q 319 775 357 775 q 232 733 269 775 q 194 639 194 690 z "},"":{"ha":642,"x_min":33,"x_max":607,"o":"m 33 332 q 257 663 131 538 q 336 686 310 686 q 371 663 364 686 q 168 332 281 451 q 363 15 307 210 q 313 -24 339 -24 q 296 -21 304 -24 q 277 -13 288 -18 q 261 -7 267 -8 q 33 332 108 129 m 269 332 q 493 663 367 538 q 572 686 546 686 q 607 663 600 686 q 404 332 517 451 q 599 15 543 210 q 549 -24 575 -24 q 532 -21 540 -24 q 513 -13 524 -18 q 497 -7 503 -8 q 269 332 344 129 z "},"":{"ha":736,"x_min":54,"x_max":651,"o":"m 54 597 q 65 631 54 613 q 322 649 99 649 q 642 628 524 649 q 651 515 651 593 q 642 360 651 418 q 608 350 622 350 q 581 360 594 350 q 572 514 572 408 q 574 564 572 544 q 322 557 458 557 q 65 569 119 557 q 54 597 54 583 z "},"":{"ha":499,"x_min":60,"x_max":440,"o":"m 60 388 q 78 442 60 415 q 268 457 192 457 q 419 442 349 457 q 440 388 440 417 q 419 321 440 358 q 272 303 356 303 q 78 321 199 303 q 60 388 60 357 z "},"":{"ha":1142,"x_min":58,"x_max":1079,"o":"m 58 399 q 135 697 58 550 q 356 943 211 843 q 672 1043 500 1043 q 831 1015 760 1043 q 947 941 901 988 q 1023 830 993 894 q 1066 694 1053 765 q 1079 543 1079 624 q 926 118 1079 263 q 529 -26 774 -26 q 178 95 297 -26 q 58 399 58 217 m 251 418 q 320 225 251 306 q 525 144 389 144 q 799 263 690 144 q 908 560 908 382 q 832 786 908 707 q 643 865 756 865 q 488 823 563 865 q 363 715 414 781 q 282 571 313 650 q 251 418 251 492 m 375 328 q 382 361 375 344 q 411 371 389 371 l 411 464 q 417 617 411 588 q 386 621 408 617 q 375 664 375 635 q 383 710 375 685 q 476 732 406 732 q 531 725 510 732 q 532 704 532 717 l 532 697 q 629 738 576 738 q 732 692 688 738 q 776 590 776 647 q 719 488 776 529 q 779 361 779 469 q 789 363 783 363 q 807 356 793 363 q 817 328 817 343 q 804 292 817 307 q 747 285 790 285 q 636 296 667 285 q 619 349 619 300 q 622 367 619 361 q 660 376 631 374 q 556 433 633 433 l 547 371 q 579 361 569 371 q 588 332 588 350 q 579 303 588 314 q 485 289 575 289 q 382 303 385 289 q 375 328 375 310 m 551 558 q 586 518 551 518 q 630 537 610 518 q 650 582 650 556 q 638 615 650 601 q 610 629 626 629 q 570 608 589 629 q 551 558 551 586 z "},"":{"ha":588,"x_min":33,"x_max":550,"o":"m 33 639 q 124 862 33 758 q 344 965 214 965 q 500 893 450 965 q 550 711 550 821 q 473 497 550 569 q 274 424 396 424 q 95 485 157 424 q 33 639 33 547 m 200 665 q 222 608 200 632 q 275 583 243 583 q 356 624 318 583 q 394 714 394 664 q 374 775 394 750 q 318 800 353 800 q 235 756 271 800 q 200 665 200 711 z "},"":{"ha":801,"x_min":60,"x_max":742,"o":"m 60 65 q 78 119 60 93 q 461 140 249 140 q 721 128 654 140 q 742 74 742 103 q 721 7 742 44 q 382 -14 638 -14 q 244 -12 301 -14 q 142 -6 186 -10 q 78 -1 97 -3 q 60 65 60 35 m 82 506 q 60 556 60 531 q 82 608 60 581 q 218 622 147 622 q 350 608 289 622 q 331 757 331 686 q 350 885 331 826 q 407 901 381 901 q 458 885 436 901 q 478 753 478 822 q 458 608 478 682 q 583 619 515 619 q 726 608 651 619 q 742 561 742 588 q 726 506 742 536 q 585 488 650 488 q 458 506 521 488 q 478 376 478 446 q 458 229 478 304 q 401 215 426 215 q 350 229 374 215 q 335 372 335 303 q 350 506 335 443 q 213 490 281 490 q 82 506 143 490 z "},"":{"ha":524,"x_min":63,"x_max":471,"o":"m 63 486 q 80 622 63 567 q 124 699 97 676 q 181 734 150 721 q 239 750 213 747 q 283 763 265 753 q 300 796 300 774 q 246 836 300 836 q 192 826 217 836 q 161 799 167 815 q 160 782 161 790 q 114 769 142 769 q 90 775 97 769 q 72 826 79 783 q 64 906 64 868 q 71 956 64 944 q 117 967 90 967 q 144 958 136 967 q 161 936 160 943 q 293 972 207 972 q 406 932 356 972 q 456 803 456 892 q 435 719 456 751 q 387 675 415 688 q 329 654 358 663 q 280 630 300 646 q 260 586 260 614 q 301 576 279 576 q 360 589 332 576 q 368 613 360 592 q 421 618 390 618 q 451 613 444 618 q 471 506 471 586 q 451 413 471 432 q 403 410 446 410 q 351 418 357 410 l 349 443 q 263 422 315 422 q 178 429 240 422 q 175 418 175 419 q 115 406 153 406 q 68 413 89 406 q 63 486 63 446 z "},"":{"ha":469,"x_min":24,"x_max":424,"o":"m 24 517 q 67 585 32 540 q 143 640 101 631 l 176 589 q 168 576 175 583 q 190 572 178 572 q 233 588 214 572 q 253 625 253 604 q 235 660 253 643 q 207 657 218 657 q 179 661 189 657 q 168 718 168 676 q 174 765 168 753 q 214 774 178 774 q 242 769 236 774 q 254 797 254 782 q 236 835 254 818 q 196 853 218 853 q 179 850 190 853 q 181 839 179 843 q 142 822 171 822 q 117 825 131 822 q 95 880 108 829 q 82 951 82 931 q 106 964 83 958 q 144 969 129 969 l 150 963 q 228 985 182 985 q 367 928 317 985 q 418 801 418 872 q 374 708 418 747 q 424 603 424 660 q 361 475 424 529 q 196 421 299 421 q 68 467 118 421 q 49 460 51 460 q 24 517 24 485 z "},"":{"ha":1157,"x_min":525,"x_max":794,"o":"m 525 826 q 643 1036 582 971 q 682 1039 668 1039 q 794 1003 743 1039 q 608 826 738 906 q 560 815 575 815 q 525 826 540 815 z "},"":{"ha":1078,"x_min":56,"x_max":1029,"o":"m 56 -243 q 61 -164 56 -176 q 99 -146 68 -153 q 153 -139 129 -139 q 175 -140 169 -139 q 174 -8 175 -135 q 172 126 172 118 q 170 232 171 200 q 169 272 169 264 q 179 453 169 389 q 167 451 178 451 q 101 458 147 451 q 89 549 89 472 q 103 667 89 644 q 293 694 207 694 q 460 669 389 694 q 481 620 469 663 q 492 547 492 578 q 467 468 492 501 q 428 458 451 458 q 418 460 421 458 q 412 463 415 461 q 404 467 408 465 q 396 390 396 425 q 434 262 396 310 q 525 214 472 214 q 626 267 582 214 q 671 407 671 321 q 663 481 671 442 q 613 469 643 469 q 589 478 594 469 q 565 563 565 486 q 589 647 565 633 q 843 696 693 696 q 1011 654 971 696 q 1029 601 1029 635 q 989 490 1029 515 q 951 478 972 478 q 931 481 944 478 q 933 351 931 440 q 936 215 936 261 q 982 218 975 218 q 1004 217 996 218 q 1010 188 1010 211 q 999 94 1010 150 q 978 25 988 38 q 906 6 963 17 q 793 -4 849 -4 q 693 13 726 -4 q 681 50 681 21 q 688 97 681 56 q 500 -3 567 -3 q 401 40 457 -3 q 406 -154 406 -39 q 399 -306 406 -292 q 222 -347 350 -347 q 120 -340 161 -347 q 69 -326 79 -332 l 61 -321 q 56 -243 56 -308 z "},"":{"ha":1063,"x_min":42,"x_max":1011,"o":"m 42 675 q 172 913 42 811 q 500 1014 303 1014 q 842 908 707 1014 q 990 893 919 908 q 1011 853 1011 868 q 990 800 1011 838 q 874 781 931 785 q 903 422 903 626 q 846 -225 903 117 q 768 -264 800 -264 q 717 -225 736 -264 q 649 357 649 54 q 715 782 649 604 l 521 782 q 560 432 560 617 q 504 -225 560 125 q 449 -260 481 -260 q 375 -225 417 -260 q 307 375 307 54 q 107 493 172 406 q 42 675 42 581 z "},"":{"ha":292,"x_min":53,"x_max":239,"o":"m 53 442 q 78 518 53 482 q 144 542 110 542 q 215 518 179 542 q 239 439 239 481 q 215 353 239 397 q 142 326 175 326 q 78 353 108 326 q 53 442 53 400 z "},"":{"ha":1157,"x_min":350,"x_max":650,"o":"m 350 -281 q 364 -217 350 -239 q 397 -212 381 -212 q 429 -217 413 -212 q 431 -221 431 -219 q 429 -228 431 -225 q 490 -246 460 -246 q 540 -189 540 -246 q 528 -140 540 -162 q 503 -118 517 -118 q 471 -146 489 -118 q 472 -150 472 -147 q 471 -156 472 -154 q 442 -162 457 -162 q 406 -156 422 -162 q 393 -92 393 -136 q 399 8 393 -36 q 457 13 403 13 q 461 -6 460 13 q 463 -43 463 -25 q 465 -61 464 -61 q 542 -29 503 -29 q 621 -74 592 -29 q 650 -181 650 -119 q 616 -297 650 -247 q 521 -346 582 -346 q 424 -312 474 -346 q 415 -344 424 -342 q 400 -345 410 -344 q 386 -346 390 -346 q 357 -342 372 -346 q 350 -281 350 -311 z "},"":{"ha":385,"x_min":50,"x_max":338,"o":"m 50 869 q 60 922 50 904 q 131 960 81 944 q 229 976 182 976 q 290 965 268 976 q 303 765 303 915 q 290 522 303 592 q 300 524 293 524 q 333 514 317 524 q 338 485 338 501 q 321 419 338 442 q 183 410 286 410 q 65 431 86 410 q 56 483 56 460 q 65 517 56 507 q 114 525 82 525 q 110 692 110 611 q 114 842 110 767 q 103 833 110 839 q 92 826 96 828 q 80 822 88 824 q 60 818 72 819 q 50 869 50 836 z "},"":{"ha":588,"x_min":33,"x_max":550,"o":"m 33 639 q 124 862 33 758 q 344 965 214 965 q 500 893 450 965 q 550 711 550 821 q 473 497 550 569 q 274 424 396 424 q 95 485 157 424 q 33 639 33 547 m 200 665 q 222 608 200 632 q 275 583 243 583 q 356 624 318 583 q 394 714 394 664 q 374 775 394 750 q 318 800 353 800 q 235 756 271 800 q 200 665 200 711 z "},"":{"ha":642,"x_min":35,"x_max":608,"o":"m 35 663 q 69 686 42 686 q 149 663 96 686 q 372 332 275 538 q 144 -7 297 129 q 128 -13 139 -8 q 110 -21 118 -18 q 93 -24 101 -24 q 43 15 67 -24 q 238 332 99 210 q 35 663 125 451 m 271 663 q 306 686 278 686 q 385 663 332 686 q 608 332 511 538 q 381 -7 533 129 q 365 -13 375 -8 q 346 -21 354 -18 q 329 -24 338 -24 q 279 15 303 -24 q 474 332 335 210 q 271 663 361 451 z "},"":{"ha":1139,"x_min":57,"x_max":1082,"o":"m 57 868 q 67 921 57 903 q 138 959 88 943 q 236 975 189 975 q 297 964 275 975 q 310 764 310 914 q 297 521 310 590 q 307 522 300 522 q 340 513 324 522 q 344 483 344 500 q 328 418 344 442 q 190 408 294 408 q 72 429 93 408 q 63 482 63 458 q 72 515 63 506 q 121 524 89 524 q 117 690 117 608 q 121 840 117 765 q 110 832 117 838 q 99 824 103 826 q 87 820 94 822 q 67 817 79 818 q 57 868 57 835 m 239 60 q 697 843 411 550 q 739 856 717 856 q 775 826 765 856 q 317 42 631 369 q 271 21 294 21 q 239 60 247 21 m 628 271 q 632 332 628 303 q 803 543 707 492 q 906 554 829 554 q 1029 538 997 554 q 1039 431 1039 499 q 1035 329 1039 358 q 1042 330 1038 329 q 1047 331 1046 331 q 1055 330 1050 331 q 1061 329 1060 329 q 1078 253 1078 308 q 1064 199 1078 211 q 1047 196 1060 196 q 1033 197 1036 196 q 1035 176 1035 190 q 1028 108 1035 133 q 1038 110 1031 110 q 1067 103 1053 110 q 1082 39 1082 92 q 1076 4 1082 15 q 897 -1 1040 -1 q 792 7 811 -1 q 785 71 785 31 q 796 103 785 97 q 854 111 804 107 q 851 160 851 150 q 854 196 851 174 q 756 192 814 192 q 632 197 649 192 q 628 271 628 233 m 768 322 q 800 324 778 324 q 856 322 832 324 q 856 385 856 333 q 857 453 857 436 q 803 381 838 438 l 768 322 z "},"":{"ha":1179,"x_min":57,"x_max":1124,"o":"m 57 868 q 67 921 57 903 q 138 959 88 943 q 236 975 189 975 q 297 964 275 975 q 310 764 310 914 q 297 521 310 590 q 307 522 300 522 q 340 513 324 522 q 344 483 344 500 q 328 418 344 442 q 190 408 294 408 q 72 429 93 408 q 63 482 63 458 q 72 515 63 506 q 121 524 89 524 q 117 690 117 608 q 121 840 117 765 q 110 832 117 838 q 99 824 103 826 q 87 820 94 822 q 67 817 79 818 q 57 868 57 835 m 239 60 q 697 843 411 550 q 739 856 717 856 q 775 826 765 856 q 317 42 631 369 q 271 21 294 21 q 239 60 247 21 m 715 64 q 733 199 715 144 q 776 276 750 254 q 834 312 803 299 q 892 328 865 325 q 935 341 918 331 q 953 374 953 351 q 899 414 953 414 q 844 403 869 414 q 814 376 819 393 q 813 360 814 368 q 767 347 794 347 q 743 353 750 347 q 724 403 732 361 q 717 485 717 446 q 724 533 717 522 q 769 544 743 544 q 797 536 789 544 q 814 514 813 521 q 946 550 860 550 q 1058 510 1008 550 q 1108 381 1108 469 q 1088 297 1108 329 q 1040 253 1068 265 q 982 232 1011 240 q 933 208 953 224 q 913 164 913 192 q 954 154 932 154 q 1013 167 985 154 q 1021 190 1013 169 q 1074 196 1043 196 q 1104 190 1097 196 q 1124 86 1124 164 q 1104 -8 1124 4 q 1061 -12 1097 -12 q 1004 -4 1010 -12 l 1001 21 q 915 0 968 0 q 831 7 893 0 q 825 -10 828 -8 q 764 -17 804 -17 q 721 -10 742 -17 q 715 64 715 24 z "},"":{"ha":1194,"x_min":46,"x_max":1131,"o":"m 46 517 q 89 585 54 540 q 165 640 124 631 l 199 589 q 190 576 197 583 q 213 572 200 572 q 256 588 236 572 q 275 625 275 604 q 257 660 275 643 q 229 657 240 657 q 201 661 211 657 q 190 715 190 676 q 196 765 190 756 q 236 774 200 774 q 264 769 258 774 q 276 797 276 782 q 258 835 276 818 q 218 853 240 853 q 201 850 213 853 q 203 839 201 843 q 164 822 193 822 q 139 825 153 822 q 117 880 131 829 q 104 951 104 931 q 128 964 106 958 q 167 969 151 969 l 172 963 q 250 985 204 985 q 390 928 339 985 q 440 801 440 872 q 396 708 440 747 q 446 603 446 660 q 383 475 446 529 q 218 421 321 421 q 90 467 140 421 q 71 460 74 460 q 46 517 46 485 m 288 60 q 746 843 460 550 q 788 856 765 856 q 824 826 814 856 q 365 42 679 369 q 319 21 343 21 q 288 60 296 21 m 676 271 q 681 332 676 303 q 757 460 711 399 q 853 542 803 521 q 944 554 882 554 q 1078 538 1044 554 q 1088 431 1088 499 q 1083 329 1088 358 q 1090 330 1086 329 q 1096 331 1094 331 q 1103 330 1099 331 q 1110 329 1108 329 q 1126 254 1126 308 q 1113 199 1126 208 q 1096 196 1108 196 q 1082 197 1085 196 q 1083 176 1083 190 q 1076 108 1083 133 q 1086 110 1079 110 q 1115 103 1101 110 q 1131 39 1131 92 q 1125 4 1131 15 q 946 -1 1089 -1 q 840 7 858 -1 q 833 71 833 31 q 843 106 833 99 q 903 111 851 110 q 900 158 900 150 q 903 196 900 174 q 804 192 864 192 q 681 197 697 192 q 676 271 676 233 m 817 322 q 849 324 826 324 q 904 322 881 324 q 905 385 904 333 q 906 453 906 436 q 851 381 886 438 l 817 322 z "},"":{"ha":765,"x_min":43,"x_max":726,"o":"m 43 -99 q 53 -30 43 -61 q 86 28 63 1 q 131 75 110 56 q 196 118 153 94 q 267 156 239 142 q 350 194 294 169 q 338 272 338 225 q 350 371 338 318 q 426 378 376 378 q 514 371 500 378 q 533 260 533 333 q 521 131 533 185 q 385 61 429 106 q 342 -33 342 17 q 378 -117 342 -83 q 461 -150 414 -150 q 533 -122 501 -150 q 575 -39 564 -94 q 640 -29 610 -29 q 705 -51 683 -29 q 726 -110 726 -74 q 667 -239 726 -182 q 533 -314 614 -287 q 365 -340 453 -340 q 137 -278 231 -340 q 43 -99 43 -215 m 321 553 q 347 635 321 589 q 424 656 389 656 q 514 635 488 656 q 532 553 532 594 q 514 469 532 510 q 417 453 478 453 q 347 469 383 453 q 321 553 321 522 z "},"":{"ha":1118,"x_min":6,"x_max":1113,"o":"m 6 86 q 28 189 6 185 q 71 200 28 200 q 114 189 107 200 q 249 607 124 250 q 388 965 374 964 q 578 972 467 972 q 731 965 646 972 q 869 608 744 964 q 1004 189 994 251 q 1047 200 1015 200 q 1090 189 1090 200 q 1113 86 1113 185 q 1097 17 1113 22 q 881 0 1079 0 q 718 5 796 0 q 640 15 640 10 q 610 126 610 35 q 614 165 610 153 q 624 181 614 174 q 650 188 635 188 q 690 182 690 188 q 696 197 696 182 q 682 300 696 221 q 561 293 649 293 q 436 300 469 293 q 422 197 422 232 q 428 182 422 182 q 468 188 428 188 q 494 181 483 188 q 504 165 504 174 q 508 126 508 153 q 478 15 508 35 q 400 5 478 10 q 238 0 322 0 q 21 17 39 0 q 6 86 6 22 m 310 1279 q 422 1315 361 1315 q 460 1313 449 1315 q 579 1103 522 1244 q 544 1092 564 1092 q 496 1103 529 1092 q 310 1279 367 1182 m 471 458 q 553 464 510 464 q 646 457 604 464 q 558 744 604 625 q 471 458 513 626 z "},"":{"ha":1118,"x_min":6,"x_max":1113,"o":"m 6 86 q 28 189 6 185 q 71 200 28 200 q 114 189 107 200 q 249 607 124 250 q 388 965 374 964 q 578 972 467 972 q 731 965 646 972 q 869 608 744 964 q 1004 189 994 251 q 1047 200 1015 200 q 1090 189 1090 200 q 1113 86 1113 185 q 1097 17 1113 22 q 881 0 1079 0 q 718 5 796 0 q 640 15 640 10 q 610 126 610 35 q 614 165 610 153 q 624 181 614 174 q 650 188 635 188 q 690 182 690 188 q 696 197 696 182 q 682 300 696 221 q 561 293 649 293 q 436 300 469 293 q 422 197 422 232 q 428 182 422 182 q 468 188 428 188 q 494 181 483 188 q 504 165 504 174 q 508 126 508 153 q 478 15 508 35 q 400 5 478 10 q 238 0 322 0 q 21 17 39 0 q 6 86 6 22 m 471 458 q 553 464 510 464 q 646 457 604 464 q 558 744 604 625 q 471 458 513 626 m 500 1104 q 618 1314 557 1249 q 657 1317 643 1317 q 769 1281 718 1317 q 583 1104 713 1183 q 535 1093 550 1093 q 500 1104 515 1093 z "},"":{"ha":1118,"x_min":6,"x_max":1113,"o":"m 6 86 q 28 189 6 185 q 71 200 28 200 q 114 189 107 200 q 249 607 124 250 q 388 965 374 964 q 578 972 467 972 q 731 965 646 972 q 869 608 744 964 q 1004 189 994 251 q 1047 200 1015 200 q 1090 189 1090 200 q 1113 86 1113 185 q 1097 17 1113 22 q 881 0 1079 0 q 718 5 796 0 q 640 15 640 10 q 610 126 610 35 q 614 165 610 153 q 624 181 614 174 q 650 188 635 188 q 690 182 690 188 q 696 197 696 182 q 682 300 696 221 q 561 293 649 293 q 436 300 469 293 q 422 197 422 232 q 428 182 422 182 q 468 188 428 188 q 494 181 483 188 q 504 165 504 174 q 508 126 508 153 q 478 15 508 35 q 400 5 478 10 q 238 0 322 0 q 21 17 39 0 q 6 86 6 22 m 381 1101 q 399 1133 385 1108 q 418 1168 413 1158 q 438 1199 424 1178 q 461 1233 451 1219 q 486 1264 471 1246 q 518 1297 501 1282 q 572 1318 544 1318 q 635 1297 600 1318 q 772 1101 711 1225 q 735 1090 753 1090 q 694 1101 717 1090 q 576 1200 614 1143 q 458 1101 519 1129 q 419 1093 438 1093 q 381 1101 400 1093 m 471 458 q 553 464 510 464 q 646 457 604 464 q 558 744 604 625 q 471 458 513 626 z "},"":{"ha":1118,"x_min":6,"x_max":1113,"o":"m 6 86 q 28 189 6 185 q 71 200 28 200 q 114 189 107 200 q 249 607 124 250 q 388 965 374 964 q 578 972 467 972 q 731 965 646 972 q 869 608 744 964 q 1004 189 994 251 q 1047 200 1015 200 q 1090 189 1090 200 q 1113 86 1113 185 q 1097 17 1113 22 q 881 0 1079 0 q 718 5 796 0 q 640 15 640 10 q 610 126 610 35 q 614 165 610 153 q 624 181 614 174 q 650 188 635 188 q 690 182 690 188 q 696 197 696 182 q 682 300 696 221 q 561 293 649 293 q 436 300 469 293 q 422 197 422 232 q 428 182 422 182 q 468 188 428 188 q 494 181 483 188 q 504 165 504 174 q 508 126 508 153 q 478 15 508 35 q 400 5 478 10 q 238 0 322 0 q 21 17 39 0 q 6 86 6 22 m 293 1144 q 334 1269 306 1235 q 422 1303 363 1303 q 543 1269 476 1303 q 654 1236 610 1236 q 690 1249 681 1236 q 711 1308 700 1261 q 726 1311 715 1311 q 776 1291 749 1311 q 819 1249 803 1271 q 778 1124 807 1158 q 692 1090 749 1090 q 573 1124 642 1090 q 454 1157 504 1157 q 421 1145 431 1157 q 401 1086 411 1133 q 379 1079 390 1079 q 331 1099 357 1079 q 293 1144 304 1118 m 471 458 q 553 464 510 464 q 646 457 604 464 q 558 744 604 625 q 471 458 513 626 z "},"":{"ha":1118,"x_min":6,"x_max":1113,"o":"m 6 86 q 28 189 6 185 q 71 200 28 200 q 114 189 107 200 q 249 607 124 250 q 388 965 374 964 q 578 972 467 972 q 731 965 646 972 q 869 608 744 964 q 1004 189 994 251 q 1047 200 1015 200 q 1090 189 1090 200 q 1113 86 1113 185 q 1097 17 1113 22 q 881 0 1079 0 q 718 5 796 0 q 640 15 640 10 q 610 126 610 35 q 614 165 610 153 q 624 181 614 174 q 650 188 635 188 q 690 182 690 188 q 696 197 696 182 q 682 300 696 221 q 561 293 649 293 q 436 300 469 293 q 422 197 422 232 q 428 182 422 182 q 468 188 428 188 q 494 181 483 188 q 504 165 504 174 q 508 126 508 153 q 478 15 508 35 q 400 5 478 10 q 238 0 322 0 q 21 17 39 0 q 6 86 6 22 m 363 1208 q 388 1285 363 1249 q 454 1308 419 1308 q 525 1285 489 1308 q 549 1206 549 1247 q 525 1119 549 1164 q 451 1093 485 1093 q 388 1119 418 1093 q 363 1208 363 1167 m 471 458 q 553 464 510 464 q 646 457 604 464 q 558 744 604 625 q 471 458 513 626 m 626 1208 q 651 1285 626 1249 q 718 1308 683 1308 q 789 1285 753 1308 q 813 1206 813 1247 q 789 1119 813 1164 q 715 1093 749 1093 q 651 1119 682 1093 q 626 1208 626 1167 z "},"":{"ha":1118,"x_min":6,"x_max":1113,"o":"m 6 86 q 28 189 6 185 q 71 200 28 200 q 114 189 107 200 q 249 607 124 250 q 388 965 374 964 q 578 972 467 972 q 731 965 646 972 q 869 608 744 964 q 1004 189 994 251 q 1047 200 1015 200 q 1090 189 1090 200 q 1113 86 1113 185 q 1097 17 1113 22 q 881 0 1079 0 q 718 5 796 0 q 640 15 640 10 q 610 126 610 35 q 614 165 610 153 q 624 181 614 174 q 650 188 635 188 q 690 182 690 188 q 696 197 696 182 q 682 300 696 221 q 561 293 649 293 q 436 300 469 293 q 422 197 422 232 q 428 182 422 182 q 468 188 428 188 q 494 181 483 188 q 504 165 504 174 q 508 126 508 153 q 478 15 508 35 q 400 5 478 10 q 238 0 322 0 q 21 17 39 0 q 6 86 6 22 m 379 1076 q 438 1219 379 1153 q 581 1286 496 1286 q 688 1238 650 1286 q 725 1121 725 1190 q 669 985 725 1033 q 532 936 614 936 q 418 976 457 936 q 379 1076 379 1017 m 471 458 q 553 464 510 464 q 646 457 604 464 q 558 744 604 625 q 471 458 513 626 m 471 1085 q 492 1027 471 1051 q 546 1003 513 1003 q 627 1042 589 1003 q 665 1131 665 1082 q 644 1192 665 1167 q 588 1217 622 1217 q 506 1174 540 1217 q 471 1085 471 1131 z "},"":{"ha":1403,"x_min":-17,"x_max":1364,"o":"m -17 86 q 6 189 -17 185 q 46 200 10 200 q 92 189 92 200 q 315 603 100 242 q 546 965 529 964 q 876 1001 628 1001 q 1147 992 1013 1001 q 1336 971 1282 982 q 1350 893 1350 929 q 1318 729 1350 835 q 1253 721 1285 721 q 1103 767 1172 721 l 1107 813 q 1079 815 1093 815 q 961 797 1033 815 q 886 763 889 778 q 894 638 894 700 q 888 589 894 596 q 969 593 968 589 q 968 606 968 597 q 981 643 968 621 q 1033 653 993 653 q 1095 644 1067 653 q 1126 621 1124 636 q 1138 551 1138 601 q 1128 460 1138 506 q 1106 401 1119 415 q 1040 392 1094 392 q 978 401 986 392 q 965 443 965 418 l 881 436 q 883 363 881 417 q 886 282 886 308 q 882 211 886 244 q 994 197 938 197 q 1121 221 1065 197 l 1117 267 q 1267 313 1186 313 q 1332 304 1299 313 q 1364 140 1364 199 q 1350 21 1364 63 q 1274 3 1351 8 q 1068 -1 1196 -1 q 765 4 908 -1 q 618 15 621 10 q 588 126 588 35 q 592 165 588 153 q 602 181 592 174 q 628 188 613 188 q 668 182 668 188 q 669 232 669 193 q 668 300 669 289 q 540 293 635 293 q 400 300 433 293 q 363 208 363 242 q 364 182 363 192 q 418 188 364 188 q 444 181 433 188 q 454 165 454 174 q 458 126 458 153 q 428 15 458 35 q 215 0 428 0 q -1 17 17 0 q -17 86 -17 22 m 476 458 q 531 464 510 464 q 665 457 624 464 q 667 739 667 556 q 612 663 643 710 q 540 555 581 617 q 476 458 500 493 z "},"":{"ha":921,"x_min":43,"x_max":869,"o":"m 43 478 q 152 836 43 690 q 442 982 261 982 q 636 921 574 982 q 665 972 639 963 q 750 988 700 988 q 853 960 815 988 q 869 796 869 863 q 819 604 869 676 q 690 576 746 576 q 578 604 638 576 q 576 617 576 607 q 581 639 576 633 q 536 723 581 692 q 453 754 492 754 q 356 667 396 754 q 315 474 315 579 q 354 317 315 374 q 451 261 393 261 q 578 335 518 261 q 574 363 574 360 q 574 368 574 365 q 575 372 575 371 q 686 396 626 396 q 821 368 749 396 q 869 178 869 294 q 853 13 869 113 q 742 -22 810 -22 q 665 0 692 -22 q 636 54 636 11 q 450 -8 544 -8 q 306 22 376 -8 q 175 111 235 53 q 79 265 115 169 q 43 478 43 360 m 354 -281 q 368 -217 354 -239 q 401 -212 385 -212 q 433 -217 417 -212 q 435 -221 435 -219 q 433 -228 435 -225 q 494 -246 464 -246 q 544 -189 544 -246 q 533 -140 544 -162 q 507 -118 521 -118 q 475 -146 493 -118 q 476 -150 476 -147 q 475 -156 476 -154 q 446 -162 461 -162 q 410 -156 426 -162 q 397 -92 397 -136 q 403 8 397 -36 q 461 13 407 13 q 465 -6 464 13 q 467 -43 467 -25 q 469 -61 468 -61 q 546 -29 507 -29 q 625 -74 596 -29 q 654 -181 654 -119 q 620 -297 654 -247 q 525 -346 586 -346 q 428 -312 478 -346 q 419 -344 428 -342 q 404 -345 414 -344 q 390 -346 394 -346 q 361 -342 375 -346 q 354 -281 354 -311 z "},"":{"ha":942,"x_min":63,"x_max":890,"o":"m 63 99 q 100 226 63 207 q 139 239 119 239 q 146 238 143 239 q 129 475 129 361 q 158 742 129 621 q 139 739 144 739 q 100 751 119 739 q 63 879 63 771 q 75 944 63 928 q 238 977 119 965 q 465 989 356 989 q 876 936 721 989 q 890 817 890 894 q 858 653 890 758 q 793 644 825 644 q 643 690 713 644 l 647 736 q 544 754 619 754 q 454 742 460 754 q 460 668 460 692 q 442 568 460 614 q 496 572 494 568 q 494 585 494 576 q 507 622 494 600 q 553 629 515 629 q 633 619 611 629 q 661 488 661 574 q 632 381 661 410 q 567 371 621 371 q 504 381 513 371 q 492 422 492 397 l 435 415 q 419 257 435 403 q 539 217 468 217 q 647 242 600 217 l 643 288 q 793 333 713 333 q 858 325 825 333 q 890 161 890 219 q 876 42 890 83 q 499 -18 772 -18 q 244 -3 365 -18 q 75 33 124 11 q 63 99 63 50 m 286 1279 q 399 1315 338 1315 q 436 1313 425 1315 q 556 1103 499 1244 q 521 1092 540 1092 q 472 1103 506 1092 q 286 1279 343 1182 z "},"":{"ha":942,"x_min":63,"x_max":890,"o":"m 63 99 q 100 226 63 207 q 139 239 119 239 q 146 238 143 239 q 129 475 129 361 q 158 742 129 621 q 139 739 144 739 q 100 751 119 739 q 63 879 63 771 q 75 944 63 928 q 238 977 119 965 q 465 989 356 989 q 876 936 721 989 q 890 817 890 894 q 858 653 890 758 q 793 644 825 644 q 643 690 713 644 l 647 736 q 544 754 619 754 q 454 742 460 754 q 460 668 460 692 q 442 568 460 614 q 496 572 494 568 q 494 585 494 576 q 507 622 494 600 q 553 629 515 629 q 633 619 611 629 q 661 488 661 574 q 632 381 661 410 q 567 371 621 371 q 504 381 513 371 q 492 422 492 397 l 435 415 q 419 257 435 403 q 539 217 468 217 q 647 242 600 217 l 643 288 q 793 333 713 333 q 858 325 825 333 q 890 161 890 219 q 876 42 890 83 q 499 -18 772 -18 q 244 -3 365 -18 q 75 33 124 11 q 63 99 63 50 m 415 1104 q 533 1314 472 1249 q 572 1317 558 1317 q 685 1281 633 1317 q 499 1104 628 1183 q 450 1093 465 1093 q 415 1104 431 1093 z "},"":{"ha":942,"x_min":63,"x_max":890,"o":"m 63 99 q 100 226 63 207 q 139 239 119 239 q 146 238 143 239 q 129 475 129 361 q 158 742 129 621 q 139 739 144 739 q 100 751 119 739 q 63 879 63 771 q 75 944 63 928 q 238 977 119 965 q 465 989 356 989 q 876 936 721 989 q 890 817 890 894 q 858 653 890 758 q 793 644 825 644 q 643 690 713 644 l 647 736 q 544 754 619 754 q 454 742 460 754 q 460 668 460 692 q 442 568 460 614 q 496 572 494 568 q 494 585 494 576 q 507 622 494 600 q 553 629 515 629 q 633 619 611 629 q 661 488 661 574 q 632 381 661 410 q 567 371 621 371 q 504 381 513 371 q 492 422 492 397 l 435 415 q 419 257 435 403 q 539 217 468 217 q 647 242 600 217 l 643 288 q 793 333 713 333 q 858 325 825 333 q 890 161 890 219 q 876 42 890 83 q 499 -18 772 -18 q 244 -3 365 -18 q 75 33 124 11 q 63 99 63 50 m 289 1101 q 307 1133 293 1108 q 326 1168 321 1158 q 346 1199 332 1178 q 369 1233 360 1219 q 394 1264 379 1246 q 426 1297 410 1282 q 481 1318 453 1318 q 543 1297 508 1318 q 681 1101 619 1225 q 643 1090 661 1090 q 603 1101 625 1090 q 485 1200 522 1143 q 367 1101 428 1129 q 328 1093 346 1093 q 289 1101 308 1093 z "},"":{"ha":938,"x_min":58,"x_max":886,"o":"m 58 79 q 96 226 58 207 q 135 239 114 239 q 142 238 139 239 q 138 378 138 308 q 154 742 138 500 q 135 739 140 739 q 96 751 114 739 q 58 879 58 771 q 71 944 58 928 q 233 977 115 965 q 461 989 351 989 q 872 936 717 989 q 886 817 886 894 q 854 653 886 758 q 789 644 821 644 q 639 690 708 644 l 643 736 q 540 754 617 754 q 450 742 456 754 q 456 668 456 692 q 438 568 456 614 q 492 572 490 568 q 490 585 490 576 q 503 622 490 600 q 543 629 511 629 q 614 621 581 629 q 649 600 647 613 q 660 531 660 581 q 651 440 660 485 q 628 381 642 394 q 563 371 617 371 q 500 381 508 371 q 488 422 488 397 l 431 415 q 415 257 431 403 q 535 217 464 217 q 643 242 596 217 l 639 288 q 789 333 708 333 q 854 325 821 333 q 886 161 886 219 q 872 42 886 83 q 494 -18 768 -18 q 240 -3 361 -18 q 71 33 119 11 q 58 79 58 50 m 250 1210 q 275 1286 250 1250 q 342 1310 307 1310 q 413 1286 376 1310 q 436 1207 436 1249 q 413 1121 436 1165 q 339 1094 372 1094 q 275 1121 306 1094 q 250 1210 250 1168 m 514 1210 q 539 1286 514 1250 q 608 1310 571 1310 q 676 1286 653 1310 q 700 1215 700 1263 q 676 1121 700 1165 q 603 1094 636 1094 q 539 1121 569 1094 q 514 1210 514 1168 z "},"":{"ha":536,"x_min":36,"x_max":483,"o":"m 36 1279 q 149 1315 88 1315 q 188 1313 163 1315 q 306 1103 249 1247 q 271 1092 290 1092 q 222 1103 256 1092 q 36 1279 93 1182 m 58 125 q 68 194 58 185 q 149 211 103 211 q 132 490 132 350 q 149 758 132 625 q 68 775 83 765 q 58 853 58 786 q 68 932 58 918 q 293 969 85 969 q 447 957 411 969 q 473 908 463 949 q 483 828 483 868 q 475 778 483 792 q 408 761 439 761 q 385 764 399 761 q 401 519 401 651 q 385 206 401 411 q 407 207 392 207 q 475 192 449 207 q 481 158 481 181 q 469 78 481 125 q 447 13 458 32 q 293 0 411 0 q 68 38 85 0 q 58 125 58 54 z "},"":{"ha":535,"x_min":60,"x_max":479,"o":"m 60 119 q 68 194 60 186 q 117 207 81 201 q 149 211 142 211 q 132 490 132 350 q 149 758 132 625 q 117 763 142 758 q 68 775 81 768 q 60 850 60 783 q 68 932 60 922 q 290 969 100 969 q 447 957 424 969 q 467 887 456 943 q 479 801 479 831 q 475 778 479 783 q 408 763 444 763 q 385 764 393 763 q 401 519 401 651 q 385 206 401 411 q 408 207 393 207 q 475 192 444 207 q 479 168 479 186 q 467 83 479 139 q 447 13 456 26 q 293 0 422 0 q 68 38 100 0 q 60 119 60 47 m 204 1104 q 322 1314 261 1249 q 361 1317 347 1317 q 474 1281 422 1317 q 288 1104 417 1183 q 239 1093 254 1093 q 204 1104 219 1093 z "},"":{"ha":536,"x_min":58,"x_max":483,"o":"m 58 115 q 68 194 58 185 q 149 211 103 211 q 132 490 132 350 q 149 758 132 625 q 68 775 83 765 q 58 853 58 786 q 68 932 58 918 q 293 969 85 969 q 447 957 411 969 q 473 908 463 949 q 483 828 483 868 q 475 778 483 792 q 408 761 439 761 q 385 764 399 761 q 401 519 401 651 q 385 206 401 411 q 407 207 392 207 q 475 192 449 207 q 481 158 481 181 q 469 78 481 125 q 447 13 458 32 q 285 0 411 0 q 71 39 100 0 q 58 115 58 54 m 65 1101 q 83 1133 69 1108 q 103 1168 97 1158 q 122 1199 108 1178 q 146 1233 136 1219 q 171 1264 156 1246 q 203 1297 186 1282 q 257 1318 231 1318 q 319 1297 285 1318 q 457 1101 396 1225 q 419 1090 438 1090 q 379 1101 401 1090 q 261 1200 299 1143 q 143 1101 204 1129 q 104 1093 122 1093 q 65 1101 83 1093 z "},"":{"ha":536,"x_min":47,"x_max":497,"o":"m 47 1208 q 72 1285 47 1249 q 139 1308 104 1308 q 210 1285 174 1308 q 233 1206 233 1247 q 210 1119 233 1164 q 136 1093 169 1093 q 72 1119 103 1093 q 47 1208 47 1167 m 58 115 q 68 194 58 185 q 149 211 103 211 q 132 490 132 350 q 149 758 132 625 q 68 775 83 765 q 58 853 58 786 q 68 932 58 918 q 293 969 85 969 q 447 957 411 969 q 473 908 463 949 q 483 828 483 868 q 475 778 483 792 q 408 761 439 761 q 385 764 399 761 q 401 519 401 651 q 385 206 401 411 q 407 207 392 207 q 475 192 449 207 q 481 158 481 181 q 469 78 481 125 q 447 13 458 32 q 285 0 411 0 q 71 39 100 0 q 58 115 58 54 m 311 1208 q 336 1285 311 1249 q 403 1308 368 1308 q 474 1285 438 1308 q 497 1206 497 1247 q 474 1119 497 1164 q 400 1093 433 1093 q 336 1119 367 1093 q 311 1208 311 1167 z "},"":{"ha":993,"x_min":56,"x_max":953,"o":"m 56 810 q 74 899 56 894 q 378 974 203 974 q 661 908 531 974 q 872 719 792 842 q 953 444 953 596 q 795 107 953 228 q 407 -14 638 -14 q 83 44 231 -14 q 64 171 64 82 q 74 256 64 238 q 132 276 78 276 q 167 274 147 276 q 158 338 158 306 q 169 394 158 371 q 100 404 117 401 q 82 471 82 440 q 100 525 82 499 l 165 533 q 156 615 156 572 q 169 713 156 667 q 132 708 156 708 q 74 729 78 708 q 56 810 56 761 m 435 254 q 531 236 454 236 q 649 299 604 236 q 694 465 694 361 q 638 663 694 583 q 486 742 581 742 q 435 731 471 742 l 435 533 q 525 525 501 533 q 546 471 546 500 q 525 404 546 442 q 435 393 519 403 l 435 254 z "},"":{"ha":1076,"x_min":54,"x_max":1028,"o":"m 75 38 q 54 119 54 53 q 75 194 54 186 q 133 214 104 214 q 156 211 142 214 q 139 490 139 350 q 156 758 139 625 q 129 756 139 756 q 75 775 94 756 q 65 853 65 786 q 75 932 65 918 q 300 969 107 969 q 454 957 429 969 q 484 919 472 950 q 496 851 496 889 q 482 778 496 811 q 421 760 457 760 q 392 764 406 760 q 667 514 518 668 q 683 758 667 636 q 657 757 675 757 q 603 775 622 757 q 583 861 583 803 q 603 932 583 918 q 832 969 635 969 q 982 957 954 969 q 1014 915 1000 950 q 1028 843 1028 881 q 1010 778 1028 804 q 943 763 979 763 q 919 764 928 763 q 936 519 936 651 q 919 206 936 411 q 951 210 933 210 q 1010 192 989 210 q 1024 140 1024 178 q 1011 64 1024 103 q 982 13 999 25 q 831 0 956 0 q 603 38 635 0 q 582 124 582 58 q 603 194 582 182 q 658 214 625 214 q 679 211 665 214 q 407 478 525 338 q 392 206 406 365 q 421 208 408 208 q 482 192 464 208 q 494 139 494 178 q 483 60 494 100 q 454 13 471 21 q 297 0 431 0 q 75 38 107 0 m 250 1144 q 291 1269 263 1235 q 379 1303 319 1303 q 500 1269 433 1303 q 611 1236 567 1236 q 647 1249 638 1236 q 668 1308 657 1261 q 683 1311 672 1311 q 733 1291 706 1311 q 776 1249 760 1271 q 735 1124 764 1158 q 649 1090 706 1090 q 530 1124 599 1090 q 411 1157 461 1157 q 378 1145 388 1157 q 358 1086 368 1133 q 336 1079 347 1079 q 288 1099 314 1079 q 250 1144 261 1118 z "},"":{"ha":1031,"x_min":39,"x_max":986,"o":"m 39 378 q 82 588 39 482 q 198 781 125 694 q 379 921 271 867 q 608 975 488 975 q 785 937 710 975 q 903 833 860 899 q 966 687 946 767 q 986 513 986 607 q 844 120 986 254 q 475 -14 701 -14 q 149 98 260 -14 q 39 378 39 210 m 333 424 q 378 298 333 350 q 494 246 422 246 q 669 331 589 246 q 750 522 750 415 q 704 655 750 601 q 582 708 658 708 q 407 616 481 708 q 333 424 333 524 m 358 1279 q 471 1315 410 1315 q 508 1313 497 1315 q 628 1103 571 1244 q 593 1092 613 1092 q 544 1103 578 1092 q 358 1279 415 1182 z "},"":{"ha":1031,"x_min":39,"x_max":986,"o":"m 39 378 q 82 588 39 482 q 198 781 125 694 q 379 921 271 867 q 608 975 488 975 q 785 937 710 975 q 903 833 860 899 q 966 687 946 767 q 986 513 986 607 q 844 120 986 254 q 475 -14 701 -14 q 149 98 260 -14 q 39 378 39 210 m 333 424 q 378 298 333 350 q 494 246 422 246 q 669 331 589 246 q 750 522 750 415 q 704 655 750 601 q 582 708 658 708 q 407 616 481 708 q 333 424 333 524 m 554 1104 q 672 1314 611 1249 q 711 1317 697 1317 q 824 1281 772 1317 q 638 1104 767 1183 q 589 1093 604 1093 q 554 1104 569 1093 z "},"":{"ha":1031,"x_min":39,"x_max":986,"o":"m 39 378 q 82 588 39 482 q 198 781 125 694 q 379 921 271 867 q 608 975 488 975 q 785 937 710 975 q 903 833 860 899 q 966 687 946 767 q 986 513 986 607 q 844 120 986 254 q 475 -14 701 -14 q 149 98 260 -14 q 39 378 39 210 m 333 424 q 378 298 333 350 q 494 246 422 246 q 669 331 589 246 q 750 522 750 415 q 704 655 750 601 q 582 708 658 708 q 407 616 481 708 q 333 424 333 524 m 367 1101 q 385 1133 371 1108 q 404 1168 399 1158 q 424 1199 410 1178 q 447 1233 438 1219 q 472 1264 457 1246 q 504 1297 488 1282 q 558 1318 531 1318 q 621 1297 586 1318 q 758 1101 697 1225 q 721 1090 739 1090 q 681 1101 703 1090 q 563 1200 600 1143 q 444 1101 506 1129 q 406 1093 424 1093 q 367 1101 386 1093 z "},"":{"ha":1031,"x_min":39,"x_max":986,"o":"m 39 378 q 82 588 39 482 q 198 781 125 694 q 379 921 271 867 q 608 975 488 975 q 785 937 710 975 q 903 833 860 899 q 966 687 946 767 q 986 513 986 607 q 844 120 986 254 q 475 -14 701 -14 q 149 98 260 -14 q 39 378 39 210 m 272 1144 q 313 1269 285 1235 q 401 1303 342 1303 q 522 1269 456 1303 q 633 1236 589 1236 q 669 1249 660 1236 q 690 1308 679 1261 q 706 1311 694 1311 q 755 1291 728 1311 q 799 1249 782 1271 q 757 1124 786 1158 q 671 1090 728 1090 q 552 1124 621 1090 q 433 1157 483 1157 q 400 1145 410 1157 q 381 1086 390 1133 q 358 1079 369 1079 q 310 1099 336 1079 q 272 1144 283 1118 m 333 424 q 378 298 333 350 q 494 246 422 246 q 669 331 589 246 q 750 522 750 415 q 704 655 750 601 q 582 708 658 708 q 407 616 481 708 q 333 424 333 524 z "},"":{"ha":1031,"x_min":39,"x_max":986,"o":"m 39 378 q 82 588 39 482 q 198 781 125 694 q 379 921 271 867 q 608 975 488 975 q 785 937 710 975 q 903 833 860 899 q 966 687 946 767 q 986 513 986 607 q 844 120 986 254 q 475 -14 701 -14 q 149 98 260 -14 q 39 378 39 210 m 333 424 q 378 298 333 350 q 494 246 422 246 q 669 331 589 246 q 750 522 750 415 q 704 655 750 601 q 582 708 658 708 q 407 616 481 708 q 333 424 333 524 m 343 1208 q 368 1285 343 1249 q 435 1308 400 1308 q 506 1285 469 1308 q 529 1206 529 1247 q 506 1119 529 1164 q 432 1093 465 1093 q 368 1119 399 1093 q 343 1208 343 1167 m 607 1208 q 632 1285 607 1249 q 699 1308 664 1308 q 769 1285 733 1308 q 793 1206 793 1247 q 769 1119 793 1164 q 696 1093 729 1093 q 632 1119 663 1093 q 607 1208 607 1167 z "},"":{"ha":658,"x_min":61,"x_max":600,"o":"m 61 628 q 89 681 69 661 q 138 706 107 699 q 244 625 196 674 q 332 510 296 574 q 414 607 367 560 q 522 699 464 657 q 567 676 549 694 q 594 626 583 660 q 507 514 557 564 q 406 436 461 468 q 510 360 460 410 q 600 242 561 308 q 571 192 589 210 q 524 165 550 171 q 413 256 461 207 q 329 360 358 310 q 243 253 288 297 q 139 171 196 206 q 88 190 104 174 q 67 243 71 207 q 153 350 104 301 q 256 433 203 400 q 138 524 188 474 q 61 628 89 572 z "},"":{"ha":1032,"x_min":39,"x_max":986,"o":"m 39 379 q 81 589 39 483 q 197 781 124 694 q 382 921 271 867 q 619 975 493 975 q 733 958 683 975 q 814 1044 786 1017 q 874 1063 849 1063 q 925 1021 911 1063 q 874 868 885 897 q 986 507 986 742 q 844 121 986 256 q 479 -14 701 -14 q 360 -3 418 -14 q 269 -103 344 -21 q 206 -133 233 -133 q 158 -79 171 -133 q 207 53 174 -33 q 81 191 122 106 q 39 379 39 276 m 333 424 q 369 307 333 356 q 594 707 478 535 q 590 708 593 707 q 579 708 586 708 q 407 615 481 708 q 333 424 333 522 m 500 246 q 669 331 589 246 q 750 524 750 415 q 719 633 750 585 q 500 246 628 440 z "},"":{"ha":1061,"x_min":7,"x_max":1057,"o":"m 7 817 q 36 943 7 893 q 249 975 124 975 q 449 946 364 975 q 481 824 481 910 q 456 717 481 750 q 426 708 442 708 q 393 715 414 708 q 390 654 393 707 q 386 561 386 601 q 538 257 386 257 q 613 283 583 257 q 658 358 643 310 q 678 457 672 407 q 683 574 683 507 q 681 663 683 614 q 679 729 679 713 q 635 714 674 714 q 606 726 611 714 q 582 835 582 763 q 606 942 582 907 q 824 974 674 974 q 1031 932 979 974 q 1057 831 1057 886 q 1033 744 1057 782 q 975 726 1017 726 q 947 729 956 726 q 963 563 963 653 q 915 275 963 403 q 766 67 868 147 q 521 -14 664 -14 q 111 653 111 -14 q 112 685 111 678 q 113 703 113 692 q 86 697 107 697 q 35 707 44 697 q 7 817 7 744 m 293 1279 q 406 1315 344 1315 q 443 1313 432 1315 q 563 1103 506 1244 q 528 1092 547 1092 q 479 1103 513 1092 q 293 1279 350 1182 z "},"":{"ha":1061,"x_min":7,"x_max":1057,"o":"m 7 817 q 36 943 7 893 q 249 975 124 975 q 449 946 364 975 q 481 824 481 910 q 456 717 481 750 q 426 708 442 708 q 393 715 414 708 q 390 654 393 707 q 386 561 386 601 q 538 257 386 257 q 613 283 583 257 q 658 358 643 310 q 678 457 672 407 q 683 574 683 507 q 681 663 683 614 q 679 729 679 713 q 635 714 674 714 q 606 726 611 714 q 582 835 582 763 q 606 942 582 907 q 824 974 674 974 q 1031 932 979 974 q 1057 831 1057 886 q 1033 744 1057 782 q 975 726 1017 726 q 947 729 956 726 q 963 563 963 653 q 915 275 963 403 q 766 67 868 147 q 521 -14 664 -14 q 111 653 111 -14 q 112 685 111 678 q 113 703 113 692 q 86 697 107 697 q 35 707 44 697 q 7 817 7 744 m 510 1104 q 628 1314 567 1249 q 667 1317 653 1317 q 779 1281 728 1317 q 593 1104 722 1183 q 544 1093 560 1093 q 510 1104 525 1093 z "},"":{"ha":1061,"x_min":7,"x_max":1057,"o":"m 7 817 q 36 943 7 893 q 249 975 124 975 q 449 946 364 975 q 481 824 481 910 q 456 717 481 750 q 426 708 442 708 q 393 715 414 708 q 390 654 393 707 q 386 561 386 601 q 538 257 386 257 q 613 283 583 257 q 658 358 643 310 q 678 457 672 407 q 683 574 683 507 q 681 663 683 614 q 679 729 679 713 q 635 714 674 714 q 606 726 611 714 q 582 835 582 763 q 606 942 582 907 q 824 974 674 974 q 1031 932 979 974 q 1057 831 1057 886 q 1033 744 1057 782 q 975 726 1017 726 q 947 729 956 726 q 963 563 963 653 q 915 275 963 403 q 766 67 868 147 q 521 -14 664 -14 q 111 653 111 -14 q 112 685 111 678 q 113 703 113 692 q 86 697 107 697 q 35 707 44 697 q 7 817 7 744 m 336 1101 q 354 1133 340 1108 q 374 1168 368 1158 q 393 1199 379 1178 q 417 1233 407 1219 q 442 1264 426 1246 q 474 1297 457 1282 q 528 1318 500 1318 q 590 1297 556 1318 q 728 1101 667 1225 q 690 1090 708 1090 q 650 1101 672 1090 q 532 1200 569 1143 q 414 1101 475 1129 q 375 1093 393 1093 q 336 1101 356 1093 z "},"":{"ha":1061,"x_min":7,"x_max":1057,"o":"m 7 817 q 36 943 7 893 q 249 975 124 975 q 449 946 364 975 q 481 824 481 910 q 456 717 481 750 q 426 708 442 708 q 393 715 414 708 q 390 654 393 707 q 386 561 386 601 q 538 257 386 257 q 613 283 583 257 q 658 358 643 310 q 678 457 672 407 q 683 574 683 507 q 681 663 683 614 q 679 729 679 713 q 635 714 674 714 q 606 726 611 714 q 582 835 582 763 q 606 942 582 907 q 824 974 674 974 q 1031 932 979 974 q 1057 831 1057 886 q 1033 744 1057 782 q 975 726 1017 726 q 947 729 956 726 q 963 563 963 653 q 915 275 963 403 q 766 67 868 147 q 521 -14 664 -14 q 111 653 111 -14 q 112 685 111 678 q 113 703 113 692 q 86 697 107 697 q 35 707 44 697 q 7 817 7 744 m 313 1208 q 338 1285 313 1249 q 404 1308 369 1308 q 475 1285 439 1308 q 499 1206 499 1247 q 475 1119 499 1164 q 401 1093 435 1093 q 338 1119 368 1093 q 313 1208 313 1167 m 576 1208 q 601 1285 576 1249 q 668 1308 633 1308 q 739 1285 703 1308 q 763 1206 763 1247 q 739 1119 763 1164 q 665 1093 699 1093 q 601 1119 632 1093 q 576 1208 576 1167 z "},"":{"ha":944,"x_min":6,"x_max":942,"o":"m 6 840 q 368 975 126 936 q 408 911 393 953 q 422 833 422 869 q 388 810 422 826 q 344 797 363 797 q 481 614 364 738 q 553 697 514 633 q 603 797 592 761 q 560 810 586 797 q 525 832 526 825 q 546 910 526 854 q 579 975 565 965 q 780 934 669 975 q 942 840 890 893 q 928 768 935 793 q 903 693 918 729 q 844 714 876 699 q 812 661 838 703 q 768 596 786 619 q 709 533 750 572 q 617 460 668 493 q 606 329 610 428 q 600 210 603 231 q 676 190 640 210 q 682 146 682 181 q 664 11 682 47 q 467 -1 647 -1 q 246 21 261 -1 q 240 90 240 35 q 251 193 240 182 q 332 210 286 210 q 318 460 322 438 q 174 597 236 513 q 103 714 113 681 q 44 693 71 699 q 6 840 19 758 m 436 1107 q 556 1317 493 1249 q 593 1319 568 1319 q 706 1283 654 1319 q 519 1107 649 1186 q 471 1096 486 1096 q 436 1107 451 1096 z "},"":{"ha":913,"x_min":44,"x_max":888,"o":"m 44 844 q 69 926 44 911 q 152 964 82 950 q 303 978 222 978 q 421 964 385 978 q 428 846 428 938 q 426 833 428 835 q 519 875 442 839 q 643 911 596 911 q 775 851 717 911 q 860 710 833 792 q 888 547 888 628 q 806 322 888 413 q 585 231 725 231 q 460 247 518 231 q 463 224 463 233 q 454 179 463 203 q 490 181 460 181 q 537 174 513 181 q 568 156 561 167 q 589 92 589 142 q 568 26 589 49 q 324 -1 560 -1 q 147 6 226 -1 q 64 26 68 14 q 46 86 46 46 q 64 156 46 135 q 142 181 85 181 q 164 179 158 181 q 163 267 164 203 q 161 399 161 331 q 175 722 161 644 q 151 721 171 721 q 76 731 119 721 q 44 844 44 768 m 453 525 q 475 458 453 481 q 532 435 497 435 q 630 478 583 435 q 676 582 676 522 q 653 651 676 624 q 590 679 629 679 q 495 633 538 679 q 453 525 453 588 z "},"":{"ha":1094,"x_min":29,"x_max":1068,"o":"m 29 -22 q 36 42 29 39 q 104 57 51 50 q 92 215 103 75 q 82 439 82 356 q 91 617 82 536 q 127 778 100 697 q 199 916 154 860 q 317 1007 243 972 q 492 1042 392 1042 q 782 958 660 1042 q 904 771 904 874 q 804 619 904 682 q 1004 524 940 589 q 1068 375 1068 458 q 931 117 1068 239 q 632 -4 794 -4 q 536 10 582 -4 q 525 69 525 15 q 532 165 525 108 q 551 232 539 221 q 600 225 575 225 q 751 273 676 225 q 826 376 826 321 q 718 482 826 439 q 653 444 696 451 q 577 504 608 453 q 546 615 546 556 q 633 675 574 672 q 642 721 642 703 q 595 788 642 761 q 506 815 549 815 q 447 795 472 815 q 407 735 422 775 q 381 648 392 694 q 366 535 371 601 q 359 413 361 469 q 357 281 357 356 q 376 53 363 93 q 426 40 418 53 q 429 19 429 35 q 419 -53 429 -6 q 403 -114 410 -101 q 283 -124 369 -124 q 126 -115 201 -124 q 36 -92 51 -106 q 29 -22 29 -85 z "},"":{"ha":867,"x_min":36,"x_max":821,"o":"m 36 290 q 66 483 36 390 q 163 644 96 576 q 322 711 231 711 q 390 700 360 711 q 437 673 419 689 q 465 641 454 657 q 481 614 476 625 l 486 603 q 485 674 486 650 q 649 713 531 713 q 723 710 690 713 q 772 703 756 707 q 799 694 789 699 q 813 689 810 690 l 815 688 q 821 610 821 675 q 815 531 821 543 q 746 506 796 506 q 715 508 732 506 q 719 438 719 500 q 707 236 719 256 q 731 240 717 240 q 806 228 747 240 q 817 110 817 219 q 813 32 817 49 q 751 3 804 17 q 638 -11 697 -11 q 451 -6 471 -11 q 442 39 442 21 q 446 56 442 50 q 358 13 425 49 q 243 -22 290 -22 q 91 69 146 -22 q 36 290 36 160 m 215 1001 q 328 1038 267 1038 q 365 1035 354 1038 q 485 825 428 967 q 450 814 469 814 q 401 825 435 814 q 215 1001 272 904 m 221 315 q 247 239 221 271 q 317 207 274 207 q 422 257 374 207 q 469 371 469 307 q 442 450 469 418 q 371 482 415 482 q 267 428 313 482 q 221 315 221 375 z "},"":{"ha":867,"x_min":36,"x_max":821,"o":"m 36 290 q 66 483 36 390 q 163 644 96 576 q 322 711 231 711 q 390 700 360 711 q 437 673 419 689 q 465 641 454 657 q 481 614 476 625 l 486 603 q 485 674 486 650 q 649 713 531 713 q 723 710 690 713 q 772 703 756 707 q 799 694 789 699 q 813 689 810 690 l 815 688 q 821 610 821 675 q 815 531 821 543 q 746 506 796 506 q 715 508 732 506 q 719 438 719 500 q 707 236 719 256 q 731 240 717 240 q 806 228 747 240 q 817 110 817 219 q 813 32 817 49 q 751 3 804 17 q 638 -11 697 -11 q 451 -6 471 -11 q 442 39 442 21 q 446 56 442 50 q 358 13 425 49 q 243 -22 290 -22 q 91 69 146 -22 q 36 290 36 160 m 221 315 q 247 239 221 271 q 317 207 274 207 q 422 257 374 207 q 469 371 469 307 q 442 450 469 418 q 371 482 415 482 q 267 428 313 482 q 221 315 221 375 m 424 826 q 542 1036 481 971 q 581 1039 567 1039 q 693 1003 642 1039 q 507 826 636 906 q 458 815 474 815 q 424 826 439 815 z "},"":{"ha":867,"x_min":36,"x_max":821,"o":"m 36 290 q 66 483 36 390 q 163 644 96 576 q 322 711 231 711 q 390 700 360 711 q 437 673 419 689 q 465 641 454 657 q 481 614 476 625 l 486 603 q 485 674 486 650 q 649 713 531 713 q 723 710 690 713 q 772 703 756 707 q 799 694 789 699 q 813 689 810 690 l 815 688 q 821 610 821 675 q 815 531 821 543 q 746 506 796 506 q 715 508 732 506 q 719 438 719 500 q 707 236 719 256 q 731 240 717 240 q 806 228 747 240 q 817 110 817 219 q 813 32 817 49 q 751 3 804 17 q 638 -11 697 -11 q 451 -6 471 -11 q 442 39 442 21 q 446 56 442 50 q 358 13 425 49 q 243 -22 290 -22 q 91 69 146 -22 q 36 290 36 160 m 221 315 q 247 239 221 271 q 317 207 274 207 q 422 257 374 207 q 469 371 469 307 q 442 450 469 418 q 371 482 415 482 q 267 428 313 482 q 221 315 221 375 m 265 824 q 283 856 269 831 q 303 890 297 881 q 322 921 308 900 q 346 955 336 942 q 371 986 356 968 q 403 1019 386 1004 q 457 1040 431 1040 q 519 1019 485 1040 q 657 824 596 947 q 619 813 638 813 q 579 824 601 813 q 461 922 499 865 q 343 824 404 851 q 304 815 322 815 q 265 824 283 815 z "},"":{"ha":867,"x_min":36,"x_max":821,"o":"m 36 290 q 66 483 36 390 q 163 644 96 576 q 322 711 231 711 q 390 700 360 711 q 437 673 419 689 q 465 641 454 657 q 481 614 476 625 l 486 603 q 485 674 486 650 q 649 713 531 713 q 723 710 690 713 q 772 703 756 707 q 799 694 789 699 q 813 689 810 690 l 815 688 q 821 610 821 675 q 815 531 821 543 q 746 506 796 506 q 715 508 732 506 q 719 438 719 500 q 707 236 719 256 q 731 240 717 240 q 806 228 747 240 q 817 110 817 219 q 813 32 817 49 q 751 3 804 17 q 638 -11 697 -11 q 451 -6 471 -11 q 442 39 442 21 q 446 56 442 50 q 358 13 425 49 q 243 -22 290 -22 q 91 69 146 -22 q 36 290 36 160 m 197 867 q 238 991 210 957 q 326 1025 267 1025 q 447 992 381 1025 q 558 958 514 958 q 594 971 585 958 q 615 1031 604 983 q 631 1033 619 1033 q 680 1013 653 1033 q 724 971 707 993 q 682 847 711 881 q 596 813 653 813 q 477 846 546 813 q 358 879 408 879 q 325 867 335 879 q 306 808 315 856 q 283 801 294 801 q 235 821 261 801 q 197 867 208 840 m 221 315 q 247 239 221 271 q 317 207 274 207 q 422 257 374 207 q 469 371 469 307 q 442 450 469 418 q 371 482 415 482 q 267 428 313 482 q 221 315 221 375 z "},"":{"ha":867,"x_min":36,"x_max":821,"o":"m 36 290 q 66 483 36 390 q 163 644 96 576 q 322 711 231 711 q 390 700 360 711 q 437 673 419 689 q 465 641 454 657 q 481 614 476 625 l 486 603 q 485 674 486 650 q 649 713 531 713 q 723 710 690 713 q 772 703 756 707 q 799 694 789 699 q 813 689 810 690 l 815 688 q 821 610 821 675 q 815 531 821 543 q 746 506 796 506 q 715 508 732 506 q 719 438 719 500 q 707 236 719 256 q 731 240 717 240 q 806 228 747 240 q 817 110 817 219 q 813 32 817 49 q 751 3 804 17 q 638 -11 697 -11 q 451 -6 471 -11 q 442 39 442 21 q 446 56 442 50 q 358 13 425 49 q 243 -22 290 -22 q 91 69 146 -22 q 36 290 36 160 m 221 315 q 247 239 221 271 q 317 207 274 207 q 422 257 374 207 q 469 371 469 307 q 442 450 469 418 q 371 482 415 482 q 267 428 313 482 q 221 315 221 375 m 228 931 q 253 1007 228 971 q 319 1031 285 1031 q 390 1007 354 1031 q 414 928 414 969 q 390 842 414 886 q 317 815 350 815 q 253 842 283 815 q 228 931 228 889 m 492 931 q 517 1007 492 971 q 583 1031 549 1031 q 654 1007 618 1031 q 678 928 678 969 q 654 842 678 886 q 581 815 614 815 q 517 842 547 815 q 492 931 492 889 z "},"":{"ha":867,"x_min":36,"x_max":821,"o":"m 36 290 q 66 483 36 390 q 163 644 96 576 q 322 711 231 711 q 390 700 360 711 q 437 673 419 689 q 465 641 454 657 q 481 614 476 625 l 486 603 q 485 674 486 650 q 649 713 531 713 q 723 710 690 713 q 772 703 756 707 q 799 694 789 699 q 813 689 810 690 l 815 688 q 821 610 821 675 q 815 531 821 543 q 746 506 796 506 q 715 508 732 506 q 719 438 719 500 q 707 236 719 256 q 731 240 717 240 q 806 228 747 240 q 817 110 817 219 q 813 32 817 49 q 751 3 804 17 q 638 -11 697 -11 q 451 -6 471 -11 q 442 39 442 21 q 446 56 442 50 q 358 13 425 49 q 243 -22 290 -22 q 91 69 146 -22 q 36 290 36 160 m 221 315 q 247 239 221 271 q 317 207 274 207 q 422 257 374 207 q 469 371 469 307 q 442 450 469 418 q 371 482 415 482 q 267 428 313 482 q 221 315 221 375 m 318 871 q 371 1000 318 940 q 499 1060 424 1060 q 590 1017 561 1060 q 618 913 618 975 q 573 788 618 831 q 457 746 528 746 q 353 782 389 746 q 318 871 318 818 m 408 881 q 425 835 408 854 q 469 815 442 815 q 536 847 506 815 q 567 918 567 878 q 550 967 567 947 q 504 988 533 988 q 437 953 465 988 q 408 881 408 918 z "},"":{"ha":1143,"x_min":36,"x_max":1131,"o":"m 36 290 q 66 483 36 390 q 163 644 96 576 q 322 711 231 711 q 390 700 360 711 q 437 673 419 689 q 465 641 454 657 q 481 614 476 625 l 486 603 q 485 674 486 650 q 625 715 532 715 q 742 696 686 715 q 840 708 789 708 q 1009 655 950 708 q 1068 518 1068 601 q 983 347 1068 415 q 793 279 897 279 q 669 315 719 279 q 712 210 669 246 q 818 174 754 174 q 915 199 871 174 q 988 251 958 225 q 1031 276 1017 276 q 1089 230 1057 276 q 1131 126 1121 183 q 1096 56 1126 93 q 1033 0 1065 18 q 983 17 1007 0 q 950 51 960 35 q 783 -14 882 -14 q 676 -1 733 -14 q 607 -11 628 -11 q 451 -6 474 -11 q 442 39 442 21 q 446 56 442 50 q 358 13 425 49 q 243 -22 290 -22 q 91 69 146 -22 q 36 290 36 160 m 221 315 q 247 239 221 271 q 317 207 274 207 q 422 257 374 207 q 469 371 469 307 q 442 450 469 418 q 371 482 415 482 q 267 428 313 482 q 221 315 221 375 m 710 453 q 776 407 710 407 q 872 431 826 407 q 918 489 918 454 q 902 538 918 513 q 851 564 886 564 q 759 529 808 564 q 710 453 710 494 z "},"":{"ha":792,"x_min":36,"x_max":763,"o":"m 36 315 q 157 608 36 508 q 519 708 278 708 l 531 743 q 604 751 568 751 q 754 706 686 751 q 758 647 758 685 q 735 525 758 575 q 676 461 711 475 q 567 440 617 440 q 474 461 515 440 l 483 508 q 419 518 450 518 q 315 460 356 518 q 274 331 274 401 q 301 226 274 272 q 371 179 329 179 q 464 211 410 179 l 454 249 q 604 296 519 296 q 678 286 633 296 q 763 67 763 193 q 758 10 763 39 q 583 -40 682 -40 q 539 -37 569 -40 l 526 0 q 363 -18 432 -18 q 124 64 213 -18 q 36 315 36 146 m 276 -281 q 290 -217 276 -239 q 324 -212 307 -212 q 356 -217 339 -212 q 357 -221 357 -219 q 356 -228 357 -225 q 417 -246 386 -246 q 467 -189 467 -246 q 455 -140 467 -162 q 429 -118 443 -118 q 397 -146 415 -118 q 399 -150 399 -147 q 397 -156 399 -154 q 368 -162 383 -162 q 332 -156 349 -162 q 319 -92 319 -136 q 325 8 319 -36 q 383 13 329 13 q 388 -6 386 13 q 390 -43 389 -25 q 392 -61 390 -61 q 468 -29 429 -29 q 547 -74 518 -29 q 576 -181 576 -119 q 542 -297 576 -247 q 447 -346 508 -346 q 350 -312 400 -346 q 342 -344 350 -342 q 326 -345 336 -344 q 313 -346 317 -346 q 283 -342 297 -346 q 276 -281 276 -311 z "},"":{"ha":774,"x_min":32,"x_max":765,"o":"m 32 308 q 58 442 32 374 q 133 570 83 510 q 266 669 182 631 q 454 708 350 708 q 634 662 569 708 q 699 529 699 615 q 591 340 699 413 q 350 267 483 267 q 276 274 314 267 q 446 172 279 172 q 496 176 475 172 q 500 200 496 188 q 632 250 561 250 q 653 249 646 250 q 765 85 744 199 q 755 61 764 74 q 736 40 746 49 q 708 19 726 31 q 680 1 690 7 q 649 -15 669 -4 q 626 -28 629 -26 q 613 -26 618 -28 q 602 -19 607 -24 q 596 -12 597 -14 q 590 -1 594 -10 q 585 10 586 8 q 425 -19 507 -19 q 135 76 239 -19 q 32 308 32 172 m 196 1001 q 308 1038 247 1038 q 346 1035 335 1038 q 465 825 408 967 q 431 814 450 814 q 382 825 415 814 q 196 1001 253 904 m 303 453 q 369 407 303 407 q 465 431 419 407 q 511 489 511 454 q 495 538 511 513 q 444 564 479 564 q 352 529 401 564 q 303 453 303 494 z "},"":{"ha":774,"x_min":32,"x_max":765,"o":"m 32 308 q 58 442 32 374 q 133 570 83 510 q 266 669 182 631 q 454 708 350 708 q 634 662 569 708 q 699 529 699 615 q 591 340 699 413 q 350 267 483 267 q 276 274 314 267 q 446 172 279 172 q 496 176 475 172 q 500 200 496 188 q 632 250 561 250 q 653 249 646 250 q 765 85 744 199 q 755 61 764 74 q 736 40 746 49 q 708 19 726 31 q 680 1 690 7 q 649 -15 669 -4 q 626 -28 629 -26 q 613 -26 618 -28 q 602 -19 607 -24 q 596 -12 597 -14 q 590 -1 594 -10 q 585 10 586 8 q 425 -19 507 -19 q 135 76 239 -19 q 32 308 32 172 m 303 453 q 369 407 303 407 q 465 431 419 407 q 511 489 511 454 q 495 538 511 513 q 444 564 479 564 q 352 529 401 564 q 303 453 303 494 m 363 826 q 481 1036 419 971 q 519 1039 506 1039 q 632 1003 581 1039 q 446 826 575 906 q 397 815 413 815 q 363 826 378 815 z "},"":{"ha":774,"x_min":32,"x_max":765,"o":"m 32 308 q 58 442 32 374 q 133 570 83 510 q 266 669 182 631 q 454 708 350 708 q 634 662 569 708 q 699 529 699 615 q 591 340 699 413 q 350 267 483 267 q 276 274 314 267 q 446 172 279 172 q 496 176 475 172 q 500 200 496 188 q 632 250 561 250 q 653 249 646 250 q 765 85 744 199 q 755 61 764 74 q 736 40 746 49 q 708 19 726 31 q 680 1 690 7 q 649 -15 669 -4 q 626 -28 629 -26 q 613 -26 618 -28 q 602 -19 607 -24 q 596 -12 597 -14 q 590 -1 594 -10 q 585 10 586 8 q 425 -19 507 -19 q 135 76 239 -19 q 32 308 32 172 m 218 824 q 236 856 222 831 q 256 890 250 881 q 275 921 261 900 q 299 955 289 942 q 324 986 308 968 q 356 1019 339 1004 q 410 1040 383 1040 q 472 1019 438 1040 q 610 824 549 947 q 572 813 590 813 q 532 824 554 813 q 414 922 451 865 q 296 824 357 851 q 257 815 275 815 q 218 824 236 815 m 303 453 q 369 407 303 407 q 465 431 419 407 q 511 489 511 454 q 495 538 511 513 q 444 564 479 564 q 352 529 401 564 q 303 453 303 494 z "},"":{"ha":774,"x_min":32,"x_max":765,"o":"m 32 308 q 58 442 32 374 q 133 570 83 510 q 266 669 182 631 q 454 708 350 708 q 634 662 569 708 q 699 529 699 615 q 591 340 699 413 q 350 267 483 267 q 276 274 314 267 q 446 172 279 172 q 496 176 475 172 q 500 200 496 188 q 632 250 561 250 q 653 249 646 250 q 765 85 744 199 q 755 61 764 74 q 736 40 746 49 q 708 19 726 31 q 680 1 690 7 q 649 -15 669 -4 q 626 -28 629 -26 q 613 -26 618 -28 q 602 -19 607 -24 q 596 -12 597 -14 q 590 -1 594 -10 q 585 10 586 8 q 425 -19 507 -19 q 135 76 239 -19 q 32 308 32 172 m 181 931 q 206 1007 181 971 q 272 1031 238 1031 q 343 1007 307 1031 q 367 928 367 969 q 343 842 367 886 q 269 815 303 815 q 206 842 236 815 q 181 931 181 889 m 303 453 q 369 407 303 407 q 465 431 419 407 q 511 489 511 454 q 495 538 511 513 q 444 564 479 564 q 352 529 401 564 q 303 453 303 494 m 444 931 q 469 1007 444 971 q 536 1031 501 1031 q 607 1007 571 1031 q 631 928 631 969 q 607 842 631 886 q 533 815 567 815 q 469 842 500 815 q 444 931 444 889 z "},"":{"ha":525,"x_min":29,"x_max":496,"o":"m 29 119 q 57 193 29 172 q 106 207 72 203 q 138 211 133 211 q 122 417 122 372 q 136 544 122 514 q 74 550 96 544 q 63 601 63 579 q 100 700 63 644 q 293 710 151 710 q 388 704 342 710 q 459 691 433 699 q 485 676 485 683 q 496 624 496 660 q 472 525 496 554 q 440 518 467 518 q 389 525 403 518 q 374 274 374 428 q 378 206 374 208 q 401 207 386 207 q 468 192 438 207 q 474 156 474 182 q 463 74 474 115 q 436 18 453 33 q 313 0 418 0 q 57 38 96 0 q 29 119 29 57 m 49 1001 q 161 1038 100 1038 q 199 1035 188 1038 q 318 825 261 967 q 283 814 303 814 q 235 825 268 814 q 49 1001 106 904 z "},"":{"ha":525,"x_min":29,"x_max":513,"o":"m 29 119 q 57 193 29 172 q 106 207 72 203 q 138 211 133 211 q 122 417 122 372 q 136 544 122 514 q 74 550 96 544 q 63 601 63 579 q 100 700 63 644 q 293 710 151 710 q 388 704 342 710 q 459 691 433 699 q 485 676 485 683 q 496 624 496 660 q 472 525 496 554 q 440 518 467 518 q 389 525 403 518 q 374 274 374 428 q 378 206 374 208 q 401 207 386 207 q 468 192 438 207 q 474 156 474 182 q 463 74 474 115 q 436 18 453 33 q 313 0 418 0 q 57 38 96 0 q 29 119 29 57 m 243 826 q 361 1036 300 971 q 400 1039 386 1039 q 513 1003 461 1039 q 326 826 456 906 q 278 815 293 815 q 243 826 258 815 z "},"":{"ha":525,"x_min":29,"x_max":496,"o":"m 29 119 q 57 193 29 172 q 106 207 72 203 q 138 211 133 211 q 122 417 122 372 q 136 544 122 514 q 74 550 96 544 q 63 601 63 579 q 100 700 63 644 q 293 710 151 710 q 388 704 342 710 q 459 691 433 699 q 485 676 485 683 q 496 624 496 660 q 472 525 496 554 q 440 518 467 518 q 389 525 403 518 q 374 274 374 428 q 378 206 374 208 q 401 207 386 207 q 468 192 438 207 q 474 156 474 182 q 463 74 474 115 q 436 18 453 33 q 313 0 418 0 q 57 38 96 0 q 29 119 29 57 m 85 824 q 103 856 89 831 q 122 890 117 881 q 142 921 128 900 q 165 955 156 942 q 190 986 175 968 q 222 1019 206 1004 q 276 1040 250 1040 q 339 1019 304 1040 q 476 824 415 947 q 439 813 457 813 q 399 824 421 813 q 281 922 318 865 q 163 824 224 851 q 124 815 142 815 q 85 824 103 815 z "},"":{"ha":525,"x_min":29,"x_max":511,"o":"m 29 119 q 57 193 29 172 q 106 207 69 201 q 138 211 133 211 q 122 417 122 372 q 136 544 122 514 q 74 550 96 544 q 63 601 63 579 q 100 700 63 644 q 293 710 151 710 q 388 704 342 710 q 459 691 433 699 q 485 676 485 683 q 496 624 496 660 q 472 525 496 554 q 440 518 467 518 q 389 525 403 518 q 374 274 374 428 q 378 206 374 208 q 401 207 386 207 q 468 192 438 207 q 474 156 474 182 q 463 73 474 113 q 436 18 453 33 q 313 0 418 0 q 57 38 96 0 q 29 119 29 57 m 61 931 q 86 1007 61 971 q 153 1031 118 1031 q 224 1007 188 1031 q 247 928 247 969 q 224 842 247 886 q 150 815 183 815 q 86 842 117 815 q 61 931 61 889 m 325 931 q 350 1007 325 971 q 417 1031 382 1031 q 488 1007 451 1031 q 511 928 511 969 q 488 842 511 886 q 414 815 447 815 q 350 842 381 815 q 325 931 325 889 z "},"":{"ha":765,"x_min":32,"x_max":728,"o":"m 32 275 q 76 460 32 368 q 205 619 119 551 q 399 703 290 688 q 326 760 351 746 q 273 717 308 744 q 232 686 238 690 q 176 729 176 693 q 177 736 176 733 q 178 742 178 739 q 222 803 206 783 q 129 815 181 814 q 125 829 125 822 q 138 872 125 849 q 161 899 150 896 q 221 901 200 901 q 307 894 261 901 q 418 982 378 957 q 457 967 442 981 q 472 931 472 953 q 429 860 460 899 q 647 675 567 801 q 728 389 728 549 q 625 97 728 208 q 346 -14 522 -14 q 113 69 193 -14 q 32 275 32 151 m 300 314 q 326 239 300 271 q 396 207 353 207 q 500 257 451 207 q 549 372 549 307 q 521 451 549 419 q 449 482 493 482 q 344 427 388 482 q 300 314 300 372 z "},"":{"ha":996,"x_min":39,"x_max":976,"o":"m 39 104 q 76 204 39 185 q 114 217 93 217 q 135 214 121 217 q 132 344 135 254 q 129 479 129 433 q 113 476 124 479 q 94 472 101 472 q 78 475 89 472 q 61 478 67 478 q 56 507 56 483 q 67 601 56 544 q 88 669 78 657 q 154 687 101 678 q 261 696 207 696 q 375 679 331 696 q 385 647 385 671 q 378 597 385 639 q 653 708 526 708 q 829 631 763 708 q 896 393 896 553 q 886 240 896 367 q 899 243 886 243 q 964 236 919 243 q 976 146 976 222 q 963 28 976 50 q 772 0 858 0 q 606 25 676 0 q 585 74 596 32 q 574 147 574 117 q 599 226 574 193 q 638 236 614 236 q 647 235 644 236 q 653 231 650 233 q 661 228 657 229 q 669 304 669 269 q 632 428 669 385 q 540 471 594 471 q 438 422 482 471 q 394 288 394 372 q 403 214 394 253 q 446 224 419 224 q 476 217 471 224 q 490 161 490 217 q 476 47 490 149 q 232 0 372 0 q 51 39 79 0 q 39 104 39 56 m 217 867 q 258 991 229 957 q 346 1025 286 1025 q 467 992 400 1025 q 578 958 533 958 q 614 971 604 958 q 635 1031 624 983 q 650 1033 639 1033 q 699 1013 672 1033 q 743 971 726 993 q 701 847 731 881 q 615 813 672 813 q 497 846 565 813 q 378 879 428 879 q 344 867 354 879 q 325 808 335 856 q 303 801 314 801 q 254 821 281 801 q 217 867 228 840 z "},"":{"ha":760,"x_min":32,"x_max":724,"o":"m 32 274 q 84 475 32 376 q 234 641 136 574 q 449 708 332 708 q 657 613 590 708 q 724 371 724 517 q 619 84 724 182 q 350 -14 515 -14 q 113 68 194 -14 q 32 274 32 150 m 228 1001 q 340 1038 279 1038 q 378 1035 367 1038 q 497 825 440 967 q 463 814 482 814 q 414 825 447 814 q 228 1001 285 904 m 300 314 q 326 239 300 271 q 396 207 353 207 q 500 257 451 207 q 549 372 549 307 q 521 451 549 419 q 449 482 493 482 q 344 427 388 482 q 300 314 300 372 z "},"":{"ha":760,"x_min":32,"x_max":724,"o":"m 32 274 q 84 475 32 376 q 234 641 136 574 q 449 708 332 708 q 657 613 590 708 q 724 371 724 517 q 619 84 724 182 q 350 -14 515 -14 q 113 68 194 -14 q 32 274 32 150 m 300 314 q 326 239 300 271 q 396 207 353 207 q 500 257 451 207 q 549 372 549 307 q 521 451 549 419 q 449 482 493 482 q 344 427 388 482 q 300 314 300 372 m 367 826 q 485 1036 424 971 q 524 1039 510 1039 q 636 1003 585 1039 q 450 826 579 906 q 401 815 417 815 q 367 826 382 815 z "},"":{"ha":760,"x_min":32,"x_max":724,"o":"m 32 274 q 84 475 32 376 q 234 641 136 574 q 449 708 332 708 q 657 613 590 708 q 724 371 724 517 q 619 84 724 182 q 350 -14 515 -14 q 113 68 194 -14 q 32 274 32 150 m 236 824 q 254 856 240 831 q 274 890 268 881 q 293 921 279 900 q 317 955 307 942 q 342 986 326 968 q 374 1019 357 1004 q 428 1040 400 1040 q 490 1019 456 1040 q 628 824 567 947 q 590 813 608 813 q 550 824 572 813 q 432 922 469 865 q 314 824 375 851 q 275 815 293 815 q 236 824 256 815 m 300 314 q 326 239 300 271 q 396 207 353 207 q 500 257 451 207 q 549 372 549 307 q 521 451 549 419 q 449 482 493 482 q 344 427 388 482 q 300 314 300 372 z "},"":{"ha":760,"x_min":32,"x_max":724,"o":"m 32 274 q 84 475 32 376 q 234 641 136 574 q 449 708 332 708 q 657 613 590 708 q 724 371 724 517 q 619 84 724 182 q 350 -14 515 -14 q 113 68 194 -14 q 32 274 32 150 m 169 867 q 210 991 182 957 q 299 1025 239 1025 q 419 992 353 1025 q 531 958 486 958 q 567 971 557 958 q 588 1031 576 983 q 603 1033 592 1033 q 652 1013 625 1033 q 696 971 679 993 q 654 847 683 881 q 568 813 625 813 q 449 846 518 813 q 331 879 381 879 q 297 867 307 879 q 278 808 288 856 q 256 801 267 801 q 207 821 233 801 q 169 867 181 840 m 300 314 q 326 239 300 271 q 396 207 353 207 q 500 257 451 207 q 549 372 549 307 q 521 451 549 419 q 449 482 493 482 q 344 427 388 482 q 300 314 300 372 z "},"":{"ha":760,"x_min":32,"x_max":724,"o":"m 32 274 q 84 475 32 376 q 234 641 136 574 q 449 708 332 708 q 657 613 590 708 q 724 371 724 517 q 619 84 724 182 q 350 -14 515 -14 q 113 68 194 -14 q 32 274 32 150 m 199 931 q 224 1007 199 971 q 290 1031 256 1031 q 361 1007 325 1031 q 385 928 385 969 q 361 842 385 886 q 288 815 321 815 q 224 842 254 815 q 199 931 199 889 m 300 314 q 326 239 300 271 q 396 207 353 207 q 500 257 451 207 q 549 372 549 307 q 521 451 549 419 q 449 482 493 482 q 344 427 388 482 q 300 314 300 372 m 463 931 q 488 1007 463 971 q 554 1031 519 1031 q 625 1007 589 1031 q 649 928 649 969 q 625 842 649 886 q 551 815 585 815 q 488 842 518 815 q 463 931 463 889 z "},"":{"ha":886,"x_min":44,"x_max":842,"o":"m 44 367 q 63 421 44 394 q 526 436 192 436 q 665 433 606 436 q 765 426 724 431 q 821 421 807 421 q 842 367 842 396 q 821 300 842 338 q 681 287 815 292 q 451 282 546 282 q 63 300 329 282 q 44 367 44 336 m 342 111 q 372 204 342 160 q 453 233 411 233 q 538 204 493 233 q 567 107 567 160 q 538 4 567 56 q 450 -29 490 -29 q 372 4 410 -29 q 342 111 342 58 m 342 625 q 372 718 342 674 q 453 747 411 747 q 538 718 493 747 q 567 621 567 674 q 538 518 567 569 q 450 485 490 485 q 372 518 410 485 q 342 625 342 572 z "},"":{"ha":761,"x_min":32,"x_max":724,"o":"m 32 274 q 84 475 32 376 q 234 641 136 574 q 449 708 332 708 q 574 682 518 708 l 599 708 q 639 721 624 721 q 672 694 661 721 l 649 624 q 724 371 724 533 q 619 84 724 182 q 353 -14 515 -14 q 275 -7 314 -14 q 243 -43 274 -8 q 201 -64 218 -64 q 169 -28 178 -64 l 185 19 q 71 122 110 54 q 32 274 32 190 m 300 313 q 318 250 300 276 q 450 482 376 369 q 344 426 388 482 q 300 313 300 371 m 408 207 q 505 262 461 214 q 549 369 549 310 q 535 431 549 403 q 408 207 475 308 z "},"":{"ha":996,"x_min":19,"x_max":960,"o":"m 19 549 q 33 667 19 644 q 224 694 138 694 q 390 669 319 694 q 411 620 400 663 q 422 547 422 578 q 397 468 422 501 q 358 458 382 458 q 349 460 351 458 q 342 463 346 461 q 335 467 339 465 q 326 390 326 425 q 364 267 326 310 q 456 224 401 224 q 558 273 514 224 q 601 407 601 322 q 593 481 601 442 q 543 469 574 469 q 519 478 525 469 q 496 563 496 486 q 519 647 496 633 q 774 696 624 696 q 942 654 901 696 q 960 601 960 635 q 919 490 960 515 q 882 478 903 478 q 861 481 875 478 q 864 351 861 440 q 867 215 867 261 q 913 218 906 218 q 935 217 926 218 q 940 188 940 211 q 929 94 940 150 q 908 25 918 38 q 836 6 893 17 q 724 -4 779 -4 q 624 13 657 -4 q 611 50 611 21 q 618 97 611 56 q 343 -14 469 -14 q 167 64 233 -14 q 100 301 100 142 q 110 454 100 328 q 97 451 110 451 q 32 458 78 451 q 19 549 19 472 m 238 1001 q 350 1038 289 1038 q 388 1035 376 1038 q 507 825 450 967 q 472 814 492 814 q 424 825 457 814 q 238 1001 294 904 z "},"":{"ha":996,"x_min":19,"x_max":960,"o":"m 19 549 q 33 667 19 644 q 224 694 138 694 q 390 669 319 694 q 411 620 400 663 q 422 547 422 578 q 397 468 422 501 q 358 458 382 458 q 349 460 351 458 q 342 463 346 461 q 335 467 339 465 q 326 390 326 425 q 364 267 326 310 q 456 224 401 224 q 558 273 514 224 q 601 407 601 322 q 593 481 601 442 q 543 469 574 469 q 519 478 525 469 q 496 563 496 486 q 519 647 496 633 q 774 696 624 696 q 942 654 901 696 q 960 601 960 635 q 919 490 960 515 q 882 478 903 478 q 861 481 875 478 q 864 351 861 440 q 867 215 867 261 q 913 218 906 218 q 935 217 926 218 q 940 188 940 211 q 929 94 940 150 q 908 25 918 38 q 836 6 893 17 q 724 -4 779 -4 q 624 13 657 -4 q 611 50 611 21 q 618 97 611 56 q 343 -14 469 -14 q 167 64 233 -14 q 100 301 100 142 q 110 454 100 328 q 97 451 110 451 q 32 458 78 451 q 19 549 19 472 m 419 826 q 538 1036 476 971 q 576 1039 563 1039 q 689 1003 638 1039 q 503 826 632 906 q 454 815 469 815 q 419 826 435 815 z "},"":{"ha":996,"x_min":19,"x_max":960,"o":"m 19 549 q 33 667 19 644 q 224 694 138 694 q 390 669 319 694 q 411 620 400 663 q 422 547 422 578 q 397 468 422 501 q 358 458 382 458 q 349 460 351 458 q 342 463 346 461 q 335 467 339 465 q 326 390 326 425 q 364 267 326 310 q 456 224 401 224 q 558 273 514 224 q 601 407 601 322 q 593 481 601 442 q 543 469 574 469 q 519 478 525 469 q 496 563 496 486 q 519 647 496 633 q 774 696 624 696 q 942 654 901 696 q 960 601 960 635 q 919 490 960 515 q 882 478 903 478 q 861 481 875 478 q 864 351 861 440 q 867 215 867 261 q 913 218 906 218 q 935 217 926 218 q 940 188 940 211 q 929 94 940 150 q 908 25 918 38 q 836 6 893 17 q 724 -4 779 -4 q 624 13 657 -4 q 611 50 611 21 q 618 97 611 56 q 343 -14 469 -14 q 167 64 233 -14 q 100 301 100 142 q 110 454 100 328 q 97 451 110 451 q 32 458 78 451 q 19 549 19 472 m 267 824 q 285 856 271 831 q 304 890 299 881 q 324 921 310 900 q 347 955 338 942 q 372 986 357 968 q 404 1019 388 1004 q 458 1040 431 1040 q 521 1019 486 1040 q 658 824 597 947 q 621 813 639 813 q 581 824 603 813 q 463 922 500 865 q 344 824 406 851 q 306 815 324 815 q 267 824 286 815 z "},"":{"ha":996,"x_min":19,"x_max":960,"o":"m 19 549 q 33 667 19 644 q 224 694 138 694 q 390 669 319 694 q 411 620 400 663 q 422 547 422 578 q 397 468 422 501 q 358 458 382 458 q 349 460 351 458 q 342 463 346 461 q 335 467 339 465 q 326 390 326 425 q 364 267 326 310 q 456 224 401 224 q 558 273 514 224 q 601 407 601 322 q 593 481 601 442 q 543 469 574 469 q 519 478 525 469 q 496 563 496 486 q 519 647 496 633 q 774 696 624 696 q 942 654 901 696 q 960 601 960 635 q 919 490 960 515 q 882 478 903 478 q 861 481 875 478 q 864 351 861 440 q 867 215 867 261 q 913 218 906 218 q 935 217 926 218 q 940 188 940 211 q 929 94 940 150 q 908 25 918 38 q 836 6 893 17 q 724 -4 779 -4 q 624 13 657 -4 q 611 50 611 21 q 618 97 611 56 q 343 -14 469 -14 q 167 64 233 -14 q 100 301 100 142 q 110 454 100 328 q 97 451 110 451 q 32 458 78 451 q 19 549 19 472 m 236 931 q 261 1007 236 971 q 328 1031 293 1031 q 399 1007 363 1031 q 422 928 422 969 q 399 842 422 886 q 325 815 358 815 q 261 842 292 815 q 236 931 236 889 m 500 931 q 525 1007 500 971 q 592 1031 557 1031 q 663 1007 626 1031 q 686 928 686 969 q 663 842 686 886 q 589 815 622 815 q 525 842 556 815 q 500 931 500 889 z "},"":{"ha":990,"x_min":-21,"x_max":964,"o":"m -21 -287 q -1 -134 -21 -229 q 33 -25 19 -39 q 71 -18 50 -18 q 176 -50 131 -18 q 179 -71 179 -50 q 178 -93 179 -85 q 231 -106 197 -97 q 280 -118 264 -114 q 320 -126 296 -122 q 365 -133 344 -131 q 410 -135 386 -135 q 576 -82 525 -135 q 639 97 628 -29 q 339 -14 489 -14 q 103 325 103 -14 q 111 467 103 403 q 99 465 110 465 q 33 472 78 465 q 17 569 17 501 q 35 681 17 649 q 225 708 139 708 q 392 683 321 708 q 424 578 424 647 q 399 482 424 515 q 360 472 383 472 q 350 474 353 472 q 344 477 347 475 q 336 481 340 479 q 328 390 328 439 q 365 267 328 310 q 457 224 403 224 q 559 273 515 224 q 603 407 603 322 q 594 481 603 442 q 551 471 578 471 q 521 478 526 471 q 499 560 499 486 q 521 647 499 635 q 765 694 588 694 q 960 663 919 694 q 964 607 964 646 q 949 510 964 526 q 910 497 936 497 q 864 511 892 497 q 872 414 865 481 q 882 285 878 347 q 886 168 886 222 q 856 -82 886 24 q 771 -247 825 -187 q 653 -333 717 -306 q 513 -360 589 -360 q 390 -358 435 -360 q 276 -342 346 -356 q 150 -301 206 -329 q 135 -347 138 -347 q 61 -354 126 -354 q -14 -340 -1 -354 q -21 -287 -21 -331 m 417 826 q 535 1036 474 971 q 574 1039 560 1039 q 686 1003 635 1039 q 500 826 629 906 q 451 815 467 815 q 417 826 432 815 z "},"":{"ha":814,"x_min":-22,"x_max":779,"o":"m -22 -201 q -17 -122 -22 -135 q 14 -104 -10 -111 q 60 -97 38 -97 q 83 -100 72 -97 q 78 264 78 54 q 81 575 78 374 q 83 847 83 776 q 60 844 72 844 q 14 851 38 844 q -17 869 -10 858 q -22 949 -22 885 q -17 1026 -22 1011 l -8 1032 q 42 1045 1 1038 q 144 1053 83 1053 q 363 1011 314 1053 q 369 860 369 997 q 367 749 369 801 q 365 694 365 697 q 474 711 424 711 q 697 602 614 711 q 779 353 779 493 q 752 191 779 272 q 667 49 725 110 q 533 -11 608 -11 q 481 -3 504 -11 q 419 24 457 4 q 365 53 382 44 q 369 -112 369 -26 q 363 -264 369 -250 q 144 -306 314 -306 q 42 -298 83 -306 q -8 -285 1 -290 l -17 -279 q -22 -201 -22 -267 m 329 400 q 378 285 329 335 q 482 235 426 235 q 551 267 525 235 q 578 342 578 299 q 534 455 578 400 q 429 510 490 510 q 357 478 385 510 q 329 400 329 447 z "},"":{"ha":990,"x_min":-21,"x_max":964,"o":"m -21 -287 q -1 -134 -21 -229 q 33 -25 19 -39 q 71 -18 50 -18 q 176 -50 131 -18 q 179 -71 179 -50 q 178 -93 179 -85 q 231 -106 197 -97 q 280 -118 264 -114 q 320 -126 296 -122 q 365 -133 344 -131 q 410 -135 386 -135 q 576 -82 525 -135 q 639 97 628 -29 q 339 -14 489 -14 q 103 325 103 -14 q 111 467 103 403 q 99 465 110 465 q 33 472 78 465 q 17 569 17 501 q 35 681 17 649 q 225 708 139 708 q 392 683 321 708 q 424 578 424 647 q 399 482 424 515 q 360 472 383 472 q 350 474 353 472 q 344 477 347 475 q 336 481 340 479 q 328 390 328 439 q 365 267 328 310 q 457 224 403 224 q 559 273 515 224 q 603 407 603 322 q 594 481 603 442 q 551 471 578 471 q 521 478 526 471 q 499 560 499 486 q 521 647 499 635 q 765 694 588 694 q 960 663 919 694 q 964 607 964 646 q 949 510 964 526 q 910 497 936 497 q 864 511 892 497 q 872 414 865 481 q 882 285 878 347 q 886 168 886 222 q 856 -82 886 24 q 771 -247 825 -187 q 653 -333 717 -306 q 513 -360 589 -360 q 390 -358 435 -360 q 276 -342 346 -356 q 150 -301 206 -329 q 135 -347 138 -347 q 61 -354 126 -354 q -14 -340 -1 -354 q -21 -287 -21 -329 m 240 931 q 265 1007 240 971 q 332 1031 297 1031 q 403 1007 367 1031 q 426 928 426 969 q 403 842 426 886 q 329 815 363 815 q 265 842 296 815 q 240 931 240 889 m 504 931 q 529 1007 504 971 q 596 1031 561 1031 q 667 1007 631 1031 q 690 928 690 969 q 667 842 690 886 q 593 815 626 815 q 529 842 560 815 q 504 931 504 889 z "},"":{"ha":1275,"x_min":43,"x_max":1222,"o":"m 43 436 q 100 685 43 578 q 260 858 157 793 q 498 956 363 924 q 799 989 633 989 q 1208 936 1053 989 q 1222 817 1222 894 q 1190 653 1222 758 q 1125 644 1157 644 q 975 690 1044 644 l 979 736 q 876 754 953 754 q 786 742 792 754 q 774 568 781 628 q 828 572 826 568 q 826 585 826 576 q 839 622 826 600 q 876 629 849 629 q 947 620 910 629 q 985 600 985 611 q 996 531 996 581 q 987 440 996 485 q 964 381 978 394 q 899 371 953 371 q 836 381 844 371 q 824 422 824 397 l 767 415 q 751 257 767 403 q 871 217 800 217 q 979 242 932 217 l 975 288 q 1125 333 1044 333 q 1190 325 1157 333 q 1222 161 1222 219 q 1208 42 1222 83 q 688 -21 956 -21 q 483 -9 575 -21 q 308 35 392 3 q 167 117 224 67 q 76 248 110 167 q 43 436 43 329 m 317 435 q 372 307 317 360 q 524 244 426 254 q 521 369 521 283 q 533 743 521 621 q 377 608 438 699 q 317 435 317 517 z "},"":{"ha":1233,"x_min":32,"x_max":1224,"o":"m 32 274 q 83 475 32 376 q 233 641 135 574 q 451 708 332 708 q 667 597 593 708 q 935 708 778 708 q 1102 655 1043 708 q 1161 518 1161 601 q 1076 347 1161 415 q 886 279 990 279 q 763 315 813 279 q 808 210 765 249 q 914 172 851 172 q 954 176 933 172 q 958 200 954 188 q 1090 250 1019 250 q 1111 249 1104 250 q 1224 85 1203 199 q 1213 61 1222 74 q 1194 40 1204 49 q 1167 19 1185 31 q 1138 1 1149 7 q 1108 -15 1128 -4 q 1085 -28 1088 -26 q 1071 -26 1076 -28 q 1060 -19 1065 -24 q 1054 -12 1056 -14 q 1049 -1 1053 -10 q 1043 10 1044 8 q 890 -19 967 -19 q 625 90 728 -19 q 350 -14 525 -14 q 113 68 193 -14 q 32 274 32 150 m 300 313 q 326 238 300 269 q 399 207 353 207 q 504 260 460 207 q 549 374 549 314 q 522 450 549 418 q 449 482 494 482 q 344 427 388 482 q 300 313 300 372 m 803 453 q 869 407 803 407 q 965 431 919 407 q 1011 489 1011 454 q 995 538 1011 513 q 944 564 979 564 q 852 529 901 564 q 803 453 803 494 z "},"":{"ha":843,"x_min":53,"x_max":800,"o":"m 53 640 q 156 889 53 792 q 399 986 260 986 q 586 936 497 986 q 615 994 594 978 q 682 1008 642 1008 q 771 983 746 1008 q 779 886 779 958 q 722 688 779 700 q 676 681 699 681 q 594 701 625 681 q 586 747 586 722 q 481 786 539 786 q 375 744 421 786 q 329 653 329 703 q 450 571 329 571 q 519 572 463 571 q 588 574 575 574 q 739 522 678 574 q 800 350 800 471 q 692 88 800 190 q 415 -14 583 -14 q 247 38 318 -14 q 233 -14 247 3 q 151 -28 208 -28 q 68 -7 90 -28 q 60 93 60 44 q 119 326 60 222 q 171 336 144 336 q 246 313 222 336 q 256 260 253 294 q 368 213 296 213 q 485 240 442 213 q 528 313 528 268 q 515 353 528 338 q 474 377 501 369 q 427 387 446 385 q 375 390 408 389 q 319 394 340 392 q 260 403 299 396 q 198 419 222 410 q 143 448 174 429 q 95 491 113 467 q 65 554 78 515 q 53 640 53 593 m 229 1293 q 268 1301 247 1301 q 307 1293 286 1301 q 425 1194 368 1265 q 543 1293 463 1251 q 583 1304 565 1304 q 621 1293 601 1304 q 483 1097 560 1169 q 421 1076 449 1076 q 367 1097 394 1076 q 335 1131 350 1113 q 310 1162 319 1149 q 286 1196 300 1175 q 267 1226 272 1217 q 247 1261 261 1236 q 229 1293 233 1286 z "},"":{"ha":711,"x_min":22,"x_max":679,"o":"m 22 42 q 35 121 24 82 q 76 194 46 160 q 147 228 106 228 q 223 213 182 228 q 264 171 264 199 q 261 154 264 165 q 329 138 311 138 q 385 162 361 138 q 410 221 410 186 q 384 271 410 254 q 319 289 358 288 q 234 297 279 290 q 149 316 189 304 q 84 367 110 328 q 58 469 58 406 q 106 611 58 556 q 217 686 153 667 q 363 706 282 706 q 499 693 424 706 q 531 724 513 718 q 667 654 633 714 q 653 576 664 614 q 613 503 643 538 q 540 468 583 468 q 465 483 506 468 q 425 525 425 497 q 428 542 425 531 q 375 553 394 553 q 318 529 342 553 q 294 478 294 506 q 334 429 294 444 q 430 408 374 414 q 543 392 486 403 q 640 341 600 381 q 679 231 679 301 q 576 51 679 111 q 332 -10 474 -10 q 190 3 265 -10 q 158 -28 176 -22 q 22 42 56 -18 m 147 1032 q 186 1040 167 1040 q 225 1032 204 1040 q 343 933 286 1004 q 461 1032 381 990 q 501 1043 483 1043 q 539 1032 519 1043 q 401 836 478 908 q 339 815 367 815 q 285 836 311 815 q 253 869 268 851 q 228 901 238 888 q 204 935 218 914 q 185 965 190 956 q 165 1000 179 975 q 147 1032 151 1025 z "},"":{"ha":944,"x_min":6,"x_max":942,"o":"m 6 840 q 368 975 126 936 q 396 921 369 975 q 422 833 422 861 q 388 810 422 826 q 344 797 363 797 q 481 614 364 738 q 553 697 514 633 q 603 797 592 761 q 560 810 586 797 q 525 832 526 825 q 551 921 525 863 q 579 975 578 975 q 780 934 669 975 q 942 840 890 893 q 926 767 932 786 q 903 693 914 722 q 844 714 876 699 q 812 661 838 703 q 768 596 786 619 q 709 533 750 572 q 617 460 668 493 q 606 329 610 428 q 600 210 603 231 q 676 190 640 210 q 682 146 682 181 q 664 11 682 47 q 467 -1 647 -1 q 246 21 261 -1 q 240 90 240 35 q 251 193 240 182 q 332 210 286 210 q 318 460 322 438 q 174 597 236 513 q 103 714 113 681 q 44 693 71 699 q 19 768 32 724 q 6 840 11 794 m 269 1208 q 294 1285 269 1249 q 361 1308 326 1308 q 432 1285 396 1308 q 456 1206 456 1247 q 432 1119 456 1164 q 358 1093 392 1093 q 294 1119 325 1093 q 269 1208 269 1167 m 506 1208 q 531 1285 506 1249 q 597 1308 563 1308 q 668 1285 632 1308 q 692 1206 692 1247 q 668 1119 692 1164 q 594 1093 628 1093 q 531 1119 561 1093 q 506 1208 506 1167 z "},"":{"ha":1050,"x_min":26,"x_max":1008,"o":"m 26 -28 q 68 206 26 107 q 178 365 110 304 q 318 469 247 425 q 466 569 389 514 q 585 682 543 624 q 567 690 583 682 q 519 706 551 697 q 451 714 488 714 q 314 707 328 714 q 315 694 315 701 q 296 650 315 681 q 189 628 238 628 q 103 651 140 628 q 72 796 72 690 q 77 902 72 864 q 88 950 82 940 q 103 968 93 960 q 201 974 114 974 q 331 958 325 974 q 340 951 339 957 q 343 933 343 946 q 588 939 485 939 q 753 935 699 939 q 765 964 757 960 q 897 978 771 978 q 993 972 986 978 q 923 726 983 847 q 777 515 863 606 q 609 361 692 425 q 451 258 526 297 q 539 254 489 254 q 757 283 679 254 q 756 306 756 290 q 775 365 756 329 q 878 375 796 375 q 972 365 954 375 q 999 288 990 356 q 1008 163 1008 221 q 999 64 1008 111 q 981 -4 989 17 q 968 -28 972 -25 q 872 -32 960 -32 q 740 -18 746 -32 q 728 40 733 -17 q 607 7 653 15 q 465 -1 561 -1 q 265 7 361 -1 q 254 -18 264 -15 q 125 -33 249 -33 q 26 -28 38 -33 m 358 1314 q 397 1322 378 1322 q 436 1314 415 1322 q 554 1215 497 1286 q 672 1314 592 1272 q 713 1325 694 1325 q 750 1314 731 1325 q 613 1118 689 1190 q 550 1097 578 1097 q 496 1118 522 1097 q 464 1151 479 1133 q 439 1183 449 1169 q 415 1217 429 1196 q 396 1247 401 1238 q 376 1282 390 1257 q 358 1314 363 1307 z "},"":{"ha":847,"x_min":18,"x_max":807,"o":"m 18 40 q 147 268 19 131 q 453 511 275 406 q 354 535 413 535 q 244 494 281 535 q 249 461 249 482 q 244 442 249 447 q 175 429 219 429 q 82 451 118 429 q 63 565 63 469 q 82 685 63 672 q 168 694 121 694 q 257 685 214 694 q 267 654 265 683 q 486 697 319 697 q 800 664 643 697 q 652 428 799 582 q 393 207 506 275 q 457 197 424 197 q 615 243 514 197 q 614 254 614 247 q 629 306 614 278 q 707 317 656 317 q 781 306 756 317 q 807 178 807 286 q 799 62 807 115 q 778 4 790 8 q 706 0 765 0 q 603 11 608 0 q 593 56 596 13 q 456 14 557 28 q 263 0 354 0 q 18 40 90 0 m 243 1029 q 282 1038 261 1038 q 321 1029 300 1038 q 439 931 382 1001 q 557 1029 476 988 q 597 1040 579 1040 q 635 1029 615 1040 q 497 833 574 906 q 435 813 463 813 q 381 833 408 813 q 349 867 364 849 q 324 898 333 885 q 300 932 314 911 q 281 963 286 953 q 261 997 275 972 q 243 1029 247 1022 z "},"":{"ha":606,"x_min":-28,"x_max":632,"o":"m -28 -142 q 15 -18 -28 -47 q 83 -3 40 -3 q 129 -8 113 -3 q 125 363 125 267 q 119 362 124 363 q 106 361 114 361 l 88 361 q 29 367 68 361 q 24 401 24 372 q 42 531 24 507 q 124 549 63 542 q 114 664 114 608 q 178 857 114 801 q 353 913 242 913 q 614 876 425 913 q 632 747 632 853 q 618 653 632 693 l 490 682 l 499 711 q 474 713 490 713 q 363 603 363 713 q 363 576 363 594 q 364 553 364 558 l 422 553 q 457 553 447 553 q 468 554 467 554 q 529 549 490 554 q 535 514 535 543 q 517 385 535 408 q 374 365 492 369 q 386 -53 386 100 q 382 -222 386 -142 q 183 -242 315 -242 q -14 -222 42 -242 q -28 -142 -28 -190 z "},"":{"ha":1157,"x_min":239,"x_max":631,"o":"m 239 824 q 257 856 243 831 q 276 890 271 881 q 296 921 282 900 q 319 955 310 942 q 344 986 329 968 q 376 1019 360 1004 q 431 1040 403 1040 q 493 1019 458 1040 q 631 824 569 947 q 593 813 611 813 q 553 824 575 813 q 435 922 472 865 q 317 824 378 851 q 278 815 296 815 q 239 824 258 815 z "},"":{"ha":1157,"x_min":158,"x_max":685,"o":"m 158 867 q 199 991 171 957 q 288 1025 228 1025 q 408 992 342 1025 q 519 958 475 958 q 556 971 546 958 q 576 1031 565 983 q 592 1033 581 1033 q 641 1013 614 1033 q 685 971 668 993 q 643 847 672 881 q 557 813 614 813 q 438 846 507 813 q 319 879 369 879 q 286 867 296 879 q 267 808 276 856 q 244 801 256 801 q 196 821 222 801 q 158 867 169 840 z "},"":{"ha":679,"x_min":60,"x_max":621,"o":"m 60 386 q 78 440 60 414 q 379 456 192 456 q 600 440 529 456 q 621 386 621 415 q 600 319 621 357 q 385 301 536 301 q 78 319 199 301 q 60 386 60 356 z "},"":{"ha":915,"x_min":60,"x_max":857,"o":"m 60 385 q 78 439 60 413 q 542 454 208 454 q 680 451 621 454 q 781 444 739 449 q 836 439 822 439 q 857 385 857 414 q 836 318 857 356 q 696 305 831 310 q 467 300 561 300 q 78 318 344 300 q 60 385 60 354 z "},"":{"ha":328,"x_min":28,"x_max":285,"o":"m 28 564 q 179 868 57 718 q 264 911 231 911 q 285 910 278 911 q 231 589 282 713 q 99 553 163 553 q 28 564 72 553 z "},"":{"ha":325,"x_min":51,"x_max":308,"o":"m 51 554 q 106 875 54 751 q 238 911 174 911 q 308 900 264 911 q 157 596 279 746 q 72 553 106 553 q 51 554 58 553 z "},"":{"ha":289,"x_min":-19,"x_max":250,"o":"m -19 -100 q 99 110 38 44 q 138 113 124 113 q 250 76 199 113 q 64 -100 193 -21 q 15 -111 31 -111 q -19 -100 -4 -111 z "},"":{"ha":606,"x_min":28,"x_max":563,"o":"m 28 564 q 179 868 57 718 q 264 911 231 911 q 285 910 278 911 q 231 589 282 713 q 99 553 163 553 q 28 564 72 553 m 306 564 q 457 868 335 718 q 542 911 508 911 q 563 910 556 911 q 508 589 560 713 q 376 553 440 553 q 306 564 350 553 z "},"":{"ha":603,"x_min":51,"x_max":586,"o":"m 51 554 q 106 875 54 751 q 238 911 174 911 q 308 900 264 911 q 157 596 279 746 q 72 553 106 553 q 51 554 58 553 m 329 554 q 383 875 332 751 q 515 911 451 911 q 586 900 542 911 q 435 596 557 746 q 350 553 383 553 q 329 554 336 553 z "},"":{"ha":571,"x_min":4,"x_max":538,"o":"m 4 -39 q 122 171 61 106 q 161 174 147 174 q 274 138 222 174 q 88 -39 217 40 q 39 -50 54 -50 q 4 -39 19 -50 m 268 -39 q 386 171 325 106 q 425 174 411 174 q 538 138 486 174 q 351 -39 481 40 q 303 -50 318 -50 q 268 -39 283 -50 z "},"":{"ha":489,"x_min":54,"x_max":435,"o":"m 54 388 q 72 442 54 415 q 263 457 186 457 q 414 442 343 457 q 435 388 435 417 q 414 321 435 358 q 267 303 350 303 q 72 321 193 303 q 54 388 54 357 m 161 421 q 190 985 161 726 q 201 992 193 986 q 214 1001 210 999 q 225 1008 218 1004 q 239 1014 232 1013 q 254 1015 246 1015 q 301 1003 276 1015 q 329 433 329 733 q 301 -240 329 135 q 244 -275 279 -275 q 190 -258 219 -275 q 161 421 161 110 z "},"":{"ha":683,"x_min":47,"x_max":636,"o":"m 47 388 q 65 442 47 415 q 349 457 181 457 q 508 452 406 457 q 615 442 610 447 q 636 388 636 417 q 615 321 636 358 q 354 303 557 303 q 65 321 186 303 q 47 388 47 357 m 47 624 q 65 678 47 651 q 349 693 181 693 q 508 688 406 693 q 615 678 610 683 q 636 624 636 653 q 615 557 636 594 q 354 539 557 539 q 65 557 186 539 q 47 624 47 593 m 258 421 q 288 985 258 726 q 299 992 290 986 q 311 1001 307 999 q 322 1008 315 1004 q 336 1014 329 1013 q 351 1015 343 1015 q 399 1003 374 1015 q 426 433 426 733 q 399 -240 426 135 q 342 -275 376 -275 q 288 -258 317 -275 q 258 421 258 110 z "},"":{"ha":486,"x_min":61,"x_max":425,"o":"m 61 444 q 108 594 61 519 q 242 639 176 639 q 379 594 306 639 q 425 436 425 518 q 379 269 425 356 q 236 217 300 217 q 108 269 171 217 q 61 444 61 367 z "},"":{"ha":2592,"x_min":46,"x_max":2546,"o":"m 46 89 q 71 165 46 129 q 138 189 103 189 q 208 165 172 189 q 232 86 232 128 q 208 0 232 44 q 135 -26 168 -26 q 71 0 101 -26 q 46 89 46 47 m 1203 89 q 1228 165 1203 129 q 1294 189 1260 189 q 1365 165 1329 189 q 1389 86 1389 128 q 1365 0 1389 44 q 1292 -26 1325 -26 q 1228 0 1258 -26 q 1203 89 1203 47 m 2360 89 q 2385 165 2360 129 q 2451 189 2417 189 q 2522 165 2486 189 q 2546 86 2546 128 q 2522 0 2546 44 q 2449 -26 2482 -26 q 2385 0 2415 -26 q 2360 89 2360 47 z "},"":{"ha":1746,"x_min":51,"x_max":1696,"o":"m 116 472 q 84 510 116 472 q 51 674 51 547 q 116 875 51 800 q 278 950 181 950 q 440 875 375 950 q 504 674 504 800 q 440 472 504 547 q 278 397 375 397 q 116 472 181 397 m 261 797 q 251 778 261 797 q 240 701 240 760 q 262 606 240 643 q 324 569 283 569 q 385 606 365 569 q 406 701 406 643 q 385 797 406 760 q 324 833 364 833 q 261 797 282 833 m 268 15 q 398 269 319 94 q 525 521 476 444 q 694 734 574 597 q 864 950 814 871 q 899 956 881 956 q 960 926 939 956 q 834 679 908 849 q 710 432 760 510 q 537 213 661 356 q 363 -8 413 69 q 322 -15 338 -15 q 268 15 286 -15 m 794 64 q 761 101 794 64 q 729 265 729 139 q 794 467 729 392 q 956 542 858 542 q 1117 467 1053 542 q 1182 265 1182 392 q 1117 64 1182 139 q 956 -11 1053 -11 q 794 64 858 -11 m 939 388 q 928 370 939 388 q 918 293 918 351 q 940 198 918 235 q 1001 161 961 161 q 1063 198 1043 161 q 1083 293 1083 235 q 1063 388 1083 351 q 1001 425 1042 425 q 939 388 960 425 m 1308 64 q 1275 101 1308 64 q 1243 265 1243 139 q 1308 467 1243 392 q 1469 542 1372 542 q 1631 467 1567 542 q 1696 265 1696 392 q 1631 64 1696 139 q 1469 -11 1567 -11 q 1308 64 1372 -11 m 1453 388 q 1442 370 1453 388 q 1432 293 1432 351 q 1453 198 1432 235 q 1515 161 1475 161 q 1577 198 1557 161 q 1597 293 1597 235 q 1576 388 1597 351 q 1515 425 1556 425 q 1453 388 1474 425 z "},"":{"ha":406,"x_min":33,"x_max":371,"o":"m 33 332 q 257 663 131 538 q 336 686 310 686 q 371 663 364 686 q 168 332 281 451 q 363 15 307 210 q 313 -24 339 -24 q 296 -21 304 -24 q 277 -13 288 -18 q 261 -7 267 -8 q 33 332 108 129 z "},"":{"ha":406,"x_min":35,"x_max":372,"o":"m 35 663 q 69 686 42 686 q 149 663 96 686 q 372 332 275 538 q 144 -7 297 129 q 128 -13 139 -8 q 110 -21 118 -18 q 93 -24 101 -24 q 43 15 67 -24 q 238 332 99 210 q 35 663 125 451 z "},"":{"ha":1079,"x_min":51,"x_max":999,"o":"m 51 397 q 71 440 51 418 q 339 453 174 453 q 585 440 514 453 q 606 399 606 421 q 585 346 606 376 q 339 333 536 333 q 71 346 178 333 q 51 397 51 378 m 51 608 q 71 650 51 631 q 338 663 156 663 q 585 650 544 663 q 606 608 606 633 q 585 557 606 588 q 480 547 579 551 q 331 543 381 543 q 71 557 190 543 q 51 608 51 589 m 172 478 q 281 836 172 690 q 571 982 390 982 q 765 921 703 982 q 794 972 768 963 q 879 988 829 988 q 982 960 944 988 q 999 796 999 863 q 949 604 999 676 q 819 576 875 576 q 707 604 767 576 q 706 617 706 607 q 710 639 706 633 q 665 723 710 692 q 582 754 621 754 q 485 667 525 754 q 444 474 444 579 q 483 317 444 374 q 581 261 522 261 q 707 335 647 261 q 703 363 703 360 q 703 368 703 365 q 704 372 704 371 q 815 396 756 396 q 950 368 878 396 q 999 178 999 294 q 982 13 999 113 q 871 -22 939 -22 q 794 0 821 -22 q 765 54 765 11 q 579 -8 674 -8 q 435 22 506 -8 q 304 111 364 53 q 208 265 244 169 q 172 478 172 360 z "},"":{"ha":1210,"x_min":86,"x_max":1125,"o":"m 86 749 q 96 857 86 828 q 331 867 235 867 q 560 857 426 867 q 567 753 567 853 q 563 703 567 717 q 511 696 542 696 q 460 706 478 696 l 449 746 q 404 756 438 756 q 408 636 408 739 q 394 508 408 511 q 435 500 413 508 q 440 461 440 489 q 435 425 440 436 q 332 406 418 406 q 218 425 238 406 q 215 474 215 442 q 218 500 215 497 q 226 501 221 500 q 243 506 231 503 q 260 508 254 508 q 246 625 246 563 q 249 694 246 651 q 253 756 253 738 q 204 746 213 754 l 193 706 q 144 696 176 696 q 90 703 111 696 q 86 749 86 717 m 593 476 q 600 500 593 493 q 639 508 625 508 q 631 633 631 571 q 639 754 631 694 q 600 760 610 754 q 594 815 594 782 q 600 849 594 838 q 742 867 613 867 q 808 861 794 867 q 821 761 821 824 q 797 756 810 756 q 860 708 815 736 q 921 756 906 736 q 915 756 919 756 q 907 758 910 757 q 903 760 904 758 q 897 815 897 782 q 903 849 897 838 q 1046 869 942 869 q 1111 861 1092 869 q 1125 761 1125 810 q 1081 756 1110 756 q 1089 657 1089 706 q 1081 504 1089 654 q 1093 506 1085 506 q 1125 499 1111 506 l 1125 485 q 1111 414 1125 451 q 1025 403 1086 403 q 903 425 925 403 q 899 474 899 446 q 903 500 899 496 q 939 508 932 508 q 933 629 933 594 q 894 596 919 617 q 860 567 869 575 q 826 594 853 572 q 785 629 800 617 q 778 504 783 600 q 790 506 782 506 q 821 499 807 506 q 822 478 822 492 q 808 414 822 446 q 708 406 775 406 q 600 425 614 406 q 597 445 600 426 q 593 476 593 464 z "},"":{"ha":694,"x_min":0,"x_max":694,"o":"m 0 694 l 694 694 l 694 0 l 0 0 l 0 694 z "}}}
